# This file uses centimeters as units for non-parametric coordinates.

mtllib estante.mtl
g default
v 1.548074 1.388227 -8.084173
v 1.642875 1.614100 -8.084173
v 1.790533 1.793353 -8.084173
v 1.976593 1.908439 -8.084173
v 2.182843 1.948096 -8.084173
v 2.182843 0.327598 -8.084173
v 1.976593 0.367255 -8.084173
v 1.790534 0.482342 -8.084173
v 1.642876 0.661595 -8.084173
v 1.548074 0.887466 -8.084173
v 1.515407 1.137847 -8.084173
v 1.548074 1.388227 -8.134402
v 1.642875 1.614100 -8.134402
v 1.790533 1.793353 -8.134402
v 1.976593 1.908439 -8.134402
v 2.182843 1.948096 -8.134402
v 2.182843 0.327598 -8.134402
v 1.976593 0.367255 -8.134402
v 1.790534 0.482342 -8.134402
v 1.642876 0.661595 -8.134402
v 1.548074 0.887466 -8.134402
v 1.515407 1.137847 -8.134402
v 2.182843 1.137847 -8.084173
v 2.182843 1.137847 -8.134402
v 2.182444 0.623535 -9.835671
v 1.671246 0.623535 -9.835671
v 2.182444 0.683359 -9.835671
v 1.671246 0.683359 -9.835671
v 2.182444 0.683359 -8.137536
v 1.671246 0.683359 -8.137536
v 2.182444 0.623535 -8.137536
v 1.671246 0.623535 -8.137536
v 1.548074 1.388227 -9.837405
v 1.642875 1.614100 -9.837405
v 1.790533 1.793353 -9.837405
v 1.976593 1.908439 -9.837405
v 2.182843 1.948096 -9.837405
v 2.182843 0.327598 -9.837405
v 1.976593 0.367255 -9.837405
v 1.790534 0.482342 -9.837405
v 1.642876 0.661595 -9.837405
v 1.548074 0.887466 -9.837405
v 1.515407 1.137847 -9.837405
v 1.548074 1.388227 -9.887634
v 1.642875 1.614100 -9.887634
v 1.790533 1.793353 -9.887634
v 1.976593 1.908439 -9.887634
v 2.182843 1.948096 -9.887634
v 2.182843 0.327598 -9.887634
v 1.976593 0.367255 -9.887634
v 1.790534 0.482342 -9.887634
v 1.642876 0.661595 -9.887634
v 1.548074 0.887466 -9.887634
v 1.515407 1.137847 -9.887634
v 2.182843 1.137847 -9.837405
v 2.182843 1.137847 -9.887634
v 2.182444 1.581395 -9.835671
v 1.671246 1.581395 -9.835671
v 2.182444 1.641219 -9.835671
v 1.671246 1.641219 -9.835671
v 2.182444 1.641219 -8.137536
v 1.671246 1.641219 -8.137536
v 2.182444 1.581395 -8.137536
v 1.671246 1.581395 -8.137536
vt 1.000000 0.662460
vt 1.000000 0.809017
vt 0.972148 0.809017
vt 0.972148 0.662460
vt 1.000000 0.925326
vt 0.972148 0.925326
vt 1.000000 1.000000
vt 0.972148 1.000000
vt 0.403148 1.000000
vt 0.000000 1.000000
vt 0.000000 0.972148
vt 0.403148 0.972148
vt 0.000000 1.000000
vt 0.403148 1.000000
vt 0.403148 0.972148
vt 0.000000 0.972148
vt 1.000000 -0.000000
vt 1.000000 0.074674
vt 0.972148 0.074674
vt 0.972148 -0.000000
vt 1.000000 0.190983
vt 0.972148 0.190983
vt 1.000000 0.337540
vt 0.972148 0.337540
vt 1.000000 0.500000
vt 0.972148 0.500000
vt 0.809018 0.793893
vt 0.951057 0.654508
vt 0.000000 0.500000
vt 0.587786 0.904509
vt 0.309017 0.975528
vt 0.000000 1.000000
vt 0.309017 0.024472
vt 0.000000 -0.000000
vt 0.587785 0.095492
vt 0.809017 0.206107
vt 0.951057 0.345491
vt 1.000000 0.500000
vt 0.951057 0.654508
vt 0.809018 0.793893
vt 0.000000 0.500000
vt 0.587786 0.904509
vt 0.309017 0.975528
vt 0.000000 1.000000
vt 0.000000 -0.000000
vt 0.309017 0.024472
vt 0.587785 0.095492
vt 0.809017 0.206107
vt 0.951057 0.345491
vt 1.000000 0.500000
vt 0.000000 0.000000
vt 1.000000 0.000000
vt 1.000000 1.000000
vt 0.000000 1.000000
vt 0.000778 0.028813
vt 1.000000 0.028813
vt 1.000000 0.970410
vt 0.000778 0.970410
vt 0.000000 1.000000
vt 1.000000 1.000000
vt 1.000000 0.000000
vt 0.000000 0.000000
vt 0.000778 0.970410
vt 1.000000 0.970410
vt 1.000000 0.028813
vt 0.000778 0.028813
vt 0.028813 0.166288
vt 0.970410 0.166288
vt 0.970410 0.205105
vt 0.028813 0.205105
vt 0.970410 0.166288
vt 0.028813 0.166288
vt 0.028813 0.205105
vt 0.970410 0.205105
vt 0.027852 0.662460
vt 0.027852 0.809017
vt 0.000000 0.809017
vt 0.000000 0.662460
vt 0.027852 0.925326
vt 0.000000 0.925326
vt 0.027852 1.000000
vt 0.000000 1.000000
vt 0.403148 0.027852
vt 0.000000 0.027852
vt 0.000000 0.000000
vt 0.403148 0.000000
vt 0.000000 0.027852
vt 0.403148 0.027852
vt 0.403148 0.000000
vt 0.000000 0.000000
vt 0.027852 -0.000000
vt 0.027852 0.074674
vt 0.000000 0.074674
vt 0.000000 -0.000000
vt 0.027852 0.190983
vt 0.000000 0.190983
vt 0.027852 0.337540
vt 0.000000 0.337540
vt 0.027852 0.500000
vt 0.000000 0.500000
vt 0.809018 0.793893
vt 0.951057 0.654508
vt 0.000000 0.500000
vt 0.587786 0.904509
vt 0.309017 0.975528
vt 0.000000 1.000000
vt 0.309017 0.024472
vt 0.000000 -0.000000
vt 0.587785 0.095492
vt 0.809017 0.206107
vt 0.951057 0.345491
vt 1.000000 0.500000
vt 0.951057 0.654508
vt 0.809018 0.793893
vt 0.000000 0.500000
vt 0.587786 0.904509
vt 0.309017 0.975528
vt 0.000000 1.000000
vt 0.000000 -0.000000
vt 0.309017 0.024472
vt 0.587785 0.095492
vt 0.809017 0.206107
vt 0.951057 0.345491
vt 1.000000 0.500000
vt 0.000000 -0.000000
vt 1.000000 -0.000000
vt 1.000000 1.000000
vt 0.000000 1.000000
vt 0.000778 0.028813
vt 1.000000 0.028813
vt 1.000000 0.970410
vt 0.000778 0.970410
vt 0.000000 1.000000
vt 1.000000 1.000000
vt 1.000000 -0.000000
vt 0.000000 -0.000000
vt 0.000778 0.970410
vt 1.000000 0.970410
vt 1.000000 0.028813
vt 0.000778 0.028813
vt 0.028813 0.787797
vt 0.970410 0.787797
vt 0.970410 0.826614
vt 0.028813 0.826614
vt 0.970410 0.787797
vt 0.028813 0.787797
vt 0.028813 0.826614
vt 0.970410 0.826614
vn -0.922076 0.387008 0.000000
vn -0.922076 0.387008 0.000000
vn -0.922076 0.387008 0.000000
vn -0.922076 0.387008 0.000000
vn -0.771851 0.635804 0.000000
vn -0.771851 0.635804 0.000000
vn -0.771851 0.635804 0.000000
vn -0.771851 0.635804 0.000000
vn -0.526044 0.850457 0.000000
vn -0.526044 0.850457 0.000000
vn -0.526044 0.850457 0.000000
vn -0.526044 0.850457 0.000000
vn -0.188817 0.982012 0.000000
vn -0.188817 0.982012 0.000000
vn -0.188817 0.982012 0.000000
vn -0.188817 0.982012 0.000000
vn -0.188818 -0.982012 0.000000
vn -0.188818 -0.982012 0.000000
vn -0.188818 -0.982012 0.000000
vn -0.188818 -0.982012 0.000000
vn -0.526049 -0.850454 0.000000
vn -0.526049 -0.850454 0.000000
vn -0.526049 -0.850454 0.000000
vn -0.526049 -0.850454 0.000000
vn -0.771851 -0.635804 0.000000
vn -0.771851 -0.635804 0.000000
vn -0.771851 -0.635804 0.000000
vn -0.771851 -0.635804 0.000000
vn -0.922074 -0.387015 0.000000
vn -0.922074 -0.387015 0.000000
vn -0.922074 -0.387015 0.000000
vn -0.922074 -0.387015 0.000000
vn -0.991597 -0.129369 0.000000
vn -0.991597 -0.129369 0.000000
vn -0.991597 -0.129369 0.000000
vn -0.991597 -0.129369 0.000000
vn -0.991596 0.129369 0.000000
vn -0.991596 0.129369 0.000000
vn -0.991596 0.129369 0.000000
vn -0.991596 0.129369 0.000000
vn 0.000000 0.000000 1.000000
vn 0.000000 0.000000 1.000000
vn 0.000000 0.000000 1.000000
vn 0.000000 0.000000 1.000000
vn 0.000000 0.000000 1.000000
vn 0.000000 0.000000 1.000000
vn 0.000000 0.000000 1.000000
vn 0.000000 0.000000 1.000000
vn 0.000000 0.000000 1.000000
vn 0.000000 0.000000 1.000000
vn 0.000000 0.000000 1.000000
vn 0.000000 0.000000 1.000000
vn 0.000000 0.000000 1.000000
vn 0.000000 0.000000 1.000000
vn 0.000000 0.000000 1.000000
vn -0.000000 0.000000 1.000000
vn -0.000000 0.000000 1.000000
vn -0.000000 0.000000 1.000000
vn 0.000000 0.000000 1.000000
vn 0.000000 0.000000 1.000000
vn 0.000000 0.000000 1.000000
vn 0.000000 0.000000 1.000000
vn 0.000000 0.000000 1.000000
vn 0.000000 0.000000 1.000000
vn 0.000000 0.000000 1.000000
vn 0.000000 0.000000 1.000000
vn 0.000000 0.000000 1.000000
vn 0.000000 0.000000 1.000000
vn 0.000000 0.000000 1.000000
vn 0.000000 0.000000 1.000000
vn 0.000000 0.000000 -1.000000
vn 0.000000 0.000000 -1.000000
vn 0.000000 0.000000 -1.000000
vn 0.000000 0.000000 -1.000000
vn 0.000000 0.000000 -1.000000
vn 0.000000 0.000000 -1.000000
vn -0.000000 0.000000 -1.000000
vn -0.000000 0.000000 -1.000000
vn -0.000000 0.000000 -1.000000
vn 0.000000 0.000000 -1.000000
vn 0.000000 0.000000 -1.000000
vn 0.000000 0.000000 -1.000000
vn 0.000000 0.000000 -1.000000
vn 0.000000 0.000000 -1.000000
vn 0.000000 0.000000 -1.000000
vn 0.000000 0.000000 -1.000000
vn 0.000000 0.000000 -1.000000
vn 0.000000 0.000000 -1.000000
vn 0.000000 0.000000 -1.000000
vn 0.000000 0.000000 -1.000000
vn 0.000000 0.000000 -1.000000
vn 0.000000 0.000000 -1.000000
vn 0.000000 0.000000 -1.000000
vn 0.000000 0.000000 -1.000000
vn 0.000000 0.000000 -1.000000
vn 0.000000 0.000000 -1.000000
vn 0.000000 0.000000 -1.000000
vn 0.000000 0.000000 -1.000000
vn 0.000000 0.000000 -1.000000
vn 0.000000 0.000000 -1.000000
vn 0.000000 0.000000 -1.000000
vn 0.000000 0.000000 -1.000000
vn 0.000000 0.000000 -1.000000
vn 0.000000 0.000000 -1.000000
vn 0.000000 1.000000 0.000000
vn 0.000000 1.000000 0.000000
vn 0.000000 1.000000 0.000000
vn 0.000000 1.000000 0.000000
vn 0.000000 0.000000 1.000000
vn 0.000000 0.000000 1.000000
vn 0.000000 0.000000 1.000000
vn 0.000000 0.000000 1.000000
vn 0.000000 -1.000000 0.000000
vn 0.000000 -1.000000 0.000000
vn 0.000000 -1.000000 0.000000
vn 0.000000 -1.000000 0.000000
vn -1.000000 0.000000 0.000000
vn -1.000000 0.000000 0.000000
vn -1.000000 0.000000 0.000000
vn -1.000000 0.000000 0.000000
vn 1.000000 0.000000 0.000000
vn 1.000000 0.000000 0.000000
vn 1.000000 0.000000 0.000000
vn 1.000000 0.000000 0.000000
vn -0.922077 0.387007 0.000000
vn -0.922077 0.387007 0.000000
vn -0.922077 0.387007 0.000000
vn -0.922077 0.387007 0.000000
vn -0.771851 0.635803 0.000000
vn -0.771851 0.635803 0.000000
vn -0.771851 0.635803 0.000000
vn -0.771851 0.635803 0.000000
vn -0.526044 0.850457 0.000000
vn -0.526044 0.850457 0.000000
vn -0.526044 0.850457 0.000000
vn -0.526044 0.850457 0.000000
vn -0.188817 0.982012 0.000000
vn -0.188817 0.982012 0.000000
vn -0.188817 0.982012 0.000000
vn -0.188817 0.982012 0.000000
vn -0.188818 -0.982012 0.000000
vn -0.188818 -0.982012 0.000000
vn -0.188818 -0.982012 0.000000
vn -0.188818 -0.982012 0.000000
vn -0.526049 -0.850454 0.000000
vn -0.526049 -0.850454 0.000000
vn -0.526049 -0.850454 0.000000
vn -0.526049 -0.850454 0.000000
vn -0.771850 -0.635804 0.000000
vn -0.771850 -0.635804 0.000000
vn -0.771850 -0.635804 0.000000
vn -0.771850 -0.635804 0.000000
vn -0.922074 -0.387014 0.000000
vn -0.922074 -0.387014 0.000000
vn -0.922074 -0.387014 0.000000
vn -0.922074 -0.387014 0.000000
vn -0.991597 -0.129369 0.000000
vn -0.991597 -0.129369 0.000000
vn -0.991597 -0.129369 0.000000
vn -0.991597 -0.129369 0.000000
vn -0.991596 0.129369 0.000000
vn -0.991596 0.129369 0.000000
vn -0.991596 0.129369 0.000000
vn -0.991596 0.129369 0.000000
vn 0.000001 0.000000 1.000000
vn 0.000001 0.000000 1.000000
vn 0.000001 0.000000 1.000000
vn -0.000001 0.000000 1.000000
vn -0.000001 0.000000 1.000000
vn -0.000001 0.000000 1.000000
vn 0.000000 0.000000 1.000000
vn 0.000000 0.000000 1.000000
vn 0.000000 0.000000 1.000000
vn 0.000000 0.000000 1.000000
vn 0.000000 0.000000 1.000000
vn 0.000000 0.000000 1.000000
vn 0.000000 0.000000 1.000000
vn 0.000000 0.000000 1.000000
vn 0.000000 0.000000 1.000000
vn -0.000001 0.000000 1.000000
vn -0.000001 0.000000 1.000000
vn -0.000001 0.000000 1.000000
vn 0.000001 0.000000 1.000000
vn 0.000001 0.000000 1.000000
vn 0.000001 0.000000 1.000000
vn 0.000000 0.000000 1.000000
vn 0.000000 0.000000 1.000000
vn 0.000000 0.000000 1.000000
vn 0.000000 0.000000 1.000000
vn 0.000000 0.000000 1.000000
vn 0.000000 0.000000 1.000000
vn 0.000000 0.000000 1.000000
vn 0.000000 0.000000 1.000000
vn 0.000000 0.000000 1.000000
vn 0.000000 0.000000 -1.000000
vn 0.000000 0.000000 -1.000000
vn 0.000000 0.000000 -1.000000
vn 0.000000 0.000000 -1.000000
vn 0.000000 0.000000 -1.000000
vn 0.000000 0.000000 -1.000000
vn 0.000000 0.000000 -1.000000
vn 0.000000 0.000000 -1.000000
vn 0.000000 0.000000 -1.000000
vn 0.000000 0.000000 -1.000000
vn 0.000000 0.000000 -1.000000
vn 0.000000 0.000000 -1.000000
vn 0.000000 0.000000 -1.000000
vn 0.000000 0.000000 -1.000000
vn 0.000000 0.000000 -1.000000
vn 0.000000 0.000000 -1.000000
vn 0.000000 0.000000 -1.000000
vn 0.000000 0.000000 -1.000000
vn -0.000001 0.000000 -1.000000
vn -0.000001 0.000000 -1.000000
vn -0.000001 0.000000 -1.000000
vn 0.000000 0.000000 -1.000000
vn 0.000000 0.000000 -1.000000
vn 0.000000 0.000000 -1.000000
vn 0.000000 0.000000 -1.000000
vn 0.000000 0.000000 -1.000000
vn 0.000000 0.000000 -1.000000
vn 0.000000 0.000000 -1.000000
vn 0.000000 0.000000 -1.000000
vn 0.000000 0.000000 -1.000000
vn 0.000000 0.000000 -1.000000
vn 0.000000 0.000000 -1.000000
vn 0.000000 0.000000 -1.000000
vn 0.000000 0.000000 -1.000000
vn 0.000000 1.000000 0.000000
vn 0.000000 1.000000 0.000000
vn 0.000000 1.000000 0.000000
vn 0.000000 1.000000 0.000000
vn 0.000000 0.000000 1.000000
vn 0.000000 0.000000 1.000000
vn 0.000000 0.000000 1.000000
vn 0.000000 0.000000 1.000000
vn 0.000000 -1.000000 0.000000
vn 0.000000 -1.000000 0.000000
vn 0.000000 -1.000000 0.000000
vn 0.000000 -1.000000 0.000000
vn -1.000000 0.000000 0.000000
vn -1.000000 0.000000 0.000000
vn -1.000000 0.000000 0.000000
vn -1.000000 0.000000 0.000000
vn 1.000000 0.000000 0.000000
vn 1.000000 0.000000 0.000000
vn 1.000000 0.000000 0.000000
vn 1.000000 0.000000 0.000000
s off
g estante:pCylinder3
usemtl estante:phong2SG
f 1/1/1 2/2/2 13/3/3 12/4/4
f 2/2/5 3/5/6 14/6/7 13/3/8
f 3/5/9 4/7/10 15/8/11 14/6/12
f 4/9/13 5/10/14 16/11/15 15/12/16
f 6/13/17 7/14/18 18/15/19 17/16/20
f 7/17/21 8/18/22 19/19/23 18/20/24
f 8/18/25 9/21/26 20/22/27 19/19/28
f 9/21/29 10/23/30 21/24/31 20/22/32
f 10/23/33 11/25/34 22/26/35 21/24/36
f 11/25/37 1/1/38 12/4/39 22/26/40
f 2/27/41 1/28/42 23/29/43
f 3/30/44 2/27/45 23/29/46
f 4/31/47 3/30/48 23/29/49
f 5/32/50 4/31/51 23/29/52
f 7/33/53 6/34/54 23/29/55
f 8/35/56 7/33/57 23/29/58
f 9/36/59 8/35/60 23/29/61
f 10/37/62 9/36/63 23/29/64
f 11/38/65 10/37/66 23/29/67
f 1/28/68 11/38/69 23/29/70
f 12/39/71 13/40/72 24/41/73
f 13/40/74 14/42/75 24/41/76
f 14/42/77 15/43/78 24/41/79
f 15/43/80 16/44/81 24/41/82
f 17/45/83 18/46/84 24/41/85
f 18/46/86 19/47/87 24/41/88
f 19/47/89 20/48/90 24/41/91
f 20/48/92 21/49/93 24/41/94
f 21/49/95 22/50/96 24/41/97
f 22/50/98 12/39/99 24/41/100
f 25/51/101 26/52/102 28/53/103 27/54/104
f 27/55/105 28/56/106 30/57/107 29/58/108
f 29/59/109 30/60/110 32/61/111 31/62/112
f 31/63/113 32/64/114 26/65/115 25/66/116
f 26/67/117 32/68/118 30/69/119 28/70/120
f 31/71/121 25/72/122 27/73/123 29/74/124
f 33/75/125 34/76/126 45/77/127 44/78/128
f 34/76/129 35/79/130 46/80/131 45/77/132
f 35/79/133 36/81/134 47/82/135 46/80/136
f 36/83/137 37/84/138 48/85/139 47/86/140
f 38/87/141 39/88/142 50/89/143 49/90/144
f 39/91/145 40/92/146 51/93/147 50/94/148
f 40/92/149 41/95/150 52/96/151 51/93/152
f 41/95/153 42/97/154 53/98/155 52/96/156
f 42/97/157 43/99/158 54/100/159 53/98/160
f 43/99/161 33/75/162 44/78/163 54/100/164
f 34/101/165 33/102/166 55/103/167
f 35/104/168 34/101/169 55/103/170
f 36/105/171 35/104/172 55/103/173
f 37/106/174 36/105/175 55/103/176
f 39/107/177 38/108/178 55/103/179
f 40/109/180 39/107/181 55/103/182
f 41/110/183 40/109/184 55/103/185
f 42/111/186 41/110/187 55/103/188
f 43/112/189 42/111/190 55/103/191
f 33/102/192 43/112/193 55/103/194
f 44/113/195 45/114/196 56/115/197
f 45/114/198 46/116/199 56/115/200
f 46/116/201 47/117/202 56/115/203
f 47/117/204 48/118/205 56/115/206
f 49/119/207 50/120/208 56/115/209
f 50/120/210 51/121/211 56/115/212
f 51/121/213 52/122/214 56/115/215
f 52/122/216 53/123/217 56/115/218
f 53/123/219 54/124/220 56/115/221
f 54/124/222 44/113/223 56/115/224
f 57/125/225 58/126/226 60/127/227 59/128/228
f 59/129/229 60/130/230 62/131/231 61/132/232
f 61/133/233 62/134/234 64/135/235 63/136/236
f 63/137/237 64/138/238 58/139/239 57/140/240
f 58/141/241 64/142/242 62/143/243 60/144/244
f 63/145/245 57/146/246 59/147/247 61/148/248
