# This file uses centimeters as units for non-parametric coordinates.

mtllib muslo1.mtl
g default
v 0.054194 0.366897 3.716402
v 0.052375 0.331932 3.714083
v 0.080994 0.449390 3.683725
v 0.048194 0.452649 3.678702
v 0.137535 0.452666 3.690006
v 0.055710 0.449950 3.689055
v 0.051048 0.434884 3.700071
v 0.047188 0.420659 3.704749
v 0.116170 0.239618 3.694564
v 0.051014 0.430567 3.734589
v 0.062926 0.240119 3.715629
v 0.049985 0.305798 3.710448
v 0.111292 0.453181 3.673205
v 0.089258 0.247071 3.739244
v 0.057519 0.242684 3.702361
v 0.060340 0.449422 3.696094
v 0.148095 0.454204 3.713431
v 0.052386 0.410514 3.722718
v 0.058278 0.330742 3.744644
v 0.065604 0.226678 3.667196
v 0.056534 0.231883 3.684063
v 0.053978 0.252422 3.702292
v 0.056018 0.368289 3.706439
v 0.048486 0.437638 3.692111
v 0.154803 0.450065 3.740859
v 0.053800 0.383296 3.720738
v 0.099284 0.451060 3.787059
v 0.142591 0.456611 3.775777
v 0.098532 0.253056 3.739747
v 0.053662 0.450178 3.767721
v 0.107988 0.233161 3.674870
v 0.058821 0.454616 3.778948
v 0.079736 0.255126 3.745499
v 0.073037 0.229460 3.664496
v 0.113098 0.231185 3.682861
v 0.120098 0.448968 3.679618
v 0.121687 0.450708 3.790135
v 0.052629 0.428288 3.718859
v 0.109925 0.239388 3.679042
v 0.090666 0.230860 3.662780
v 0.044274 0.445577 3.682497
v 0.047571 0.428839 3.698053
v 0.046788 0.413501 3.711177
v 0.048581 0.412513 3.721792
vt 0.633400 0.330400
vt 0.637100 0.299700
vt 0.861700 0.372200
vt 0.814600 0.400300
vt 0.885800 0.366400
vt 0.275200 0.136500
vt 0.269800 0.148900
vt 0.745500 0.209700
vt 0.015800 0.099800
vt 0.006700 0.117400
vt 0.639000 0.276100
vt 0.621200 0.382400
vt 0.270700 0.157400
vt 0.698300 0.229900
vt 0.647900 0.218800
vt 0.793800 0.409000
vt 0.886700 0.320300
vt 0.664800 0.304400
vt 0.816700 0.182300
vt 0.832700 0.200500
vt 0.845100 0.243400
vt 0.857300 0.294000
vt 0.270600 0.130200
vt 0.769600 0.413600
vt 0.874500 0.300200
vt 0.271700 0.112500
vt 0.267100 0.119100
vt 0.738900 0.426100
vt 0.279300 0.121100
vt 0.285300 0.150500
vt 0.633700 0.388900
vt 0.707100 0.234800
vt 0.651600 0.416800
vt 0.833500 0.191400
vt 0.689600 0.238800
vt 0.752800 0.199100
vt 0.829200 0.389100
vt 0.792800 0.184000
vt 0.799100 0.179900
vt 0.880200 0.361500
vt 0.839300 0.389200
vt 0.716700 0.421700
vt 0.002000 0.103000
vt 0.759400 0.204600
vt 0.629200 0.368200
vt 0.634100 0.345000
vt 0.761200 0.197900
vt 0.778200 0.189600
vt 0.696500 0.419600
vt 0.269500 0.139500
vt 0.644200 0.227600
vt 0.659800 0.424900
vt 0.890700 0.335900
vt 0.853000 0.263100
vt 0.865000 0.289200
vt 0.661000 0.219200
vt 0.267100 0.119100
vt 0.269500 0.139500
vt 0.278100 0.163600
vn -0.996141 0.059402 -0.064603
vn -0.993339 0.101204 -0.055102
vn -0.996124 0.083002 0.029101
vn 0.932127 -0.248507 -0.263408
vn 0.923948 -0.101594 -0.368779
vn 0.949855 -0.223789 -0.218390
vn -0.271992 0.066898 -0.959971
vn -0.440892 0.057999 -0.895684
vn -0.313905 0.066601 -0.947115
vn 0.837747 -0.490728 -0.239513
vn 0.824587 -0.481693 -0.296695
vn 0.727625 -0.600220 -0.332111
vn -0.576177 0.231791 -0.783769
vn -0.565703 0.264601 -0.781004
vn -0.661807 0.333503 -0.671407
vn -0.295912 -0.182407 0.937637
vn -0.215099 -0.197099 0.956496
vn -0.359895 -0.164998 0.918287
vn 0.970350 0.015401 -0.241212
vn 0.937969 -0.241592 -0.248692
vn 0.968068 -0.026399 -0.249292
vn -0.988391 -0.018500 -0.150799
vn -0.999508 -0.017100 -0.026300
vn -0.998914 -0.046201 0.006000
vn -0.999769 -0.019699 -0.008600
vn -0.999658 -0.024399 -0.009400
vn -0.965512 -0.011500 -0.260103
vn -0.979203 -0.067000 -0.191501
vn -0.994286 -0.073199 -0.077699
vn -0.995485 -0.036299 -0.087699
vn -0.742680 0.027499 -0.669082
vn -0.703195 0.001500 -0.710995
vn -0.639328 -0.000100 -0.768934
vn -0.078999 -0.925389 0.370695
vn 0.021599 -0.968572 0.247793
vn -0.197209 -0.700532 0.685831
vn -0.211207 0.123304 0.969633
vn -0.229303 -0.042801 0.972414
vn -0.276500 -0.102800 0.955500
vn 0.837747 -0.490728 -0.239513
vn 0.915612 -0.341504 -0.212203
vn 0.824587 -0.481693 -0.296695
vn 0.950863 -0.246991 -0.186693
vn 0.951505 -0.242101 -0.189801
vn 0.960690 -0.221098 -0.167898
vn 0.915612 -0.341504 -0.212203
vn 0.943328 -0.305209 -0.130304
vn 0.950863 -0.246991 -0.186693
vn 0.960690 -0.221098 -0.167898
vn 0.951505 -0.242101 -0.189801
vn 0.973361 -0.219391 0.066597
vn -0.992494 -0.006900 0.122099
vn -0.999658 -0.024399 -0.009400
vn -0.974863 -0.066997 0.212492
vn 0.946569 0.176994 -0.269591
vn 0.930796 0.236999 -0.278299
vn 0.997587 0.036600 -0.058999
vn -0.944539 -0.034201 0.326613
vn -0.871780 -0.191096 0.451090
vn -0.734907 -0.612606 0.290903
vn -0.998914 -0.046201 0.006000
vn -0.999257 0.010400 0.037098
vn -0.989333 -0.055202 0.134805
vn 0.293705 -0.267805 0.917615
vn 0.401213 -0.310010 0.861929
vn 0.265905 -0.440607 0.857415
vn 0.919726 0.086502 -0.382911
vn 0.898788 0.082799 -0.430494
vn 0.871699 0.070800 -0.484900
vn 0.516128 -0.298416 0.802844
vn 0.621505 -0.274602 0.733706
vn 0.430905 -0.286203 0.855809
vn -0.995933 0.090103 0.000100
vn -0.994206 0.090501 -0.058000
vn -0.994708 0.062300 0.081701
vn -0.832727 -0.178806 0.524017
vn -0.840619 -0.179804 0.510911
vn -0.813308 -0.147201 0.562905
vn -0.115799 0.231599 -0.965895
vn -0.224601 0.193201 -0.955106
vn -0.119302 0.191002 -0.974313
vn -0.700613 0.115002 -0.704213
vn -0.716974 0.100796 -0.689775
vn -0.602929 0.100505 -0.791439
vn -0.423186 0.202293 -0.883171
vn -0.545608 -0.019600 -0.837812
vn -0.449707 -0.119002 -0.885213
vn -0.986747 0.093804 -0.132406
vn -0.978739 0.110804 -0.172607
vn -0.956594 0.110899 -0.269498
vn 0.704093 -0.528395 -0.474396
vn 0.667095 -0.470497 -0.577596
vn 0.563372 -0.513475 -0.647268
vn -0.992769 -0.117896 -0.022599
vn -0.997658 -0.067797 -0.009100
vn -0.942319 -0.285506 0.174704
vn -0.825295 -0.230099 0.515697
vn -0.868180 -0.113097 0.483189
vn -0.798001 -0.134300 0.587501
vn 0.621505 -0.274602 0.733706
vn 0.701566 -0.256688 0.664768
vn 0.570770 -0.269686 0.775559
vn 0.671606 -0.110601 -0.732607
vn 0.596225 -0.155907 -0.787533
vn 0.533795 -0.098199 -0.839893
vn 0.210595 0.031099 -0.977078
vn 0.044301 0.024400 -0.998720
vn 0.127106 0.065103 -0.989750
vn -0.563528 0.043702 -0.824941
vn -0.619691 0.009500 -0.784788
vn -0.699497 0.022000 -0.714297
vn -0.999508 -0.017100 -0.026300
vn -0.999257 0.010400 0.037098
vn -0.998914 -0.046201 0.006000
vn 0.504695 0.196698 -0.840591
vn 0.514500 0.201000 -0.833600
vn 0.484193 0.227797 -0.844788
vn 0.896069 -0.319789 -0.307889
vn 0.790118 -0.390809 -0.472211
vn 0.915612 -0.341504 -0.212203
vn 0.915612 -0.341504 -0.212203
vn 0.809373 -0.436885 -0.392487
vn 0.824587 -0.481693 -0.296695
vn -0.722194 -0.596195 0.350697
vn -0.794625 -0.356211 0.491615
vn -0.689113 -0.673113 0.268405
vn -0.996892 -0.076499 0.018800
vn -0.913219 -0.333507 0.234105
vn -0.759618 -0.643715 0.092802
vn 0.974488 -0.213697 -0.068599
vn 0.975191 -0.195198 -0.104399
vn 0.975881 -0.198296 -0.091298
vn 0.951934 -0.195007 0.236208
vn 0.946296 -0.216399 0.240199
vn 0.969824 -0.207005 0.128803
vn -0.978739 0.110804 -0.172607
vn -0.994206 0.090501 -0.058000
vn -0.988124 0.108703 -0.108603
vn 0.216300 -0.380100 -0.899299
vn 0.154596 -0.252093 -0.955274
vn 0.160798 -0.299696 -0.940386
vn 0.955030 -0.207806 0.211507
vn 0.973361 -0.219391 0.066597
vn 0.706670 -0.686670 0.170593
vn -0.611695 -0.041700 0.789994
vn -0.540923 0.007900 0.841035
vn -0.552173 -0.093595 0.828459
vn 0.523920 -0.626724 -0.576822
vn 0.469510 -0.556812 -0.685215
vn 0.437397 -0.646095 -0.625496
vn 0.790118 -0.390809 -0.472211
vn 0.809373 -0.436885 -0.392487
vn 0.915612 -0.341504 -0.212203
vn -0.932942 -0.128592 0.336279
vn -0.868087 -0.149098 0.473493
vn -0.873821 -0.202205 0.442211
vn -0.912652 -0.055703 -0.404923
vn -0.963084 -0.044499 -0.265496
vn -0.969587 -0.057499 -0.237897
vn -0.985964 0.041598 -0.161694
vn -0.990539 0.084403 -0.108204
vn -0.996141 0.059402 -0.064603
s off
g polySurface124 polySurface121 polySurface119 polySurface117 uploads_files_2104560_Humano_01Business_01_30K:Humano_01Business_01_30K_001
usemtl uploads_files_2104560_Humano_01Business_01_30K:Humano_01Business_01
f 1/1/1 2/2/2 19/18/3
f 29/32/4 39/44/5 5/4/6
f 39/44/7 16/40/8 3/3/9
f 38/53/10 6/5/11 16/40/12
f 34/38/13 20/39/14 21/19/15
f 33/35/16 37/42/17 19/18/18
f 5/4/19 17/16/20 25/24/21
f 23/22/22 1/55/23 26/25/24
f 22/20/25 12/21/26 21/19/27
f 23/22/28 26/25/29 18/17/30
f 23/22/31 38/53/32 39/44/33
f 30/33/34 27/49/35 32/52/36
f 19/18/37 37/42/38 27/49/39
f 38/30/40 7/6/41 6/29/42
f 8/7/43 38/30/44 43/13/45
f 7/6/46 38/30/47 8/7/48
f 43/13/49 38/30/50 44/59/51
f 19/18/52 12/11/53 22/51/54
f 9/8/55 39/44/56 29/32/57
f 15/15/58 11/56/59 22/51/60
f 26/46/61 19/18/62 18/45/63
f 33/35/64 14/14/65 29/32/66
f 9/8/67 35/36/68 39/44/69
f 33/35/70 29/32/71 37/42/72
f 2/2/73 12/11/74 19/18/75
f 30/33/76 18/45/77 19/18/78
f 40/48/79 34/38/80 39/44/81
f 21/19/82 23/22/83 39/44/84
f 34/38/85 21/19/86 39/44/87
f 12/21/88 23/22/89 21/19/90
f 6/29/91 24/23/92 41/27/93
f 22/20/94 21/19/95 15/34/96
f 19/18/97 22/51/98 33/35/99
f 29/32/100 28/28/101 37/42/102
f 5/4/103 39/44/104 36/37/105
f 36/37/106 39/44/107 3/3/108
f 16/40/109 39/44/110 38/53/111
f 1/1/112 19/18/113 26/46/114
f 39/44/115 31/47/116 40/48/117
f 8/7/118 42/50/119 7/6/120
f 7/6/121 24/23/122 6/29/123
f 11/56/124 33/35/125 22/51/126
f 18/45/127 10/31/128 38/12/129
f 29/32/130 5/4/131 25/24/132
f 28/28/133 29/32/134 25/24/135
f 23/22/136 12/21/137 2/54/138
f 36/37/139 3/3/140 13/41/141
f 10/9/142 44/10/143 38/43/144
f 30/33/145 19/18/146 27/49/147
f 6/29/148 41/57/149 4/26/150
f 42/58/151 24/23/152 7/6/153
f 18/45/154 30/33/155 10/31/156
f 38/53/157 23/22/158 18/17/159
f 23/22/160 2/54/161 1/55/162
