# This file uses centimeters as units for non-parametric coordinates.

mtllib muslo2.mtl
g default
v -0.022610 0.248695 3.719800
v -0.007964 0.244753 3.724384
v -0.059292 0.246274 3.777942
v -0.031395 0.460310 3.771617
v -0.048631 0.448969 3.727931
v 0.046788 0.411849 3.712911
v 0.048984 0.414530 3.719350
v 0.034129 0.460042 3.777369
v -0.029362 0.240115 3.717892
v -0.063899 0.243622 3.752418
v 0.048783 0.439555 3.685862
v 0.006582 0.269892 3.750176
v 0.009628 0.276868 3.754441
v -0.000802 0.438962 3.672732
v -0.016129 0.240256 3.722152
v -0.044126 0.455299 3.755697
v -0.041618 0.460912 3.758858
v 0.014147 0.292091 3.754489
v 0.038412 0.379336 3.731206
v 0.043546 0.399149 3.727586
v 0.046444 0.408505 3.730683
v -0.025747 0.467611 3.772831
v 0.008213 0.462020 3.780060
v -0.017427 0.432578 3.782102
v 0.005049 0.443037 3.670632
v 0.001765 0.348574 3.780558
v 0.024442 0.338931 3.732297
v 0.033461 0.365055 3.722178
v -0.040593 0.418350 3.702519
v 0.050038 0.456800 3.769933
v -0.003754 0.245459 3.770645
v -0.003187 0.248593 3.734586
v -0.059732 0.240722 3.735619
v -0.038127 0.236966 3.719180
v -0.003133 0.253067 3.773520
v 0.046897 0.406796 3.724156
v -0.046262 0.294348 3.785825
v -0.000507 0.241977 3.758882
v 0.045591 0.444319 3.757537
v -0.049849 0.283337 3.735542
v -0.014349 0.438751 3.678206
v -0.039113 0.447670 3.701330
v 0.020861 0.320910 3.747928
v -0.047070 0.451141 3.721940
v -0.036285 0.246081 3.782708
v 0.045780 0.432644 3.747167
v -0.011179 0.248297 3.775978
v 0.001683 0.246782 3.749235
v 0.029719 0.353313 3.732982
v -0.021404 0.460035 3.775547
vt 0.176700 0.287000
vt 0.190200 0.292000
vt 0.114000 0.085100
vt 0.156400 0.098700
vt 0.055600 0.071600
vt 0.271300 0.123300
vt 0.025300 0.249000
vt 0.029200 0.242200
vt 0.225600 0.108600
vt 0.131600 0.091200
vt 0.128500 0.085900
vt 0.029900 0.227800
vt 0.263400 0.190400
vt 0.011100 0.129200
vt 0.013300 0.120500
vt 0.270700 0.157400
vt 0.276900 0.159400
vt 0.110300 0.077800
vt 0.094700 0.107400
vt 0.064800 0.181900
vt 0.237800 0.218300
vt 0.248500 0.195000
vt 0.179600 0.126600
vt 0.039600 0.072100
vt 0.200500 0.291000
vt 0.137400 0.294000
vt 0.162100 0.297000
vt 0.170100 0.294400
vt 0.045000 0.273000
vt 0.047300 0.266200
vt 0.007500 0.122200
vt 0.097300 0.237900
vt 0.231500 0.105400
vt 0.146700 0.250700
vt 0.212400 0.108100
vt 0.026000 0.200600
vt 0.120800 0.291300
vt 0.097500 0.286100
vt 0.013900 0.183300
vt 0.075100 0.281400
vt 0.078800 0.075400
vt 0.162000 0.096900
vt 0.053400 0.272700
vt 0.024900 0.270500
vt 0.182500 0.295200
vt 0.181600 0.100200
vt 0.231600 0.261700
vt 0.272800 0.174600
vt 0.015500 0.170000
vt 0.247800 0.209500
vt 0.239000 0.237400
vt 0.028100 0.099500
vt 0.219800 0.277300
vt 0.225800 0.273500
vt 0.213700 0.295700
vt 0.275300 0.167300
vt 0.033800 0.275200
vt 0.104600 0.083700
vt 0.014700 0.146600
vt 0.035600 0.087100
vn -0.441419 -0.171066 -0.880844
vn -0.495314 -0.169331 -0.852051
vn -0.374889 -0.179224 -0.909581
vn 0.943615 -0.330662 0.015918
vn 0.949276 -0.314260 -0.010751
vn 0.946546 -0.308231 0.095103
vn 0.939176 -0.342831 -0.020403
vn 0.926883 -0.374952 0.017278
vn 0.941087 -0.317820 0.115519
vn -0.841877 -0.015121 0.539457
vn -0.705802 0.028303 0.707844
vn -0.768497 0.098053 0.632296
vn 0.949276 -0.314260 -0.010751
vn 0.961623 -0.274365 -0.002296
vn 0.964785 -0.252266 0.074507
vn -0.588895 0.295417 -0.752284
vn -0.543111 0.321306 -0.775753
vn -0.791767 0.193404 -0.579395
vn -0.422687 0.181461 0.887923
vn -0.574204 0.104268 0.812046
vn -0.292308 0.258246 0.920796
vn 0.974218 -0.208102 0.087141
vn 0.964715 -0.259820 -0.042648
vn 0.956591 -0.277622 0.088649
vn 0.272792 -0.590618 -0.759444
vn 0.250097 -0.572101 -0.781122
vn 0.185899 -0.571133 -0.799531
vn -0.856143 0.081360 -0.510293
vn -0.867928 -0.068549 -0.491937
vn -0.927869 0.015551 -0.372582
vn -0.322506 -0.240393 -0.915533
vn -0.229908 -0.236664 -0.943998
vn -0.180794 -0.285428 -0.941193
vn 0.898791 -0.383013 -0.213249
vn 0.873070 -0.397102 -0.282946
vn 0.917488 -0.355170 -0.179084
vn 0.941087 -0.317820 0.115519
vn 0.926883 -0.374952 0.017278
vn 0.956851 -0.279045 0.081060
vn 0.328711 -0.100090 -0.939112
vn 0.241803 -0.087285 -0.966392
vn 0.381211 -0.118952 -0.916804
vn -0.671875 0.635662 -0.380156
vn -0.623997 0.681633 -0.382105
vn -0.863795 0.464589 -0.194974
vn 0.931003 -0.296478 0.212918
vn 0.928076 -0.326609 0.178890
vn 0.948303 -0.317251 -0.008526
vn 0.753509 -0.412087 -0.512258
vn 0.654188 -0.427303 -0.624059
vn 0.686783 -0.380636 -0.619230
vn -0.856143 0.081360 -0.510293
vn -0.806442 0.042089 -0.589813
vn -0.765935 0.058685 -0.640234
vn 0.907373 -0.160268 0.388572
vn 0.945596 -0.225628 0.234394
vn 0.888396 -0.142553 0.436384
vn 0.935106 0.062203 -0.348865
vn 0.952887 -0.176111 -0.246965
vn 0.987801 -0.126883 -0.090273
vn -0.205507 0.118192 0.971493
vn -0.134194 0.150406 0.979474
vn -0.010600 0.142939 0.989675
vn 0.956748 -0.183186 0.226001
vn 0.974218 -0.208102 0.087141
vn 0.943264 -0.208942 0.258064
vn -0.430279 0.177097 -0.885154
vn -0.734717 0.013943 -0.678231
vn -0.672364 -0.100680 -0.733342
vn -0.883249 -0.163471 -0.439487
vn -0.850116 -0.362161 -0.382284
vn -0.909290 -0.204783 -0.362291
vn 0.123401 -0.238447 0.963283
vn 0.139999 -0.453984 0.879943
vn 0.072798 -0.346891 0.935076
vn 0.939214 -0.299069 -0.168624
vn 0.895426 -0.322708 -0.306712
vn 0.923686 -0.311720 -0.222788
vn 0.918215 -0.255863 0.302351
vn 0.941892 -0.271293 0.198089
vn 0.931003 -0.296478 0.212918
vn 0.896255 -0.128698 -0.424457
vn 0.937799 -0.064783 -0.341082
vn 0.915157 -0.029189 -0.402039
vn 0.696730 -0.426737 -0.576595
vn 0.784799 -0.311781 -0.535615
vn 0.702700 -0.266946 -0.659510
vn -0.615938 -0.028944 -0.787263
vn -0.717473 -0.041764 -0.695333
vn -0.621903 -0.057645 -0.780969
vn 0.939389 -0.296090 -0.172855
vn 0.939214 -0.299069 -0.168624
vn 0.961623 -0.274365 -0.002296
vn -0.004100 0.006871 0.999968
vn 0.059500 -0.177302 0.982356
vn -0.080003 0.000594 0.996794
vn 0.387794 -0.764180 0.515407
vn 0.367089 -0.849726 0.378433
vn 0.336215 -0.863938 0.374927
vn 0.937799 -0.064783 -0.341082
vn 0.935106 0.062203 -0.348865
vn 0.915157 -0.029189 -0.402039
vn -0.942736 -0.007664 -0.333452
vn -0.967195 0.036803 -0.251355
vn -0.871084 -0.018151 -0.490799
vn 0.798930 -0.287293 -0.528368
vn 0.839464 -0.403272 -0.364241
vn 0.887869 -0.197532 -0.415536
vn 0.630975 -0.146072 0.761927
vn 0.796431 -0.056479 0.602086
vn 0.595491 -0.031559 0.802742
vn -0.476292 -0.155358 -0.865454
vn -0.406309 -0.187666 -0.894256
vn -0.349899 -0.277705 -0.894679
vn -0.719165 -0.601698 0.347506
vn -0.796404 -0.557996 0.233198
vn -0.837502 -0.435202 0.330439
vn 0.926883 -0.374952 0.017278
vn 0.912926 -0.402642 -0.066682
vn 0.922601 -0.305349 -0.235733
vn 0.912926 -0.402642 -0.066682
vn 0.896846 -0.415856 -0.150766
vn 0.922601 -0.305349 -0.235733
vn -0.983837 -0.028328 -0.176809
vn -0.904849 0.371050 -0.208736
vn -0.991182 0.111614 -0.071417
vn 0.885396 -0.238834 0.398789
vn 0.993742 -0.057352 0.095858
vn 0.866912 -0.154168 0.474021
vn -0.622285 0.104063 0.775843
vn -0.764513 0.141143 0.628966
vn -0.780896 0.127729 0.611463
vn 0.763961 -0.168395 0.622902
vn 0.814401 -0.177243 0.552573
vn 0.799601 -0.206933 0.563753
vn 0.930797 -0.356400 -0.081215
vn 0.898791 -0.383013 -0.213249
vn 0.917488 -0.355170 -0.179084
vn 0.097302 0.139771 0.985391
vn -0.068103 0.190221 0.979376
vn -0.071798 0.331338 0.940776
vn -0.451308 0.411519 -0.791816
vn -0.211691 0.624788 -0.751550
vn -0.345200 0.665244 -0.662033
vn 0.951707 -0.226258 0.207513
vn 0.964785 -0.252266 0.074507
vn 0.964129 -0.203883 0.169959
vn 0.814013 -0.376355 -0.442425
vn 0.790118 -0.438244 -0.428551
vn 0.896069 -0.350358 -0.272598
vn -0.342111 0.257544 0.903677
vn -0.292308 0.258246 0.920796
vn -0.554976 0.085284 0.827483
vn 0.974218 -0.208102 0.087141
vn 0.956591 -0.277622 0.088649
vn 0.943264 -0.208942 0.258064
vn 0.258106 -0.587839 0.766699
vn 0.267588 -0.607146 0.748178
vn 0.235800 -0.592033 0.770646
vn -0.625765 0.188828 0.756810
vn -0.743105 0.122377 0.657890
vn -0.584479 -0.035146 0.810647
vn 0.120600 0.257911 0.958612
vn 0.292391 -0.152684 0.944031
vn 0.119702 0.131982 0.983998
vn 0.880063 -0.158974 0.447455
vn 0.851036 -0.187427 0.490519
vn 0.816116 -0.125448 0.564107
vn 0.389574 -0.451981 0.802462
vn 0.494796 -0.453871 0.741065
vn 0.548788 -0.317525 0.773311
vn 0.939214 -0.299069 -0.168624
vn 0.948303 -0.317251 -0.008526
vn 0.961623 -0.274365 -0.002296
vn 0.805677 -0.023498 -0.591889
vn 0.706796 0.162585 -0.688481
vn 0.711112 -0.027040 -0.702558
vn -0.967195 0.036803 -0.251355
vn -0.942736 -0.007664 -0.333452
vn -0.986014 0.037348 -0.162423
vn -0.105904 0.185044 0.977007
vn -0.077897 0.344074 0.935706
vn -0.193604 0.799288 0.568908
vn 0.969441 -0.191921 0.152809
vn 0.902860 -0.363113 0.230203
vn 0.866691 -0.378570 0.324856
vn 0.960517 -0.257895 -0.104392
vn 0.932788 -0.307024 -0.188794
vn 0.964715 -0.259820 -0.042648
vn 0.260901 -0.376415 0.888956
vn 0.335384 -0.424701 0.840920
vn 0.298987 -0.276173 0.913420
s off
g polySurface122 polySurface119 polySurface117 uploads_files_2104560_Humano_01Business_01_30K:Humano_01Business_01_30K_001
usemtl uploads_files_2104560_Humano_01Business_01_30K:Humano_01Business_01
f 40/34/1 29/23/2 14/9/3
f 49/50/4 28/22/5 19/13/6
f 12/7/7 13/8/8 35/30/9
f 16/10/10 4/3/11 17/11/12
f 28/22/13 20/48/14 19/13/15
f 9/28/16 33/26/17 37/32/18
f 22/18/19 4/3/20 50/58/21
f 43/36/22 27/39/23 49/49/24
f 11/6/25 14/9/26 25/33/27
f 44/42/28 29/23/29 5/4/30
f 40/34/31 14/9/32 1/1/33
f 27/21/34 1/1/35 28/22/36
f 35/30/37 13/8/38 18/12/39
f 15/45/40 1/1/41 2/2/42
f 33/26/43 10/37/44 37/32/45
f 21/15/46 20/14/47 36/31/48
f 1/1/49 14/9/50 28/22/51
f 44/42/52 42/46/53 29/23/54
f 35/30/55 18/12/56 26/20/57
f 48/44/58 12/7/59 35/30/60
f 37/32/61 26/20/62 24/19/63
f 26/20/64 43/36/65 19/59/66
f 33/26/67 9/28/68 34/27/69
f 40/34/70 9/28/71 37/32/72
f 24/19/73 8/5/74 23/41/75
f 7/17/76 28/22/77 6/16/78
f 46/52/79 20/14/80 21/15/81
f 2/2/82 12/53/83 32/25/84
f 11/6/85 28/22/86 14/9/87
f 29/23/88 42/46/89 41/35/90
f 28/22/91 7/17/92 20/48/93
f 50/58/94 24/19/95 23/41/96
f 24/19/97 39/60/98 30/24/99
f 12/53/100 48/55/101 32/25/102
f 40/34/103 16/10/104 29/23/105
f 1/1/106 18/47/107 2/2/108
f 24/19/109 46/52/110 39/60/111
f 29/23/112 41/35/113 14/9/114
f 37/32/115 10/37/116 3/38/117
f 13/54/118 12/53/119 18/47/120
f 12/53/121 2/2/122 18/47/123
f 29/23/124 16/10/125 5/4/126
f 18/12/127 43/36/128 26/20/129
f 24/19/130 16/10/131 37/32/132
f 26/20/133 46/52/134 24/19/135
f 49/50/136 27/21/137 28/22/138
f 26/20/139 3/38/140 35/30/141
f 40/34/142 1/1/143 9/28/144
f 46/52/145 19/59/146 20/14/147
f 28/22/148 11/6/149 6/16/150
f 24/19/151 50/58/152 4/3/153
f 43/36/154 49/49/155 19/59/156
f 45/40/157 47/43/158 35/30/159
f 4/3/160 16/10/161 24/19/162
f 24/19/163 30/24/164 8/5/165
f 19/59/166 46/52/167 26/20/168
f 47/43/169 31/29/170 35/30/171
f 7/17/172 36/56/173 20/48/174
f 43/51/175 18/47/176 1/1/177
f 16/10/178 40/34/179 37/32/180
f 45/40/181 35/30/182 3/38/183
f 38/57/184 48/44/185 35/30/186
f 43/51/187 1/1/188 27/21/189
f 37/32/190 3/38/191 26/20/192
