# This file uses centimeters as units for non-parametric coordinates.

mtllib muslo1.mtl
g default
v -0.045244 -0.062726 -0.009401
v -0.047063 -0.097691 -0.011720
v -0.018444 0.019767 -0.042078
v -0.051244 0.023026 -0.047101
v 0.038097 0.023043 -0.035797
v -0.043728 0.020327 -0.036748
v -0.048390 0.005261 -0.025732
v -0.052250 -0.008964 -0.021054
v 0.016732 -0.190005 -0.031239
v -0.048424 0.000944 0.008786
v -0.036512 -0.189504 -0.010174
v -0.049453 -0.123825 -0.015355
v 0.011854 0.023558 -0.052598
v -0.010180 -0.182552 0.013441
v -0.041919 -0.186939 -0.023442
v -0.039098 0.019799 -0.029709
v 0.048657 0.024581 -0.012372
v -0.047052 -0.019109 -0.003085
v -0.041160 -0.098881 0.018841
v -0.033834 -0.202945 -0.058607
v -0.042904 -0.197740 -0.041740
v -0.045460 -0.177201 -0.023511
v -0.043420 -0.061334 -0.019364
v -0.050952 0.008015 -0.033692
v 0.055365 0.020442 0.015056
v -0.045638 -0.046327 -0.005065
v -0.000154 0.021437 0.061256
v 0.043153 0.026988 0.049974
v -0.000906 -0.176567 0.013944
v -0.045776 0.020555 0.041918
v 0.008550 -0.196462 -0.050933
v -0.040617 0.024993 0.053145
v -0.019702 -0.174497 0.019696
v -0.026401 -0.200163 -0.061307
v 0.013660 -0.198438 -0.042942
v 0.020660 0.019345 -0.046185
v 0.022249 0.021085 0.064332
v -0.046809 -0.001335 -0.006944
v 0.010487 -0.190235 -0.046761
v -0.008772 -0.198763 -0.063023
v -0.055164 0.015954 -0.043306
v -0.051867 -0.000784 -0.027750
v -0.052650 -0.016122 -0.014626
v -0.050857 -0.017110 -0.004011
vt 0.633400 0.330400
vt 0.637100 0.299700
vt 0.664800 0.304400
vt 0.707100 0.234800
vt 0.759400 0.204600
vt 0.814600 0.400300
vt 0.880200 0.361500
vt 0.861700 0.372200
vt 0.890700 0.335900
vt 0.885800 0.366400
vt 0.792800 0.184000
vt 0.799100 0.179900
vt 0.816700 0.182300
vt 0.689600 0.238800
vt 0.716700 0.421700
vt 0.793800 0.409000
vt 0.769600 0.413600
vt 0.857300 0.294000
vt 0.865000 0.289200
vt 0.874500 0.300200
vt 0.832700 0.200500
vt 0.845100 0.243400
vt 0.886700 0.320300
vt 0.651600 0.416800
vt 0.696500 0.419600
vt 0.659800 0.424900
vt 0.285300 0.150500
vt 0.275200 0.136500
vt 0.279300 0.121100
vt 0.269800 0.148900
vt 0.270700 0.157400
vt 0.278100 0.163600
vt 0.639000 0.276100
vt 0.644200 0.227600
vt 0.745500 0.209700
vt 0.647900 0.218800
vt 0.661000 0.219200
vt 0.634100 0.345000
vt 0.629200 0.368200
vt 0.698300 0.229900
vt 0.752800 0.199100
vt 0.778200 0.189600
vt 0.270600 0.130200
vt 0.267100 0.119100
vt 0.833500 0.191400
vt 0.738900 0.426100
vt 0.829200 0.389100
vt 0.761200 0.197900
vt 0.269500 0.139500
vt 0.633700 0.388900
vt 0.621200 0.382400
vt 0.853000 0.263100
vt 0.839300 0.389200
vt 0.015800 0.099800
vt 0.006700 0.117400
vt 0.002000 0.103000
vt 0.267100 0.119100
vt 0.271700 0.112500
vt 0.269500 0.139500
vn -0.980850 0.038363 0.190950
vn -0.980850 0.038363 0.190950
vn -0.980850 0.038363 0.190950
vn 0.967675 -0.136183 0.212274
vn 0.967675 -0.136183 0.212274
vn 0.967675 -0.136183 0.212274
vn -0.513155 -0.051590 -0.856744
vn -0.513155 -0.051590 -0.856744
vn -0.513155 -0.051590 -0.856744
vn 0.585288 -0.683465 -0.436249
vn 0.585288 -0.683465 -0.436249
vn 0.585288 -0.683465 -0.436249
vn -0.454731 0.752322 -0.476687
vn -0.454731 0.752322 -0.476687
vn -0.454731 0.752322 -0.476687
vn -0.430531 -0.112048 0.895594
vn -0.430531 -0.112048 0.895594
vn -0.430531 -0.112048 0.895594
vn 0.697131 -0.663884 -0.270679
vn 0.697131 -0.663884 -0.270679
vn 0.697131 -0.663884 -0.270679
vn -0.983955 0.023135 -0.176908
vn -0.983956 0.023135 -0.176908
vn -0.983956 0.023135 -0.176908
vn -0.995667 -0.064206 -0.067266
vn -0.995667 -0.064206 -0.067266
vn -0.995667 -0.064206 -0.067266
vn -0.993171 -0.043727 -0.108164
vn -0.993171 -0.043727 -0.108164
vn -0.993171 -0.043727 -0.108164
vn -0.014997 0.201871 -0.979297
vn -0.014997 0.201871 -0.979297
vn -0.014997 0.201871 -0.979297
vn -0.163719 -0.889399 0.426808
vn -0.163719 -0.889399 0.426808
vn -0.163718 -0.889399 0.426808
vn -0.134696 -0.288294 0.948021
vn -0.134696 -0.288294 0.948021
vn -0.134696 -0.288294 0.948021
vn 0.871593 -0.434997 -0.226060
vn 0.871593 -0.434997 -0.226060
vn 0.871593 -0.434997 -0.226060
vn 0.940502 -0.254614 -0.225005
vn 0.940502 -0.254614 -0.225005
vn 0.940502 -0.254614 -0.225005
vn 0.930314 -0.314499 -0.188698
vn 0.930314 -0.314499 -0.188698
vn 0.930314 -0.314499 -0.188698
vn 0.943064 -0.276400 -0.185021
vn 0.943064 -0.276400 -0.185021
vn 0.943064 -0.276400 -0.185021
vn -0.941705 -0.118559 0.314858
vn -0.941705 -0.118559 0.314858
vn -0.941705 -0.118559 0.314858
vn 0.332127 0.931641 -0.147430
vn 0.332127 0.931642 -0.147430
vn 0.332127 0.931641 -0.147430
vn -0.896393 -0.323809 0.302701
vn -0.896393 -0.323808 0.302701
vn -0.896393 -0.323809 0.302701
vn -0.996435 -0.056335 0.062805
vn -0.996435 -0.056335 0.062805
vn -0.996435 -0.056335 0.062805
vn 0.223056 -0.419582 0.879884
vn 0.223056 -0.419582 0.879884
vn 0.223056 -0.419582 0.879884
vn 0.911543 0.180606 -0.369419
vn 0.911543 0.180606 -0.369419
vn 0.911543 0.180606 -0.369419
vn 0.255031 -0.266810 0.929393
vn 0.255031 -0.266810 0.929393
vn 0.255031 -0.266810 0.929393
vn -0.979448 0.062918 0.191635
vn -0.979448 0.062918 0.191635
vn -0.979447 0.062918 0.191635
vn -0.995783 -0.052959 0.074910
vn -0.995783 -0.052959 0.074910
vn -0.995783 -0.052959 0.074910
vn -0.108488 0.927443 -0.357882
vn -0.108488 0.927443 -0.357882
vn -0.108488 0.927443 -0.357882
vn -0.114740 0.160384 -0.980363
vn -0.114740 0.160384 -0.980363
vn -0.114740 0.160384 -0.980363
vn -0.157872 0.954921 -0.251399
vn -0.157872 0.954921 -0.251399
vn -0.157872 0.954921 -0.251399
vn -0.913648 0.062436 -0.401684
vn -0.913648 0.062436 -0.401684
vn -0.913647 0.062436 -0.401684
vn 0.566865 -0.495890 -0.657842
vn 0.566865 -0.495890 -0.657842
vn 0.566865 -0.495890 -0.657842
vn -0.911986 -0.329896 0.243825
vn -0.911986 -0.329896 0.243825
vn -0.911986 -0.329896 0.243825
vn -0.829598 -0.229665 0.508941
vn -0.829598 -0.229665 0.508941
vn -0.829598 -0.229665 0.508941
vn 0.595604 -0.263248 0.758918
vn 0.595604 -0.263248 0.758918
vn 0.595604 -0.263248 0.758918
vn 0.515216 -0.022654 -0.856761
vn 0.515216 -0.022654 -0.856761
vn 0.515216 -0.022654 -0.856761
vn -0.104367 0.007799 -0.994508
vn -0.104367 0.007799 -0.994508
vn -0.104367 0.007799 -0.994508
vn -0.874786 -0.169675 -0.453828
vn -0.874786 -0.169675 -0.453828
vn -0.874786 -0.169675 -0.453828
vn -0.995334 -0.046299 0.084662
vn -0.995333 -0.046299 0.084662
vn -0.995333 -0.046299 0.084662
vn 0.498043 0.370390 -0.784069
vn 0.498043 0.370390 -0.784069
vn 0.498043 0.370390 -0.784069
vn 0.848677 -0.358252 -0.389106
vn 0.848677 -0.358252 -0.389106
vn 0.848677 -0.358252 -0.389106
vn 0.732941 -0.534506 -0.420832
vn 0.732942 -0.534507 -0.420832
vn 0.732941 -0.534507 -0.420832
vn -0.855343 -0.064918 0.513978
vn -0.855343 -0.064918 0.513978
vn -0.855343 -0.064918 0.513978
vn -0.994858 -0.008314 -0.100938
vn -0.994858 -0.008314 -0.100938
vn -0.994858 -0.008314 -0.100938
vn 0.910668 -0.258291 -0.322444
vn 0.910668 -0.258291 -0.322444
vn 0.910668 -0.258291 -0.322444
vn 0.895909 -0.257937 0.361684
vn 0.895909 -0.257937 0.361684
vn 0.895909 -0.257937 0.361684
vn -0.995215 0.094481 -0.024925
vn -0.995215 0.094481 -0.024925
vn -0.995215 0.094481 -0.024925
vn -0.060699 -0.870454 -0.488494
vn -0.060699 -0.870454 -0.488494
vn -0.060699 -0.870454 -0.488494
vn 0.965816 -0.223382 0.131525
vn 0.965817 -0.223382 0.131525
vn 0.965817 -0.223382 0.131525
vn -0.380073 -0.189611 0.905313
vn -0.380073 -0.189611 0.905313
vn -0.380073 -0.189611 0.905313
vn 0.556540 -0.610744 -0.563254
vn 0.556540 -0.610744 -0.563254
vn 0.556540 -0.610744 -0.563254
vn 0.847018 -0.355163 -0.395501
vn 0.847018 -0.355163 -0.395500
vn 0.847018 -0.355162 -0.395501
vn -0.968501 -0.172546 0.179536
vn -0.968501 -0.172546 0.179536
vn -0.968501 -0.172546 0.179536
vn -0.986356 -0.021939 -0.163159
vn -0.986356 -0.021939 -0.163159
vn -0.986356 -0.021939 -0.163159
vn -0.983238 0.062511 -0.171275
vn -0.983238 0.062511 -0.171275
vn -0.983238 0.062511 -0.171275
s off
g muslo1:Humano_01Business_01_30K_
usemtl muslo1:Humano_01Business_01
f 1/1/1 2/2/2 19/3/3
f 29/4/4 39/5/5 5/6/6
f 39/5/7 16/7/8 3/8/9
f 38/9/10 6/10/11 16/7/12
f 34/11/13 20/12/14 21/13/15
f 33/14/16 37/15/17 19/3/18
f 5/6/19 17/16/20 25/17/21
f 23/18/22 1/19/23 26/20/24
f 22/21/25 12/22/26 21/13/27
f 23/18/28 26/20/29 18/23/30
f 23/18/31 38/9/32 39/5/33
f 30/24/34 27/25/35 32/26/36
f 19/3/37 37/15/38 27/25/39
f 38/27/40 7/28/41 6/29/42
f 8/30/43 38/27/44 43/31/45
f 7/28/46 38/27/47 8/30/48
f 43/31/49 38/27/50 44/32/51
f 19/3/52 12/33/53 22/34/54
f 9/35/55 39/5/56 29/4/57
f 15/36/58 11/37/59 22/34/60
f 26/38/61 19/3/62 18/39/63
f 33/14/64 14/40/65 29/4/66
f 9/35/67 35/41/68 39/5/69
f 33/14/70 29/4/71 37/15/72
f 2/2/73 12/33/74 19/3/75
f 30/24/76 18/39/77 19/3/78
f 40/42/79 34/11/80 39/5/81
f 21/13/82 23/18/83 39/5/84
f 34/11/85 21/13/86 39/5/87
f 12/22/88 23/18/89 21/13/90
f 6/29/91 24/43/92 41/44/93
f 22/21/94 21/13/95 15/45/96
f 19/3/97 22/34/98 33/14/99
f 29/4/100 28/46/101 37/15/102
f 5/6/103 39/5/104 36/47/105
f 36/47/106 39/5/107 3/8/108
f 16/7/109 39/5/110 38/9/111
f 1/1/112 19/3/113 26/38/114
f 39/5/115 31/48/116 40/42/117
f 8/30/118 42/49/119 7/28/120
f 7/28/121 24/43/122 6/29/123
f 11/37/124 33/14/125 22/34/126
f 18/39/127 10/50/128 38/51/129
f 29/4/130 5/6/131 25/17/132
f 28/46/133 29/4/134 25/17/135
f 23/18/136 12/22/137 2/52/138
f 36/47/139 3/8/140 13/53/141
f 10/54/142 44/55/143 38/56/144
f 30/24/145 19/3/146 27/25/147
f 6/29/148 41/57/149 4/58/150
f 42/59/151 24/43/152 7/28/153
f 18/39/154 30/24/155 10/50/156
f 38/9/157 23/18/158 18/23/159
f 23/18/160 2/52/161 1/19/162
