# This file uses centimeters as units for non-parametric coordinates.

mtllib muslo2.mtl
g default
v -0.015663 -0.184320 -0.007986
v -0.001017 -0.188262 -0.003402
v -0.052345 -0.186741 0.050156
v -0.024448 0.027295 0.043831
v -0.041684 0.015954 0.000145
v 0.053735 -0.021166 -0.014875
v 0.055931 -0.018485 -0.008436
v 0.041076 0.027027 0.049583
v -0.022415 -0.192900 -0.009894
v -0.056952 -0.189393 0.024632
v 0.055730 0.006540 -0.041924
v 0.013529 -0.163123 0.022390
v 0.016575 -0.156147 0.026655
v 0.006145 0.005947 -0.055054
v -0.009182 -0.192759 -0.005634
v -0.037179 0.022284 0.027911
v -0.034671 0.027897 0.031072
v 0.021094 -0.140924 0.026703
v 0.045359 -0.053679 0.003420
v 0.050493 -0.033866 -0.000200
v 0.053391 -0.024510 0.002897
v -0.018800 0.034596 0.045045
v 0.015160 0.029005 0.052274
v -0.010480 -0.000437 0.054316
v 0.011996 0.010022 -0.057154
v 0.008712 -0.084441 0.052772
v 0.031389 -0.094084 0.004511
v 0.040408 -0.067960 -0.005608
v -0.033646 -0.014665 -0.025267
v 0.056985 0.023785 0.042147
v 0.003193 -0.187556 0.042859
v 0.003760 -0.184422 0.006800
v -0.052785 -0.192293 0.007833
v -0.031180 -0.196049 -0.008606
v 0.003814 -0.179948 0.045734
v 0.053844 -0.026219 -0.003630
v -0.039315 -0.138667 0.058039
v 0.006440 -0.191038 0.031096
v 0.052538 0.011304 0.029751
v -0.042902 -0.149678 0.007756
v -0.007402 0.005736 -0.049580
v -0.032166 0.014655 -0.026456
v 0.027808 -0.112105 0.020142
v -0.040123 0.018126 -0.005846
v -0.029338 -0.186934 0.054922
v 0.052727 -0.000371 0.019381
v -0.004232 -0.184718 0.048192
v 0.008630 -0.186233 0.021449
v 0.036666 -0.079702 0.005196
v -0.014457 0.027020 0.047761
vt 0.146700 0.250700
vt 0.179600 0.126600
vt 0.225600 0.108600
vt 0.247800 0.209500
vt 0.248500 0.195000
vt 0.263400 0.190400
vt 0.025300 0.249000
vt 0.029200 0.242200
vt 0.047300 0.266200
vt 0.131600 0.091200
vt 0.114000 0.085100
vt 0.128500 0.085900
vt 0.272800 0.174600
vt 0.170100 0.294400
vt 0.137400 0.294000
vt 0.097300 0.237900
vt 0.110300 0.077800
vt 0.104600 0.083700
vt 0.026000 0.200600
vt 0.013900 0.183300
vt 0.015500 0.170000
vt 0.271300 0.123300
vt 0.231500 0.105400
vt 0.162000 0.096900
vt 0.156400 0.098700
vt 0.176700 0.287000
vt 0.237800 0.218300
vt 0.029900 0.227800
vt 0.182500 0.295200
vt 0.190200 0.292000
vt 0.120800 0.291300
vt 0.013300 0.120500
vt 0.011100 0.129200
vt 0.007500 0.122200
vt 0.181600 0.100200
vt 0.064800 0.181900
vt 0.024900 0.270500
vt 0.094700 0.107400
vt 0.014700 0.146600
vt 0.162100 0.297000
vt 0.055600 0.071600
vt 0.078800 0.075400
vt 0.276900 0.159400
vt 0.270700 0.157400
vt 0.028100 0.099500
vt 0.219800 0.277300
vt 0.200500 0.291000
vt 0.212400 0.108100
vt 0.035600 0.087100
vt 0.039600 0.072100
vt 0.213700 0.295700
vt 0.231600 0.261700
vt 0.097500 0.286100
vt 0.225800 0.273500
vt 0.075100 0.281400
vt 0.053400 0.272700
vt 0.045000 0.273000
vt 0.275300 0.167300
vt 0.239000 0.237400
vt 0.033800 0.275200
vn -0.534378 -0.166075 -0.828770
vn -0.534378 -0.166075 -0.828770
vn -0.534378 -0.166075 -0.828770
vn 0.947989 -0.317843 -0.017099
vn 0.947989 -0.317843 -0.017099
vn 0.947989 -0.317843 -0.017099
vn 0.899817 -0.431641 0.063373
vn 0.899817 -0.431641 0.063373
vn 0.899817 -0.431641 0.063373
vn -0.780470 -0.003347 0.625184
vn -0.780470 -0.003347 0.625184
vn -0.780470 -0.003347 0.625184
vn 0.958156 -0.267091 -0.102958
vn 0.958156 -0.267091 -0.102958
vn 0.958156 -0.267091 -0.102958
vn -0.357200 0.684599 -0.635399
vn -0.357200 0.684599 -0.635399
vn -0.357200 0.684599 -0.635399
vn -0.360205 0.124933 0.924469
vn -0.360205 0.124933 0.924469
vn -0.360205 0.124933 0.924469
vn 0.927648 -0.332248 -0.170528
vn 0.927648 -0.332248 -0.170528
vn 0.927648 -0.332248 -0.170528
vn 0.199681 -0.659957 -0.724282
vn 0.199681 -0.659957 -0.724282
vn 0.199681 -0.659957 -0.724282
vn -0.964019 -0.034288 -0.263613
vn -0.964019 -0.034288 -0.263613
vn -0.964019 -0.034288 -0.263613
vn -0.609808 -0.123760 -0.782827
vn -0.609808 -0.123760 -0.782827
vn -0.609808 -0.123760 -0.782827
vn 0.864538 -0.410679 -0.289685
vn 0.864538 -0.410679 -0.289685
vn 0.864538 -0.410679 -0.289685
vn 0.921708 -0.274476 0.274077
vn 0.921707 -0.274476 0.274077
vn 0.921707 -0.274476 0.274077
vn 0.287022 -0.046240 -0.956807
vn 0.287022 -0.046240 -0.956807
vn 0.287022 -0.046240 -0.956807
vn -0.829513 0.478303 -0.288330
vn -0.829513 0.478303 -0.288330
vn -0.829513 0.478303 -0.288330
vn 0.928530 -0.338260 0.153013
vn 0.928530 -0.338260 0.153013
vn 0.928530 -0.338260 0.153013
vn 0.569206 -0.258334 -0.780556
vn 0.569206 -0.258334 -0.780556
vn 0.569206 -0.258334 -0.780556
vn -0.930572 0.032184 -0.364691
vn -0.930572 0.032184 -0.364691
vn -0.930572 0.032184 -0.364691
vn 0.817322 -0.083922 0.570036
vn 0.817322 -0.083922 0.570036
vn 0.817322 -0.083922 0.570036
vn 0.947056 -0.210630 0.242324
vn 0.947056 -0.210630 0.242324
vn 0.947056 -0.210630 0.242324
vn 0.103122 0.005278 0.994655
vn 0.103122 0.005278 0.994655
vn 0.103122 0.005278 0.994655
vn 0.825269 -0.088262 0.557800
vn 0.825269 -0.088262 0.557800
vn 0.825269 -0.088262 0.557800
vn -0.345041 0.708688 -0.615392
vn -0.345041 0.708688 -0.615392
vn -0.345041 0.708688 -0.615392
vn -0.863133 -0.476911 0.166007
vn -0.863133 -0.476911 0.166007
vn -0.863133 -0.476910 0.166007
vn 0.101776 -0.019650 0.994613
vn 0.101776 -0.019650 0.994613
vn 0.101776 -0.019650 0.994613
vn 0.933240 -0.303771 -0.191797
vn 0.933240 -0.303771 -0.191797
vn 0.933240 -0.303771 -0.191797
vn 0.657686 -0.412386 0.630386
vn 0.657686 -0.412386 0.630386
vn 0.657686 -0.412386 0.630386
vn 0.915898 -0.146553 -0.373701
vn 0.915898 -0.146553 -0.373701
vn 0.915898 -0.146553 -0.373701
vn 0.231890 -0.464352 -0.854754
vn 0.231890 -0.464352 -0.854754
vn 0.231890 -0.464352 -0.854754
vn -0.681572 0.004730 -0.731735
vn -0.681572 0.004730 -0.731735
vn -0.681573 0.004730 -0.731735
vn 0.952423 -0.294297 0.079249
vn 0.952423 -0.294297 0.079249
vn 0.952423 -0.294297 0.079249
vn -0.160924 0.207072 0.965000
vn -0.160924 0.207072 0.965000
vn -0.160924 0.207072 0.965000
vn 0.364760 -0.718336 0.592406
vn 0.364760 -0.718336 0.592406
vn 0.364760 -0.718336 0.592406
vn 0.925952 -0.182834 -0.330432
vn 0.925952 -0.182834 -0.330432
vn 0.925951 -0.182834 -0.330432
vn -0.994296 0.044453 -0.096945
vn -0.994296 0.044453 -0.096945
vn -0.994297 0.044453 -0.096945
vn 0.366878 0.371129 -0.853032
vn 0.366878 0.371129 -0.853032
vn 0.366878 0.371129 -0.853032
vn 0.383907 -0.609716 0.693442
vn 0.383907 -0.609716 0.693442
vn 0.383907 -0.609716 0.693442
vn -0.308611 -0.537910 -0.784482
vn -0.308611 -0.537910 -0.784482
vn -0.308611 -0.537910 -0.784482
vn -0.960318 0.235881 0.148826
vn -0.960318 0.235881 0.148826
vn -0.960318 0.235881 0.148826
vn 0.936375 -0.277288 -0.215205
vn 0.936375 -0.277288 -0.215205
vn 0.936375 -0.277288 -0.215205
vn 0.927226 -0.264463 -0.265163
vn 0.927226 -0.264463 -0.265163
vn 0.927226 -0.264463 -0.265163
vn -0.872042 -0.427178 0.238874
vn -0.872042 -0.427178 0.238874
vn -0.872042 -0.427178 0.238874
vn 0.834068 -0.069729 0.547237
vn 0.834068 -0.069729 0.547237
vn 0.834068 -0.069729 0.547237
vn -0.626967 0.151369 0.764198
vn -0.626967 0.151369 0.764198
vn -0.626967 0.151369 0.764198
vn 0.481520 0.093995 0.871380
vn 0.481520 0.093995 0.871380
vn 0.481520 0.093995 0.871380
vn 0.938491 -0.342120 -0.046774
vn 0.938491 -0.342120 -0.046774
vn 0.938491 -0.342120 -0.046774
vn 0.087595 -0.077676 0.993123
vn 0.087595 -0.077676 0.993123
vn 0.087595 -0.077676 0.993123
vn -0.138364 0.317500 -0.938109
vn -0.138364 0.317500 -0.938109
vn -0.138364 0.317500 -0.938109
vn 0.949847 -0.202605 0.238205
vn 0.949847 -0.202605 0.238205
vn 0.949847 -0.202605 0.238205
vn 0.916833 -0.310761 -0.250688
vn 0.916833 -0.310761 -0.250688
vn 0.916833 -0.310761 -0.250688
vn -0.356868 0.167704 0.918978
vn -0.356868 0.167704 0.918978
vn -0.356868 0.167704 0.918978
vn 0.935527 -0.322372 -0.144447
vn 0.935527 -0.322372 -0.144447
vn 0.935527 -0.322372 -0.144447
vn 0.252358 0.071583 0.964983
vn 0.252358 0.071583 0.964983
vn 0.252358 0.071583 0.964983
vn -0.752571 -0.135402 0.644440
vn -0.752571 -0.135402 0.644440
vn -0.752571 -0.135402 0.644440
vn 0.308054 -0.432229 0.847514
vn 0.308054 -0.432229 0.847514
vn 0.308054 -0.432229 0.847514
vn 0.845662 -0.256947 0.467797
vn 0.845662 -0.256947 0.467797
vn 0.845662 -0.256947 0.467797
vn 0.456041 -0.346927 0.819553
vn 0.456041 -0.346927 0.819553
vn 0.456041 -0.346927 0.819553
vn 0.606976 -0.531142 -0.591158
vn 0.606976 -0.531142 -0.591158
vn 0.606976 -0.531142 -0.591158
vn 0.818218 -0.301994 -0.489202
vn 0.818218 -0.301994 -0.489202
vn 0.818218 -0.301994 -0.489202
vn -0.997522 0.025513 0.065573
vn -0.997522 0.025513 0.065573
vn -0.997522 0.025513 0.065573
vn -0.077514 0.908348 0.410969
vn -0.077514 0.908348 0.410969
vn -0.077514 0.908348 0.410969
vn 0.978347 -0.037100 0.203619
vn 0.978347 -0.037100 0.203619
vn 0.978347 -0.037100 0.203619
vn 0.866959 -0.413539 -0.278152
vn 0.866959 -0.413539 -0.278152
vn 0.866958 -0.413539 -0.278152
vn 0.378697 -0.248818 0.891447
vn 0.378697 -0.248818 0.891447
vn 0.378697 -0.248818 0.891447
s off
g muslo2:Humano_01Business_01_30K_001
usemtl muslo2:Humano_01Business_01
f 40/1/1 29/2/2 14/3/3
f 49/4/4 28/5/5 19/6/6
f 12/7/7 13/8/8 35/9/9
f 16/10/10 4/11/11 17/12/12
f 28/5/13 20/13/14 19/6/15
f 9/14/16 33/15/17 37/16/18
f 22/17/19 4/11/20 50/18/21
f 43/19/22 27/20/23 49/21/24
f 11/22/25 14/3/26 25/23/27
f 44/24/28 29/2/29 5/25/30
f 40/1/31 14/3/32 1/26/33
f 27/27/34 1/26/35 28/5/36
f 35/9/37 13/8/38 18/28/39
f 15/29/40 1/26/41 2/30/42
f 33/15/43 10/31/44 37/16/45
f 21/32/46 20/33/47 36/34/48
f 1/26/49 14/3/50 28/5/51
f 44/24/52 42/35/53 29/2/54
f 35/9/55 18/28/56 26/36/57
f 48/37/58 12/7/59 35/9/60
f 37/16/61 26/36/62 24/38/63
f 26/36/64 43/19/65 19/39/66
f 33/15/67 9/14/68 34/40/69
f 40/1/70 9/14/71 37/16/72
f 24/38/73 8/41/74 23/42/75
f 7/43/76 28/5/77 6/44/78
f 46/45/79 20/33/80 21/32/81
f 2/30/82 12/46/83 32/47/84
f 11/22/85 28/5/86 14/3/87
f 29/2/88 42/35/89 41/48/90
f 28/5/91 7/43/92 20/13/93
f 50/18/94 24/38/95 23/42/96
f 24/38/97 39/49/98 30/50/99
f 12/46/100 48/51/101 32/47/102
f 40/1/103 16/10/104 29/2/105
f 1/26/106 18/52/107 2/30/108
f 24/38/109 46/45/110 39/49/111
f 29/2/112 41/48/113 14/3/114
f 37/16/115 10/31/116 3/53/117
f 13/54/118 12/46/119 18/52/120
f 12/46/121 2/30/122 18/52/123
f 29/2/124 16/10/125 5/25/126
f 18/28/127 43/19/128 26/36/129
f 24/38/130 16/10/131 37/16/132
f 26/36/133 46/45/134 24/38/135
f 49/4/136 27/27/137 28/5/138
f 26/36/139 3/53/140 35/9/141
f 40/1/142 1/26/143 9/14/144
f 46/45/145 19/39/146 20/33/147
f 28/5/148 11/22/149 6/44/150
f 24/38/151 50/18/152 4/11/153
f 43/19/154 49/21/155 19/39/156
f 45/55/157 47/56/158 35/9/159
f 4/11/160 16/10/161 24/38/162
f 24/38/163 30/50/164 8/41/165
f 19/39/166 46/45/167 26/36/168
f 47/56/169 31/57/170 35/9/171
f 7/43/172 36/58/173 20/13/174
f 43/59/175 18/52/176 1/26/177
f 16/10/178 40/1/179 37/16/180
f 45/55/181 35/9/182 3/53/183
f 38/60/184 48/37/185 35/9/186
f 43/59/187 1/26/188 27/27/189
f 37/16/190 3/53/191 26/36/192
