# This file uses centimeters as units for non-parametric coordinates.

mtllib pierna1.mtl
g default
v -0.029043 -0.139179 -0.040125
v -0.022874 -0.003791 -0.041505
v -0.019434 -0.134016 -0.070576
v 0.004862 -0.225473 -0.050565
v 0.036846 0.005416 -0.044656
v 0.025461 0.019258 0.007733
v 0.029845 -0.003301 -0.056565
v -0.004732 0.016119 0.007484
v -0.010236 -0.193335 -0.073668
v -0.024032 -0.012302 -0.027939
v -0.016834 0.017155 -0.019313
v -0.005928 -0.177726 -0.001927
v -0.032935 -0.188319 -0.031933
v -0.032163 -0.225131 -0.041834
v -0.005175 -0.006048 -0.064618
v -0.017589 -0.000663 -0.052369
v -0.026896 -0.038761 -0.029772
v -0.039098 -0.157260 -0.045268
v -0.030765 -0.054391 -0.042703
v -0.021937 -0.220809 -0.008674
v 0.022232 0.000319 -0.062461
v 0.008296 -0.006556 -0.067472
v 0.025531 -0.226894 0.073473
v 0.039639 0.004125 -0.022964
v 0.002649 0.014628 0.014680
v -0.029224 -0.184688 -0.011827
v -0.024737 -0.191872 -0.073950
v -0.020091 0.008977 -0.026992
v 0.009740 -0.221523 -0.021848
v -0.020573 0.011708 -0.033328
v 0.036502 -0.226628 0.017996
v 0.004493 -0.177381 -0.014203
v -0.015766 -0.225857 0.030688
v -0.021740 -0.224499 -0.076451
v 0.005315 -0.190606 -0.038299
v -0.013580 -0.138608 -0.004332
v -0.031101 -0.123792 -0.045134
v -0.030565 -0.087767 -0.039365
v 0.013659 -0.226646 0.076797
v -0.031043 -0.075678 -0.038120
v -0.009846 0.017849 -0.004263
v -0.011384 0.021293 0.002664
v 0.003484 0.028272 0.018385
v 0.008271 0.021720 0.013593
v 0.035100 0.017670 -0.003855
v 0.038301 0.013818 -0.020614
v 0.038313 0.006561 -0.040780
v 0.031736 0.007529 -0.052612
v 0.027500 0.009960 -0.056759
v 0.014414 0.005437 -0.064741
v 0.004646 0.008716 -0.063684
v -0.003215 0.004007 -0.063049
v -0.010648 0.001179 -0.060397
v -0.017813 0.009333 -0.050611
v -0.020813 0.007483 -0.038706
v -0.013326 0.013783 -0.011739
vt 0.538400 0.049900
vt 0.550600 0.031400
vt 0.565100 0.090300
vt 0.736100 0.015100
vt 0.667400 0.080500
vt 0.701700 0.026000
vt 0.558200 0.180500
vt 0.548000 0.159000
vt 0.574700 0.135500
vt 0.629900 0.084000
vt 0.621200 0.065800
vt 0.825800 0.187100
vt 0.821100 0.183300
vt 0.818700 0.172800
vt 0.647400 0.211700
vt 0.652900 0.220500
vt 0.646000 0.216700
vt 0.761200 0.197900
vt 0.752800 0.199100
vt 0.761300 0.187600
vt 0.735300 0.213400
vt 0.694100 0.231800
vt 0.734200 0.204400
vt 0.669000 0.039100
vt 0.681800 0.040500
vt 0.808200 0.176800
vt 0.805300 0.182100
vt 0.799100 0.179900
vt 0.816700 0.182300
vt 0.830900 0.164400
vt 0.813600 0.126200
vt 0.827500 0.139300
vt 0.561100 0.106100
vt 0.467800 0.128800
vt 0.630600 0.035400
vt 0.665900 0.222400
vt 0.766900 0.198100
vt 0.770100 0.187600
vt 0.649600 0.036200
vt 0.533800 0.200200
vt 0.530600 0.236300
vt 0.518600 0.153400
vt 0.646900 0.171100
vt 0.648800 0.193500
vt 0.787900 0.032700
vt 0.769500 0.062400
vt 0.780500 0.177600
vt 0.688000 0.226200
vt 0.678700 0.226300
vt 0.792100 0.174900
vt 0.792800 0.184000
vt 0.464400 0.110400
vt 0.520500 0.148600
vt 0.831600 0.184700
vt 0.751100 0.010600
vt 0.790300 0.002000
vt 0.565900 0.002200
vt 0.589900 0.021300
vt 0.587900 0.195200
vt 0.583100 0.207300
vt 0.635500 0.129200
vt 0.637300 0.139800
vt 0.514000 0.295000
vt 0.497100 0.266400
vt 0.531200 0.267500
vt 0.810300 0.095500
vt 0.686600 0.233700
vt 0.799100 0.179900
vt 0.792800 0.184000
vt 0.796800 0.050000
vt 0.485500 0.199300
vt 0.585800 0.158200
vt 0.749800 0.201300
vt 0.766900 0.198100
vt 0.761200 0.197900
vt 0.671100 0.230100
vt 0.689600 0.238800
vt 0.499200 0.240200
vt 0.507500 0.153700
vt 0.591500 0.005100
vt 0.572600 0.060900
vt 0.796600 0.064400
vt 0.627300 0.098100
vt 0.813800 0.106300
vt 0.694100 0.231800
vt 0.505400 0.070200
vt 0.722300 0.221800
vt 0.709800 0.227000
vt 0.787100 0.190000
vt 0.661000 0.219200
vt 0.810200 0.185700
vt 0.821100 0.183300
vt 0.778200 0.189600
vt 0.778200 0.189600
vt 0.667400 0.224300
vn 0.971532 0.147580 -0.185328
vn 0.971532 0.147580 -0.185328
vn 0.971532 0.147580 -0.185328
vn 0.764274 0.523623 -0.376437
vn 0.764274 0.523623 -0.376437
vn 0.764274 0.523623 -0.376437
vn -0.936840 -0.161936 0.310012
vn -0.936840 -0.161936 0.310012
vn -0.936840 -0.161936 0.310012
vn -0.854332 0.371806 0.363150
vn -0.854332 0.371806 0.363150
vn -0.854332 0.371806 0.363150
vn -0.970994 0.207153 -0.119410
vn -0.970994 0.207153 -0.119410
vn -0.970994 0.207153 -0.119410
vn -0.959926 0.223342 0.169292
vn -0.959926 0.223342 0.169292
vn -0.959926 0.223342 0.169292
vn 0.846030 0.046143 -0.531135
vn 0.846030 0.046143 -0.531135
vn 0.846030 0.046143 -0.531135
vn 0.743409 -0.058907 0.666238
vn 0.743409 -0.058907 0.666238
vn 0.743409 -0.058907 0.666238
vn 0.746574 0.185324 0.638969
vn 0.746574 0.185324 0.638969
vn 0.746574 0.185324 0.638969
vn -0.763729 0.095175 -0.638482
vn -0.763729 0.095175 -0.638482
vn -0.763729 0.095175 -0.638482
vn -0.896504 0.254009 -0.362987
vn -0.896504 0.254009 -0.362987
vn -0.896504 0.254009 -0.362987
vn -0.979222 0.093528 0.179937
vn -0.979222 0.093528 0.179937
vn -0.979222 0.093528 0.179937
vn -0.444938 0.706827 0.549933
vn -0.444938 0.706827 0.549933
vn -0.444938 0.706827 0.549933
vn 0.437078 0.808652 0.393758
vn 0.437078 0.808652 0.393758
vn 0.437078 0.808652 0.393758
vn -0.857573 0.049641 0.511961
vn -0.857573 0.049641 0.511961
vn -0.857573 0.049641 0.511961
vn -0.703647 0.016480 0.710359
vn -0.703647 0.016480 0.710359
vn -0.703647 0.016480 0.710359
vn 0.860928 0.457787 -0.221885
vn 0.860928 0.457787 -0.221885
vn 0.860928 0.457787 -0.221885
vn 0.638940 0.101832 -0.762487
vn 0.638940 0.101832 -0.762487
vn 0.638940 0.101832 -0.762487
vn -0.386265 -0.018861 0.922195
vn -0.386265 -0.018861 0.922195
vn -0.386265 -0.018861 0.922195
vn 0.222112 -0.962100 -0.158207
vn 0.222112 -0.962100 -0.158207
vn 0.222112 -0.962100 -0.158207
vn 0.704790 -0.172976 0.688004
vn 0.704790 -0.172976 0.688004
vn 0.704790 -0.172976 0.688004
vn -0.890391 0.065169 0.450506
vn -0.890391 0.065169 0.450507
vn -0.890391 0.065169 0.450507
vn -0.749158 -0.081902 -0.657309
vn -0.749158 -0.081902 -0.657309
vn -0.749158 -0.081902 -0.657309
vn -0.074266 0.040423 -0.996419
vn -0.074266 0.040423 -0.996419
vn -0.074266 0.040423 -0.996419
vn -0.100464 -0.989697 -0.102018
vn -0.100464 -0.989697 -0.102018
vn -0.100464 -0.989697 -0.102018
vn -0.196739 0.188488 -0.962167
vn -0.196739 0.188488 -0.962168
vn -0.196739 0.188488 -0.962167
vn 0.146933 0.875976 0.459431
vn 0.146933 0.875976 0.459431
vn 0.146933 0.875976 0.459431
vn -0.762149 0.114590 -0.637180
vn -0.762149 0.114590 -0.637180
vn -0.762149 0.114590 -0.637180
vn -0.808721 0.273432 0.520774
vn -0.808721 0.273432 0.520774
vn -0.808721 0.273432 0.520774
vn -0.973481 0.173667 0.148912
vn -0.973481 0.173667 0.148912
vn -0.973481 0.173667 0.148912
vn 0.631503 -0.579556 -0.515091
vn 0.631503 -0.579556 -0.515091
vn 0.631503 -0.579556 -0.515091
vn -0.951834 -0.259196 -0.163796
vn -0.951834 -0.259196 -0.163796
vn -0.951834 -0.259196 -0.163796
vn 0.453397 -0.015423 -0.891175
vn 0.453397 -0.015423 -0.891176
vn 0.453397 -0.015423 -0.891176
vn 0.681362 -0.188358 -0.707295
vn 0.681362 -0.188358 -0.707295
vn 0.681362 -0.188358 -0.707295
vn -0.987898 0.154409 -0.014679
vn -0.987898 0.154409 -0.014679
vn -0.987898 0.154409 -0.014679
vn -0.988527 0.148547 0.027333
vn -0.988527 0.148547 0.027333
vn -0.988527 0.148547 0.027333
vn -0.955143 -0.065599 -0.288787
vn -0.955143 -0.065599 -0.288787
vn -0.955143 -0.065599 -0.288787
vn 0.950396 -0.220222 0.219658
vn 0.950396 -0.220222 0.219658
vn 0.950396 -0.220222 0.219658
vn -0.934806 -0.072763 0.347625
vn -0.934806 -0.072763 0.347625
vn -0.934806 -0.072763 0.347625
vn -0.014572 -0.999638 -0.022638
vn -0.014572 -0.999638 -0.022638
vn -0.014572 -0.999638 -0.022638
vn -0.956490 -0.034705 -0.289694
vn -0.956490 -0.034705 -0.289694
vn -0.956490 -0.034705 -0.289694
vn -0.705561 -0.145172 0.693620
vn -0.705561 -0.145172 0.693620
vn -0.705561 -0.145172 0.693620
vn -0.400217 0.216947 -0.890371
vn -0.400217 0.216947 -0.890371
vn -0.400217 0.216947 -0.890371
vn -0.837943 0.516299 -0.176879
vn -0.837943 0.516299 -0.176879
vn -0.837943 0.516299 -0.176879
vn -0.780104 0.136114 -0.610664
vn -0.780104 0.136114 -0.610664
vn -0.780104 0.136114 -0.610664
vn -0.705742 -0.511203 -0.490510
vn -0.705742 -0.511203 -0.490510
vn -0.705742 -0.511203 -0.490510
vn -0.945846 0.301575 0.120114
vn -0.945846 0.301575 0.120114
vn -0.945846 0.301575 0.120114
vn 0.464655 -0.348585 -0.813993
vn 0.464655 -0.348585 -0.813993
vn 0.464655 -0.348585 -0.813993
vn -0.084115 -0.995910 -0.032982
vn -0.084115 -0.995910 -0.032982
vn -0.084115 -0.995910 -0.032982
vn -0.980496 0.031611 -0.193979
vn -0.980496 0.031611 -0.193979
vn -0.980496 0.031611 -0.193979
vn 0.809997 -0.569915 -0.138211
vn 0.809997 -0.569915 -0.138211
vn 0.809997 -0.569915 -0.138211
vn -0.978371 -0.072614 0.193693
vn -0.978371 -0.072614 0.193693
vn -0.978371 -0.072614 0.193693
vn -0.974187 -0.185274 0.128968
vn -0.974187 -0.185274 0.128968
vn -0.974187 -0.185274 0.128968
vn 0.728617 0.118977 -0.674508
vn 0.728617 0.118977 -0.674508
vn 0.728617 0.118977 -0.674508
vn -0.669219 -0.191561 0.717949
vn -0.669219 -0.191561 0.717949
vn -0.669219 -0.191561 0.717949
vn 0.027850 -0.992293 0.120745
vn 0.027850 -0.992293 0.120745
vn 0.027850 -0.992293 0.120745
vn -0.023528 -0.999679 -0.009446
vn -0.023528 -0.999678 -0.009446
vn -0.023528 -0.999679 -0.009446
vn -0.058937 -0.994391 -0.087820
vn -0.058937 -0.994391 -0.087820
vn -0.058937 -0.994391 -0.087820
vn 0.027339 0.078898 -0.996508
vn 0.027339 0.078898 -0.996508
vn 0.027339 0.078898 -0.996508
vn 0.891504 -0.380826 -0.245341
vn 0.891504 -0.380826 -0.245341
vn 0.891504 -0.380826 -0.245341
vn 0.998219 -0.030918 0.051022
vn 0.998219 -0.030918 0.051022
vn 0.998219 -0.030918 0.051022
vn -0.892493 0.084241 -0.443125
vn -0.892493 0.084241 -0.443125
vn -0.892493 0.084241 -0.443125
vn -0.918016 0.006288 0.396494
vn -0.918016 0.006288 0.396494
vn -0.918016 0.006288 0.396494
vn -0.916389 -0.229362 -0.328061
vn -0.916389 -0.229362 -0.328061
vn -0.916389 -0.229361 -0.328061
vn -0.727793 -0.161937 -0.666404
vn -0.727793 -0.161937 -0.666404
vn -0.727793 -0.161937 -0.666404
vn -0.986374 -0.022214 -0.163010
vn -0.986374 -0.022214 -0.163010
vn -0.986374 -0.022214 -0.163010
vn 0.485368 -0.256661 0.835789
vn 0.485368 -0.256661 0.835789
vn 0.485368 -0.256661 0.835789
vn 0.778101 0.608256 0.156792
vn 0.778101 0.608256 0.156792
vn 0.778101 0.608256 0.156792
vn -0.133457 -0.990745 0.024756
vn -0.133457 -0.990745 0.024756
vn -0.133457 -0.990745 0.024756
vn -0.204316 0.068232 -0.976524
vn -0.204316 0.068232 -0.976524
vn -0.204316 0.068232 -0.976524
vn -0.193035 0.192505 -0.962122
vn -0.193035 0.192505 -0.962122
vn -0.193035 0.192505 -0.962122
vn -0.001644 -0.974655 0.223708
vn -0.001644 -0.974655 0.223708
vn -0.001644 -0.974655 0.223708
vn -0.925526 0.169579 0.338593
vn -0.925526 0.169579 0.338593
vn -0.925526 0.169579 0.338593
vn -0.970235 0.020692 -0.241278
vn -0.970235 0.020692 -0.241278
vn -0.970235 0.020692 -0.241278
vn 0.080745 0.655630 -0.750752
vn 0.080745 0.655630 -0.750752
vn 0.080745 0.655630 -0.750752
vn 0.903679 0.131609 -0.407484
vn 0.903679 0.131609 -0.407484
vn 0.903679 0.131609 -0.407484
vn 0.022103 -0.990930 0.132547
vn 0.022103 -0.990930 0.132547
vn 0.022103 -0.990930 0.132547
vn -0.920277 0.154442 0.359498
vn -0.920277 0.154442 0.359498
vn -0.920277 0.154442 0.359498
vn -0.911102 -0.023541 0.411508
vn -0.911102 -0.023541 0.411508
vn -0.911102 -0.023541 0.411508
vn -0.763867 -0.059508 0.642624
vn -0.763867 -0.059508 0.642624
vn -0.763867 -0.059508 0.642624
vn 0.921603 -0.361928 -0.140203
vn 0.921603 -0.361928 -0.140203
vn 0.921603 -0.361928 -0.140203
vn -0.026356 0.234719 -0.971706
vn -0.026356 0.234718 -0.971706
vn -0.026356 0.234719 -0.971706
vn 0.313206 0.056105 -0.948027
vn 0.313206 0.056105 -0.948027
vn 0.313206 0.056105 -0.948027
vn -0.923928 -0.047052 0.379663
vn -0.923928 -0.047052 0.379663
vn -0.923928 -0.047052 0.379663
vn -0.973882 0.059873 0.219020
vn -0.973882 0.059873 0.219020
vn -0.973882 0.059873 0.219020
vn -0.872012 0.020596 0.489051
vn -0.872012 0.020596 0.489051
vn -0.872012 0.020596 0.489051
vn -0.686513 -0.700275 0.195739
vn -0.686513 -0.700275 0.195739
vn -0.686513 -0.700275 0.195739
vn 0.826094 0.190074 -0.530510
vn 0.826094 0.190074 -0.530509
vn 0.826094 0.190074 -0.530510
vn 0.430107 0.273772 -0.860266
vn 0.430107 0.273772 -0.860266
vn 0.430107 0.273772 -0.860266
s off
g pierna1:Humano_01Business_01_30K_001
usemtl pierna1:Humano_01Business_01
f 29/1/1 4/2/2 32/3/3
f 9/4/4 36/5/5 35/6/6
f 14/7/7 20/8/8 26/9/9
f 1/10/10 18/11/11 36/5/12
f 30/12/13 55/13/14 2/14/15
f 28/15/16 11/16/17 30/17/18
f 48/18/19 5/19/20 7/20/21
f 46/21/22 44/22/23 24/23/24
f 36/5/25 12/24/26 32/25/27
f 16/26/28 54/27/29 53/28/30
f 16/26/31 2/14/32 55/29/33
f 10/30/34 19/31/35 17/32/36
f 12/33/37 26/9/38 39/34/39
f 32/3/40 12/33/41 39/34/42
f 36/5/43 18/11/44 13/35/45
f 41/36/46 36/5/47 44/22/48
f 36/5/49 32/25/50 35/6/51
f 49/37/52 7/20/53 21/38/54
f 36/5/55 26/39/56 12/24/57
f 33/40/58 20/41/59 39/42/60
f 44/22/61 36/5/62 24/23/63
f 17/43/64 41/36/65 10/44/66
f 18/45/67 3/46/68 9/4/69
f 3/46/70 22/47/71 9/4/72
f 25/48/73 8/49/74 41/36/75
f 22/47/76 15/50/77 52/51/78
f 23/52/79 32/3/80 39/34/81
f 19/31/82 15/50/83 3/46/84
f 39/34/85 26/9/86 33/53/87
f 28/54/88 30/12/89 10/30/90
f 41/36/91 44/22/92 25/48/93
f 18/45/94 27/55/95 13/56/96
f 9/4/97 22/47/98 7/20/99
f 4/2/100 34/57/101 9/58/102
f 30/12/103 2/14/104 19/31/105
f 30/12/106 19/31/107 10/30/108
f 27/59/109 34/60/110 14/7/111
f 36/5/112 9/4/113 7/20/114
f 38/61/115 36/5/116 40/62/117
f 34/63/118 4/64/119 14/65/120
f 19/31/121 3/46/122 38/66/123
f 8/49/124 25/48/125 43/67/126
f 15/50/127 53/68/128 52/69/129
f 1/70/130 3/46/131 18/45/132
f 19/31/133 2/14/134 15/50/135
f 16/26/136 15/50/137 2/14/138
f 26/39/139 36/5/140 13/35/141
f 21/38/142 7/20/143 22/47/144
f 20/41/145 31/71/146 39/42/147
f 13/72/148 27/59/149 14/7/150
f 5/19/151 47/73/152 24/23/153
f 26/9/154 13/72/155 14/7/156
f 33/53/157 26/9/158 20/8/159
f 49/74/160 48/75/161 7/20/162
f 42/76/163 8/49/164 43/77/165
f 14/65/166 29/78/167 20/41/168
f 39/42/169 31/71/170 23/79/171
f 20/41/172 29/78/173 31/71/174
f 9/58/175 34/57/176 27/80/177
f 36/5/178 7/20/179 5/19/180
f 4/2/181 35/81/182 32/3/183
f 3/46/184 37/82/185 38/66/186
f 36/5/187 37/83/188 1/10/189
f 37/82/190 3/46/191 1/70/192
f 16/26/193 53/28/194 15/50/195
f 19/31/196 38/66/197 40/84/198
f 43/77/199 25/48/200 44/85/201
f 23/52/202 31/86/203 32/3/204
f 44/22/205 45/87/206 6/88/207
f 15/50/208 22/47/209 3/46/210
f 22/47/211 52/69/212 51/89/213
f 44/22/214 46/21/215 45/87/216
f 10/44/217 41/36/218 56/90/219
f 54/91/220 16/26/221 55/92/222
f 18/45/223 9/4/224 27/55/225
f 4/2/226 9/58/227 35/81/228
f 14/65/229 4/64/230 29/78/231
f 10/44/232 56/90/233 28/15/234
f 28/15/235 56/90/236 11/16/237
f 17/43/238 40/62/239 41/36/240
f 24/23/241 36/5/242 5/19/243
f 22/47/244 51/89/245 50/93/246
f 21/38/247 22/47/248 50/94/249
f 37/83/250 36/5/251 38/61/252
f 19/31/253 40/84/254 17/32/255
f 41/36/256 40/62/257 36/5/258
f 42/76/259 41/95/260 8/49/261
f 31/86/262 29/1/263 32/3/264
f 49/74/265 21/38/266 50/93/267
