# This file uses centimeters as units for non-parametric coordinates.

mtllib pierna1.mtl
g default
v 0.044462 0.087002 3.687484
v 0.050631 0.222390 3.686104
v 0.054071 0.092165 3.657033
v 0.078367 0.000708 3.677044
v 0.110351 0.231597 3.682953
v 0.098966 0.245439 3.735342
v 0.103350 0.222880 3.671044
v 0.068773 0.242300 3.735093
v 0.063269 0.032846 3.653941
v 0.049473 0.213879 3.699670
v 0.056671 0.243336 3.708296
v 0.067577 0.048455 3.725682
v 0.040570 0.037862 3.695676
v 0.041342 0.001050 3.685775
v 0.068330 0.220133 3.662991
v 0.055916 0.225518 3.675240
v 0.046609 0.187420 3.697837
v 0.034407 0.068921 3.682341
v 0.042740 0.171790 3.684906
v 0.051568 0.005372 3.718935
v 0.095737 0.226500 3.665148
v 0.081801 0.219625 3.660137
v 0.099036 -0.000713 3.801082
v 0.113144 0.230306 3.704645
v 0.076154 0.240809 3.742289
v 0.044281 0.041493 3.715782
v 0.048768 0.034309 3.653659
v 0.053414 0.235158 3.700617
v 0.083245 0.004658 3.705761
v 0.052932 0.237889 3.694281
v 0.110007 -0.000447 3.745605
v 0.077998 0.048800 3.713406
v 0.057739 0.000324 3.758297
v 0.051765 0.001682 3.651158
v 0.078820 0.035575 3.689310
v 0.059925 0.087573 3.723277
v 0.042404 0.102389 3.682475
v 0.042940 0.138414 3.688244
v 0.087164 -0.000465 3.804406
v 0.042462 0.150503 3.689489
v 0.063659 0.244030 3.723346
v 0.062121 0.247474 3.730273
v 0.076989 0.254453 3.745994
v 0.081776 0.247901 3.741202
v 0.108605 0.243851 3.723754
v 0.111806 0.239999 3.706995
v 0.111818 0.232742 3.686829
v 0.105241 0.233710 3.674997
v 0.101005 0.236141 3.670850
v 0.087919 0.231618 3.662868
v 0.078151 0.234897 3.663925
v 0.070290 0.230188 3.664560
v 0.062857 0.227360 3.667212
v 0.055692 0.235514 3.676998
v 0.052692 0.233664 3.688903
v 0.060179 0.239964 3.715870
vt 0.629900 0.084000
vt 0.818700 0.172800
vt 0.769500 0.062400
vt 0.497100 0.266400
vt 0.665900 0.222400
vt 0.821100 0.183300
vt 0.646000 0.216700
vt 0.761200 0.197900
vt 0.752800 0.199100
vt 0.709800 0.227000
vt 0.722300 0.221800
vt 0.694100 0.231800
vt 0.761300 0.187600
vt 0.678700 0.226300
vt 0.589900 0.021300
vt 0.830900 0.164400
vt 0.652900 0.220500
vt 0.669000 0.039100
vt 0.790300 0.002000
vt 0.558200 0.180500
vt 0.805300 0.182100
vt 0.792100 0.174900
vt 0.585800 0.158200
vt 0.808200 0.176800
vt 0.816700 0.182300
vt 0.827500 0.139300
vt 0.787900 0.032700
vt 0.813600 0.126200
vt 0.530600 0.236300
vt 0.538400 0.049900
vt 0.689600 0.238800
vt 0.810200 0.185700
vt 0.770100 0.187600
vt 0.766900 0.198100
vt 0.766900 0.198100
vt 0.561100 0.106100
vt 0.799100 0.179900
vt 0.780500 0.177600
vt 0.464400 0.110400
vt 0.621200 0.065800
vt 0.734200 0.204400
vt 0.735300 0.213400
vt 0.688000 0.226200
vt 0.649600 0.036200
vt 0.630600 0.035400
vt 0.587900 0.195200
vt 0.751100 0.010600
vt 0.749800 0.201300
vt 0.831600 0.184700
vt 0.550600 0.031400
vt 0.499200 0.240200
vt 0.485500 0.199300
vt 0.825800 0.187100
vt 0.505400 0.070200
vt 0.792800 0.184000
vt 0.792800 0.184000
vt 0.681800 0.040500
vt 0.520500 0.148600
vt 0.514000 0.295000
vt 0.701700 0.026000
vt 0.507500 0.153700
vt 0.736100 0.015100
vt 0.648800 0.193500
vt 0.661000 0.219200
vt 0.667400 0.080500
vt 0.796600 0.064400
vt 0.635500 0.129200
vt 0.565900 0.002200
vt 0.799100 0.179900
vt 0.467800 0.128800
vt 0.637300 0.139800
vt 0.778200 0.189600
vt 0.646900 0.171100
vt 0.686600 0.233700
vt 0.627300 0.098100
vt 0.813800 0.106300
vt 0.821100 0.183300
vt 0.518600 0.153400
vt 0.796800 0.050000
vt 0.565100 0.090300
vt 0.761200 0.197900
vt 0.591500 0.005100
vt 0.572600 0.060900
vt 0.548000 0.159000
vt 0.667400 0.224300
vt 0.671100 0.230100
vt 0.810300 0.095500
vt 0.647400 0.211700
vt 0.694100 0.231800
vt 0.583100 0.207300
vt 0.787100 0.190000
vt 0.531200 0.267500
vt 0.778200 0.189600
vt 0.533800 0.200200
vt 0.574700 0.135500
vn 0.846370 -0.366675 -0.386272
vn 0.913491 -0.163694 -0.372477
vn 0.915682 -0.095475 -0.390398
vn 0.908766 0.188943 -0.372081
vn 0.912981 0.232121 -0.335537
vn 0.890304 0.268588 -0.367721
vn -0.969880 -0.243325 0.011202
vn -0.929268 -0.367060 0.041570
vn -0.945547 -0.318950 0.064901
vn -0.805407 0.587086 0.081545
vn -0.630581 0.775815 0.021892
vn -0.706673 0.704191 0.068761
vn -0.977959 0.203805 -0.045387
vn -0.958076 0.206945 -0.198153
vn -0.940925 0.209231 -0.266236
vn -0.964680 0.163861 0.206255
vn -0.944539 -0.039833 0.325975
vn -0.977504 0.046055 0.205826
vn 0.778174 0.097818 -0.620384
vn 0.841673 0.084016 -0.533412
vn 0.753423 0.081076 -0.652518
vn 0.902949 0.174357 0.392789
vn 0.855204 0.096426 0.509242
vn 0.838273 -0.036394 0.544035
vn 0.545600 0.629649 0.553049
vn 0.514502 0.706215 0.486363
vn 0.562197 0.678539 0.472779
vn -0.870488 0.159557 -0.465609
vn -0.753910 0.139502 -0.641996
vn -0.715312 0.171420 -0.677454
vn -0.940430 0.113153 -0.320605
vn -0.901554 0.219160 -0.373054
vn -0.948490 0.162021 -0.272242
vn -0.959096 0.090283 0.268297
vn -0.964754 0.077869 0.251369
vn -0.932339 0.072601 0.354221
vn 0.090098 0.739990 0.666556
vn -0.269396 0.792975 0.546459
vn 0.003700 0.881068 0.472976
vn 0.262509 0.844087 0.467553
vn 0.090098 0.739990 0.666556
vn 0.003700 0.881068 0.472976
vn -0.874478 0.389458 0.289157
vn -0.928387 0.092400 0.359943
vn -0.940108 0.005019 0.340840
vn 0.404176 -0.174014 0.897976
vn 0.565224 -0.185308 0.803855
vn 0.549002 -0.166062 0.819158
vn 0.819100 0.333393 0.466823
vn 0.992913 0.015770 0.117791
vn 0.989650 0.143294 0.007774
vn 0.622966 0.146875 -0.768337
vn 0.665628 0.082416 -0.741719
vn 0.510024 0.170882 -0.843016
vn -0.604901 0.065013 0.793642
vn -0.760506 0.121812 0.637803
vn -0.584194 0.355457 0.729636
vn -0.127406 -0.991747 -0.014318
vn -0.559478 -0.828776 0.010697
vn -0.104404 -0.994360 -0.018664
vn 0.780530 -0.168023 0.602114
vn 0.746305 -0.196605 0.635906
vn 0.850368 -0.189493 0.490884
vn -0.878881 0.021878 0.476538
vn -0.798975 0.013726 0.601208
vn -0.860720 0.060788 0.505436
vn -0.680617 -0.114130 -0.723695
vn -0.588008 -0.120015 -0.799902
vn -0.709684 0.019257 -0.704257
vn -0.232008 0.112994 -0.966129
vn -0.181995 0.094004 -0.978796
vn -0.115697 0.124323 -0.985474
vn -0.670511 -0.394212 0.628500
vn -0.722796 -0.627680 0.289109
vn -0.760683 -0.584159 0.283054
vn -0.248501 0.172376 -0.953170
vn -0.371306 0.195099 -0.907782
vn -0.299895 0.204010 -0.931903
vn 0.791199 0.589050 0.164390
vn 0.630568 0.772967 0.070048
vn 0.598912 0.788299 0.141028
vn -0.905100 0.068253 -0.419685
vn -0.819074 0.095275 -0.565722
vn -0.853065 0.053764 -0.519028
vn -0.843745 -0.013363 0.536578
vn -0.831995 0.079536 0.549051
vn -0.888962 -0.081686 0.450638
vn -0.964680 0.163861 0.206255
vn -0.959179 0.227018 0.168639
vn -0.921811 0.269637 0.278498
vn -0.125495 -0.529537 0.838953
vn 0.223397 -0.549271 0.805230
vn 0.105798 -0.041752 0.993511
vn -0.818643 0.078933 -0.568853
vn -0.905008 0.165688 -0.391802
vn -0.951869 0.254283 -0.171131
vn 0.743423 0.012643 -0.668702
vn 0.643117 -0.024896 -0.765363
vn 0.759108 -0.024077 -0.650519
vn 0.592392 0.034396 -0.804915
vn 0.442098 -0.016525 -0.896815
vn 0.272891 -0.010298 -0.961990
vn -0.982475 0.150614 -0.109814
vn -0.940721 0.174351 -0.290941
vn -0.957525 0.147106 -0.248005
vn -0.982475 0.150614 -0.109814
vn -0.993772 0.111375 -0.003578
vn -0.987454 0.113517 0.109770
vn -0.987693 0.070321 -0.139706
vn -0.987127 -0.075985 -0.140736
vn -0.999577 -0.012455 0.026288
vn 0.918256 -0.271756 -0.288019
vn 0.904320 -0.273085 -0.328069
vn 0.922478 -0.225926 -0.313038
vn -0.879227 -0.097067 0.466409
vn -0.865731 -0.108452 0.488619
vn -0.787913 0.025786 0.615247
vn -0.021799 -0.998263 -0.054735
vn 0.001300 -0.999878 -0.015558
vn -0.042000 -0.998574 -0.032938
vn -0.994907 0.037222 -0.093672
vn -0.973439 0.054348 -0.222404
vn -0.998815 0.040961 -0.026297
vn -0.687027 -0.292931 0.664970
vn -0.670511 -0.394212 0.628500
vn -0.585831 -0.213236 0.781878
vn -0.371306 0.195099 -0.907782
vn -0.507403 0.194020 -0.839582
vn -0.299895 0.204010 -0.931903
vn -0.837610 0.542832 0.061178
vn -0.871865 0.489310 -0.020657
vn -0.799878 0.600008 -0.013646
vn -0.905100 0.068253 -0.419685
vn -0.899974 0.159024 -0.405904
vn -0.819074 0.095275 -0.565722
vn -0.866317 0.197551 -0.458768
vn -0.810713 0.166315 -0.561323
vn -0.899974 0.159024 -0.405904
vn -0.725373 0.040345 0.687173
vn -0.744984 -0.022909 0.666689
vn -0.883446 -0.005086 0.468506
vn 0.562598 0.067730 -0.823951
vn 0.554184 -0.022542 -0.832089
vn 0.399992 0.036710 -0.915783
vn -0.121002 -0.989883 -0.074096
vn -0.025499 -0.995284 -0.093587
vn -0.009000 -0.999729 -0.021457
vn -0.951869 0.254283 -0.171131
vn -0.955515 0.195247 -0.221067
vn -0.967489 0.243513 -0.068307
vn 0.971310 0.006804 -0.237720
vn 0.980042 0.015723 -0.198167
vn 0.994318 0.014423 -0.105469
vn -0.812764 0.568241 0.128521
vn -0.985239 0.020270 0.169982
vn -0.996530 0.050467 0.066183
vn -0.823087 -0.538961 0.179022
vn -0.755809 -0.649973 0.079296
vn -0.705333 -0.698702 0.119666
vn 0.622966 0.146875 -0.768337
vn 0.778174 0.097818 -0.620384
vn 0.753423 0.081076 -0.652518
vn -0.728122 -0.241911 0.641340
vn -0.687027 -0.292931 0.664970
vn -0.674093 -0.155882 0.722010
vn 0.004300 -0.998238 0.059179
vn -0.046001 -0.976687 0.209681
vn -0.099398 -0.891056 0.442877
vn -0.001100 -0.999820 -0.018958
vn -0.000700 -0.999831 -0.018358
vn 0.024200 -0.999652 -0.010554
vn -0.131198 -0.981299 -0.140854
vn -0.037001 -0.993892 -0.103972
vn -0.025499 -0.995284 -0.093587
vn -0.143000 -0.053552 -0.988273
vn -0.413193 0.026113 -0.910269
vn -0.357991 -0.132966 -0.924209
vn 0.973385 -0.154906 -0.168896
vn 0.945520 -0.159529 -0.283801
vn 0.984433 -0.156239 -0.080511
vn 0.925709 0.105087 -0.363344
vn 0.902741 0.278512 -0.327857
vn 0.916472 0.208221 -0.341647
vn -0.981185 0.035879 -0.189706
vn -0.997950 -0.000405 0.063999
vn -0.992175 0.031720 0.120762
vn -0.989828 -0.117798 0.079781
vn -0.982895 -0.163873 -0.084040
vn -0.971061 -0.238457 0.013386
vn -0.982895 -0.163873 -0.084040
vn -0.965703 -0.102398 -0.238604
vn -0.971061 -0.238457 0.013386
vn -0.866317 0.197551 -0.458768
vn -0.795482 0.199401 -0.572231
vn -0.810713 0.166315 -0.561323
vn -0.994907 0.037222 -0.093672
vn -0.998815 0.040961 -0.026297
vn -0.999347 0.004983 0.035793
vn 0.293705 -0.283601 0.912857
vn 0.414413 -0.121288 0.901971
vn 0.415512 -0.255212 0.873050
vn 0.954968 0.280250 0.097448
vn 0.983191 0.163314 0.081630
vn 0.986868 0.160991 0.013180
vn 0.760482 -0.171829 0.626213
vn 0.798175 -0.269233 0.538917
vn 0.711404 -0.250074 0.656786
vn -0.441712 0.064354 -0.894846
vn -0.280494 0.079619 -0.956548
vn -0.271500 0.061285 -0.960485
vn -0.172203 0.205361 -0.963417
vn -0.228195 0.265799 -0.936631
vn -0.044401 0.269746 -0.961907
vn 0.855204 0.096426 0.509242
vn 0.902949 0.174357 0.392789
vn 0.903588 -0.053643 0.425032
vn -0.724005 0.481552 0.493888
vn -0.742728 0.073929 0.665500
vn -0.765087 0.264402 0.587141
vn -0.977820 -0.013996 -0.208977
vn -0.940430 0.113153 -0.320605
vn -0.948490 0.162021 -0.272242
vn -0.556998 0.197849 -0.806603
vn -0.408811 0.233168 -0.882330
vn -0.388778 0.111495 -0.914560
vn 0.740385 0.057865 -0.669688
vn 0.720618 0.310850 -0.619743
vn 0.817693 0.302198 -0.489953
vn 0.004300 -0.998238 0.059179
vn 0.081198 -0.986747 0.140488
vn -0.046001 -0.976687 0.209681
vn -0.849787 0.428970 0.306344
vn -0.849626 0.327931 0.413034
vn -0.895806 0.190903 0.401357
vn -0.923819 0.050159 0.379530
vn -0.849626 0.327931 0.413034
vn -0.859011 -0.051100 0.509401
vn -0.876709 0.070098 0.475886
vn -0.806767 0.048242 0.588897
vn -0.851507 0.037179 0.523024
vn 0.947070 -0.181491 0.264799
vn 0.976330 -0.181659 0.117386
vn 0.987794 -0.135932 0.076065
vn -0.011401 0.185394 -0.982598
vn -0.044401 0.269746 -0.961907
vn 0.139097 0.218597 -0.965851
vn 0.382703 0.151751 -0.911323
vn 0.192391 0.127506 -0.972999
vn 0.139097 0.218597 -0.965851
vn -0.997950 -0.000405 0.063999
vn -0.924558 0.116048 0.362940
vn -0.946851 0.023969 0.320779
vn -0.979770 0.065645 0.189055
vn -0.935584 0.041454 0.350662
vn -0.917036 0.081980 0.390288
vn -0.634404 0.101090 0.766363
vn -0.787913 0.025786 0.615247
vn -0.769202 0.008674 0.638947
vn -0.722194 -0.602158 0.340355
vn -0.710904 -0.654158 0.258250
vn -0.722796 -0.627680 0.289109
vn 0.790520 -0.261891 -0.553616
vn 0.441495 -0.703587 -0.556819
vn 0.664487 -0.393082 -0.635566
vn 0.456512 0.204380 -0.865925
vn 0.510024 0.170882 -0.843016
vn 0.139097 0.218597 -0.965851
s off
g polySurface118 uploads_files_2104560_Humano_01Business_01_30K:Humano_01Business_01_30K_001
usemtl uploads_files_2104560_Humano_01Business_01_30K:Humano_01Business_01
f 29/30/1 4/50/2 32/80/3
f 9/62/4 36/65/5 35/60/6
f 14/20/7 20/84/8 26/95/9
f 1/1/10 18/40/11 36/65/12
f 30/53/13 55/6/14 2/2/15
f 28/88/16 11/17/17 30/7/18
f 48/8/19 5/9/20 7/13/21
f 46/42/22 44/12/23 24/41/24
f 36/65/25 12/18/26 32/57/27
f 16/24/28 54/21/29 53/69/30
f 16/24/31 2/2/32 55/25/33
f 10/16/34 19/28/35 17/26/36
f 12/36/37 26/95/38 39/70/39
f 32/80/40 12/36/41 39/70/42
f 36/65/43 18/40/44 13/45/45
f 41/5/46 36/65/47 44/12/48
f 36/65/49 32/57/50 35/60/51
f 49/35/52 7/13/53 21/33/54
f 36/65/55 26/44/56 12/18/57
f 33/94/58 20/29/59 39/78/60
f 44/12/61 36/65/62 24/41/63
f 17/73/64 41/5/65 10/63/66
f 18/27/67 3/3/68 9/62/69
f 3/3/70 22/38/71 9/62/72
f 25/43/73 8/14/74 41/5/75
f 22/38/76 15/22/77 52/55/78
f 23/39/79 32/80/80 39/70/81
f 19/28/82 15/22/83 3/3/84
f 39/70/85 26/95/86 33/58/87
f 28/49/88 30/53/89 10/16/90
f 41/5/91 44/12/92 25/43/93
f 18/27/94 27/47/95 13/19/96
f 9/62/97 22/38/98 7/13/99
f 4/50/100 34/68/101 9/15/102
f 30/53/103 2/2/104 19/28/105
f 30/53/106 19/28/107 10/16/108
f 27/46/109 34/90/110 14/20/111
f 36/65/112 9/62/113 7/13/114
f 38/67/115 36/65/116 40/71/117
f 34/59/118 4/4/119 14/92/120
f 19/28/121 3/3/122 38/87/123
f 8/14/124 25/43/125 43/74/126
f 15/22/127 53/37/128 52/56/129
f 1/79/130 3/3/131 18/27/132
f 19/28/133 2/2/134 15/22/135
f 16/24/136 15/22/137 2/2/138
f 26/44/139 36/65/140 13/45/141
f 21/33/142 7/13/143 22/38/144
f 20/29/145 31/52/146 39/78/147
f 13/23/148 27/46/149 14/20/150
f 5/9/151 47/48/152 24/41/153
f 26/95/154 13/23/155 14/20/156
f 33/58/157 26/95/158 20/84/159
f 49/34/160 48/81/161 7/13/162
f 42/86/163 8/14/164 43/31/165
f 14/92/166 29/51/167 20/29/168
f 39/78/169 31/52/170 23/61/171
f 20/29/172 29/51/173 31/52/174
f 9/15/175 34/68/176 27/82/177
f 36/65/178 7/13/179 5/9/180
f 4/50/181 35/83/182 32/80/183
f 3/3/184 37/66/185 38/87/186
f 36/65/187 37/75/188 1/1/189
f 37/66/190 3/3/191 1/79/192
f 16/24/193 53/69/194 15/22/195
f 19/28/196 38/87/197 40/76/198
f 43/31/199 25/43/200 44/89/201
f 23/39/202 31/54/203 32/80/204
f 44/12/205 45/11/206 6/10/207
f 15/22/208 22/38/209 3/3/210
f 22/38/211 52/56/212 51/91/213
f 44/12/214 46/42/215 45/11/216
f 10/63/217 41/5/218 56/64/219
f 54/32/220 16/24/221 55/77/222
f 18/27/223 9/62/224 27/47/225
f 4/50/226 9/15/227 35/83/228
f 14/92/229 4/4/230 29/51/231
f 10/63/232 56/64/233 28/88/234
f 28/88/235 56/64/236 11/17/237
f 17/73/238 40/71/239 41/5/240
f 24/41/241 36/65/242 5/9/243
f 22/38/244 51/91/245 50/93/246
f 21/33/247 22/38/248 50/72/249
f 37/75/250 36/65/251 38/67/252
f 19/28/253 40/76/254 17/26/255
f 41/5/256 40/71/257 36/65/258
f 42/86/259 41/85/260 8/14/261
f 31/54/262 29/30/263 32/80/264
f 49/34/265 21/33/266 50/93/267
