# This file uses centimeters as units for non-parametric coordinates.

mtllib EstanteLibros.mtl
g default
v -0.600000 -0.005810 0.230000
v 0.600000 -0.005810 0.230000
v -0.600000 1.794190 0.230000
v 0.600000 1.794190 0.230000
v -0.600000 1.794190 0.170000
v 0.600000 1.794190 0.170000
v -0.600000 -0.005810 0.170000
v 0.600000 -0.005810 0.170000
v -0.540000 1.239190 0.830000
v 0.540000 1.239190 0.830000
v -0.540000 1.299190 0.830000
v 0.540000 1.299190 0.830000
v -0.540000 1.299190 0.230000
v 0.540000 1.299190 0.230000
v -0.540000 1.239190 0.230000
v 0.540000 1.239190 0.230000
v -0.540000 1.734190 0.830000
v 0.540000 1.734190 0.830000
v -0.540000 1.794190 0.830000
v 0.540000 1.794190 0.830000
v -0.540000 1.794190 0.230000
v 0.540000 1.794190 0.230000
v -0.540000 1.734190 0.230000
v 0.540000 1.734190 0.230000
v -0.540000 -0.005810 0.830000
v -0.540000 -0.005810 0.230000
v -0.540000 1.794190 0.830000
v -0.540000 1.794190 0.230000
v -0.600000 1.794190 0.830000
v -0.600000 1.794190 0.230000
v -0.600000 -0.005810 0.830000
v -0.600000 -0.005810 0.230000
v -0.540000 0.324418 0.830000
v 0.540000 0.324418 0.830000
v -0.540000 0.384418 0.830000
v 0.540000 0.384418 0.830000
v -0.540000 0.384418 0.230000
v 0.540000 0.384418 0.230000
v -0.540000 0.324418 0.230000
v 0.540000 0.324418 0.230000
v 0.600000 -0.005810 0.830000
v 0.600000 -0.005810 0.230000
v 0.600000 1.794190 0.830000
v 0.600000 1.794190 0.230000
v 0.540000 1.794190 0.830000
v 0.540000 1.794190 0.230000
v 0.540000 -0.005810 0.830000
v 0.540000 -0.005810 0.230000
v -0.540000 -0.005810 0.830000
v 0.540000 -0.005810 0.830000
v -0.540000 0.054190 0.830000
v 0.540000 0.054190 0.830000
v -0.540000 0.054190 0.230000
v 0.540000 0.054190 0.230000
v -0.540000 -0.005810 0.230000
v 0.540000 -0.005810 0.230000
v -0.540000 0.768216 0.830000
v 0.540000 0.768216 0.830000
v -0.540000 0.828216 0.830000
v 0.540000 0.828216 0.830000
v -0.540000 0.828216 0.230000
v 0.540000 0.828216 0.230000
v -0.540000 0.768216 0.230000
v 0.540000 0.768216 0.230000
vt 0.000000 -0.482371
vt 1.000000 -0.482371
vt 1.000000 1.482371
vt 0.000000 1.482371
vt 0.980832 -0.066447
vt 0.021723 -0.121394
vt 0.341416 0.015639
vt 0.995932 0.015639
vt 0.005681 1.484736
vt 0.994320 1.484736
vt 0.994320 -0.484736
vt 0.005681 -0.484736
vt 0.375000 0.750000
vt 0.625000 0.750000
vt 0.625000 1.000000
vt 0.375000 1.000000
vt 0.081240 -0.121394
vt 0.081240 1.144395
vt 0.021723 1.144395
vt 0.931538 -0.066447
vt 0.931538 1.127783
vt 0.980832 1.127783
vt 0.995932 0.232997
vt 0.341416 0.232997
vt -0.000993 0.862220
vt 0.863912 0.862220
vt 0.863912 0.996027
vt -0.000993 0.996027
vt 0.123950 0.585246
vt 0.991055 0.585246
vt 0.991055 0.859439
vt 0.123950 0.859439
vt 0.375000 0.500000
vt 0.625000 0.500000
vt 0.625000 0.750000
vt 0.375000 0.750000
vt 0.111171 0.577038
vt 0.988499 0.577038
vt 0.988499 0.292623
vt 0.111171 0.292623
vt 0.625000 0.000000
vt 0.875000 0.000000
vt 0.875000 0.250000
vt 0.625000 0.250000
vt 0.125000 0.000000
vt 0.375000 0.000000
vt 0.375000 0.250000
vt 0.125000 0.250000
vt 0.112449 0.434462
vt 0.887551 0.434462
vt 0.887551 0.565538
vt 0.112449 0.565538
vt 0.127783 0.357861
vt 0.872217 0.357861
vt 0.872217 0.642139
vt 0.127783 0.642139
vt 0.375000 0.500000
vt 0.625000 0.500000
vt 0.625000 0.750000
vt 0.375000 0.750000
vt 0.122672 0.642208
vt 0.877328 0.642208
vt 0.877328 0.357792
vt 0.122672 0.357792
vt 0.625000 0.000000
vt 0.875000 0.000000
vt 0.875000 0.250000
vt 0.625000 0.250000
vt 0.125000 0.000000
vt 0.375000 0.000000
vt 0.375000 0.250000
vt 0.125000 0.250000
vt 0.163491 -0.485200
vt 0.836509 -0.485200
vt 0.836509 1.485200
vt 0.163491 1.485200
vt 0.817004 0.497217
vt 0.817004 0.978135
vt 0.612345 0.978135
vt 0.612345 0.497217
vt 0.152943 1.501022
vt 0.847057 1.501022
vt 0.847057 -0.501022
vt 0.152943 -0.501022
vt 0.375000 0.750000
vt 0.625000 0.750000
vt 0.625000 1.000000
vt 0.375000 1.000000
vt 0.625000 0.000000
vt 0.875000 0.000000
vt 0.875000 0.250000
vt 0.625000 0.250000
vt 0.007667 -0.020958
vt 0.148965 -0.020958
vt 0.148965 1.013291
vt 0.007667 1.013291
vt 0.135925 0.647669
vt 0.873338 0.647669
vt 0.873338 0.773827
vt 0.135925 0.773827
vt 0.034840 0.583271
vt 0.991609 0.583271
vt 0.991609 0.822657
vt 0.034840 0.822657
vt 0.375000 0.500000
vt 0.625000 0.500000
vt 0.625000 0.750000
vt 0.375000 0.750000
vt 0.111105 0.611132
vt 0.888895 0.611132
vt 0.888895 0.388868
vt 0.111105 0.388868
vt 0.625000 0.000000
vt 0.875000 0.000000
vt 0.875000 0.250000
vt 0.625000 0.250000
vt 0.125000 0.000000
vt 0.375000 0.000000
vt 0.375000 0.250000
vt 0.125000 0.250000
vt 0.102950 -0.514752
vt 0.897049 -0.514752
vt 0.897049 1.514752
vt 0.102950 1.514752
vt 0.993611 -0.001278
vt 0.993611 0.610262
vt 0.811422 0.610262
vt 0.811422 -0.001278
vt 0.110133 1.517146
vt 0.889867 1.517146
vt 0.889867 -0.517146
vt 0.110133 -0.517146
vt 0.375000 0.750000
vt 0.625000 0.750000
vt 0.625000 1.000000
vt 0.375000 1.000000
vt 0.625000 0.000000
vt 0.875000 0.000000
vt 0.875000 0.250000
vt 0.625000 0.250000
vt 0.115005 -0.154617
vt 0.164299 -0.154617
vt 0.164299 1.100948
vt 0.115005 1.100948
vt 0.036393 0.003860
vt 0.977503 0.003860
vt 0.977503 0.139252
vt 0.036393 0.139252
vt 0.024703 0.385986
vt 0.975297 0.385986
vt 0.975297 0.614014
vt 0.024703 0.614014
vt 0.375000 0.500000
vt 0.625000 0.500000
vt 0.625000 0.750000
vt 0.375000 0.750000
vt 0.625000 1.000000
vt 0.375000 1.000000
vt 0.625000 0.000000
vt 0.875000 0.000000
vt 0.875000 0.250000
vt 0.625000 0.250000
vt 0.125000 0.000000
vt 0.375000 0.000000
vt 0.375000 0.250000
vt 0.125000 0.250000
vt 0.207611 0.002966
vt 0.994068 0.002966
vt 0.994068 0.125069
vt 0.207611 0.125069
vt 0.075135 0.120612
vt 0.996045 0.120612
vt 0.996045 0.392986
vt 0.075135 0.392986
vt 0.375000 0.500000
vt 0.625000 0.500000
vt 0.625000 0.750000
vt 0.375000 0.750000
vt 0.077481 0.668224
vt 0.982120 0.668224
vt 0.982120 0.391376
vt 0.077481 0.391376
vt 0.625000 0.000000
vt 0.875000 0.000000
vt 0.875000 0.250000
vt 0.625000 0.250000
vt 0.125000 0.000000
vt 0.375000 0.000000
vt 0.375000 0.250000
vt 0.125000 0.250000
vn 0.000000 0.000000 1.000000
vn 0.000000 0.000000 1.000000
vn 0.000000 0.000000 1.000000
vn 0.000000 0.000000 1.000000
vn 0.000000 1.000000 0.000000
vn 0.000000 1.000000 0.000000
vn 0.000000 1.000000 0.000000
vn 0.000000 1.000000 0.000000
vn 0.000000 0.000000 -1.000000
vn 0.000000 0.000000 -1.000000
vn 0.000000 0.000000 -1.000000
vn 0.000000 0.000000 -1.000000
vn 0.000000 -1.000000 0.000000
vn 0.000000 -1.000000 0.000000
vn 0.000000 -1.000000 0.000000
vn 0.000000 -1.000000 0.000000
vn 1.000000 0.000000 0.000000
vn 1.000000 0.000000 0.000000
vn 1.000000 0.000000 0.000000
vn 1.000000 0.000000 0.000000
vn -1.000000 0.000000 0.000000
vn -1.000000 0.000000 0.000000
vn -1.000000 0.000000 0.000000
vn -1.000000 0.000000 0.000000
vn 0.000000 0.000000 1.000000
vn 0.000000 0.000000 1.000000
vn 0.000000 0.000000 1.000000
vn 0.000000 0.000000 1.000000
vn 0.000000 1.000000 0.000000
vn 0.000000 1.000000 0.000000
vn 0.000000 1.000000 0.000000
vn 0.000000 1.000000 0.000000
vn 0.000000 0.000000 -1.000000
vn 0.000000 0.000000 -1.000000
vn 0.000000 0.000000 -1.000000
vn 0.000000 0.000000 -1.000000
vn 0.000000 -1.000000 0.000000
vn 0.000000 -1.000000 0.000000
vn 0.000000 -1.000000 0.000000
vn 0.000000 -1.000000 0.000000
vn 1.000000 0.000000 0.000000
vn 1.000000 0.000000 0.000000
vn 1.000000 0.000000 0.000000
vn 1.000000 0.000000 0.000000
vn -1.000000 0.000000 0.000000
vn -1.000000 0.000000 0.000000
vn -1.000000 0.000000 0.000000
vn -1.000000 0.000000 0.000000
vn 0.000000 0.000000 1.000000
vn 0.000000 0.000000 1.000000
vn 0.000000 0.000000 1.000000
vn 0.000000 0.000000 1.000000
vn 0.000000 1.000000 0.000000
vn 0.000000 1.000000 0.000000
vn 0.000000 1.000000 0.000000
vn 0.000000 1.000000 0.000000
vn 0.000000 0.000000 -1.000000
vn 0.000000 0.000000 -1.000000
vn 0.000000 0.000000 -1.000000
vn 0.000000 0.000000 -1.000000
vn 0.000000 -1.000000 0.000000
vn 0.000000 -1.000000 0.000000
vn 0.000000 -1.000000 0.000000
vn 0.000000 -1.000000 0.000000
vn 1.000000 0.000000 0.000000
vn 1.000000 0.000000 0.000000
vn 1.000000 0.000000 0.000000
vn 1.000000 0.000000 0.000000
vn -1.000000 0.000000 0.000000
vn -1.000000 0.000000 0.000000
vn -1.000000 0.000000 0.000000
vn -1.000000 0.000000 0.000000
vn 1.000000 0.000000 0.000000
vn 1.000000 0.000000 0.000000
vn 1.000000 0.000000 0.000000
vn 1.000000 0.000000 0.000000
vn 0.000000 1.000000 0.000000
vn 0.000000 1.000000 0.000000
vn 0.000000 1.000000 0.000000
vn 0.000000 1.000000 0.000000
vn -1.000000 0.000000 0.000000
vn -1.000000 0.000000 0.000000
vn -1.000000 0.000000 0.000000
vn -1.000000 0.000000 0.000000
vn 0.000000 -1.000000 0.000000
vn 0.000000 -1.000000 0.000000
vn 0.000000 -1.000000 0.000000
vn 0.000000 -1.000000 0.000000
vn 0.000000 0.000000 -1.000000
vn 0.000000 0.000000 -1.000000
vn 0.000000 0.000000 -1.000000
vn 0.000000 0.000000 -1.000000
vn 0.000000 0.000000 1.000000
vn 0.000000 0.000000 1.000000
vn 0.000000 0.000000 1.000000
vn 0.000000 0.000000 1.000000
vn 0.000000 0.000000 1.000000
vn 0.000000 0.000000 1.000000
vn 0.000000 0.000000 1.000000
vn 0.000000 0.000000 1.000000
vn 0.000000 1.000000 0.000000
vn 0.000000 1.000000 0.000000
vn 0.000000 1.000000 0.000000
vn 0.000000 1.000000 0.000000
vn 0.000000 0.000000 -1.000000
vn 0.000000 0.000000 -1.000000
vn 0.000000 0.000000 -1.000000
vn 0.000000 0.000000 -1.000000
vn 0.000000 -1.000000 0.000000
vn 0.000000 -1.000000 0.000000
vn 0.000000 -1.000000 0.000000
vn 0.000000 -1.000000 0.000000
vn 1.000000 0.000000 0.000000
vn 1.000000 0.000000 0.000000
vn 1.000000 0.000000 0.000000
vn 1.000000 0.000000 0.000000
vn -1.000000 0.000000 0.000000
vn -1.000000 0.000000 0.000000
vn -1.000000 0.000000 0.000000
vn -1.000000 0.000000 0.000000
vn 1.000000 0.000000 0.000000
vn 1.000000 0.000000 0.000000
vn 1.000000 0.000000 0.000000
vn 1.000000 0.000000 0.000000
vn 0.000000 1.000000 0.000000
vn 0.000000 1.000000 0.000000
vn 0.000000 1.000000 0.000000
vn 0.000000 1.000000 0.000000
vn -1.000000 0.000000 0.000000
vn -1.000000 0.000000 0.000000
vn -1.000000 0.000000 0.000000
vn -1.000000 0.000000 0.000000
vn 0.000000 -1.000000 0.000000
vn 0.000000 -1.000000 0.000000
vn 0.000000 -1.000000 0.000000
vn 0.000000 -1.000000 0.000000
vn 0.000000 0.000000 -1.000000
vn 0.000000 0.000000 -1.000000
vn 0.000000 0.000000 -1.000000
vn 0.000000 0.000000 -1.000000
vn 0.000000 0.000000 1.000000
vn 0.000000 0.000000 1.000000
vn 0.000000 0.000000 1.000000
vn 0.000000 0.000000 1.000000
vn 0.000000 0.000000 1.000000
vn 0.000000 0.000000 1.000000
vn 0.000000 0.000000 1.000000
vn 0.000000 0.000000 1.000000
vn 0.000000 1.000000 0.000000
vn 0.000000 1.000000 0.000000
vn 0.000000 1.000000 0.000000
vn 0.000000 1.000000 0.000000
vn 0.000000 0.000000 -1.000000
vn 0.000000 0.000000 -1.000000
vn 0.000000 0.000000 -1.000000
vn 0.000000 0.000000 -1.000000
vn 0.000000 -1.000000 0.000000
vn 0.000000 -1.000000 0.000000
vn 0.000000 -1.000000 0.000000
vn 0.000000 -1.000000 0.000000
vn 1.000000 0.000000 0.000000
vn 1.000000 0.000000 0.000000
vn 1.000000 0.000000 0.000000
vn 1.000000 0.000000 0.000000
vn -1.000000 0.000000 0.000000
vn -1.000000 0.000000 0.000000
vn -1.000000 0.000000 0.000000
vn -1.000000 0.000000 0.000000
vn 0.000000 0.000000 1.000000
vn 0.000000 0.000000 1.000000
vn 0.000000 0.000000 1.000000
vn 0.000000 0.000000 1.000000
vn 0.000000 1.000000 0.000000
vn 0.000000 1.000000 0.000000
vn 0.000000 1.000000 0.000000
vn 0.000000 1.000000 0.000000
vn 0.000000 0.000000 -1.000000
vn 0.000000 0.000000 -1.000000
vn 0.000000 0.000000 -1.000000
vn 0.000000 0.000000 -1.000000
vn 0.000000 -1.000000 0.000000
vn 0.000000 -1.000000 0.000000
vn 0.000000 -1.000000 0.000000
vn 0.000000 -1.000000 0.000000
vn 1.000000 0.000000 0.000000
vn 1.000000 0.000000 0.000000
vn 1.000000 0.000000 0.000000
vn 1.000000 0.000000 0.000000
vn -1.000000 0.000000 0.000000
vn -1.000000 0.000000 0.000000
vn -1.000000 0.000000 0.000000
vn -1.000000 0.000000 0.000000
s off
g estante2
usemtl yoyo:lambert2SG
f 1/1/1 2/2/2 4/3/3 3/4/4
f 3/7/5 4/8/6 6/23/7 5/24/8
f 5/9/9 6/10/10 8/11/11 7/12/12
f 7/13/13 8/14/14 2/15/15 1/16/16
f 2/6/17 8/17/18 6/18/19 4/19/20
f 7/5/21 1/20/22 3/21/23 5/22/24
f 9/25/25 10/26/26 12/27/27 11/28/28
f 11/29/29 12/30/30 14/31/31 13/32/32
f 13/33/33 14/34/34 16/35/35 15/36/36
f 15/37/37 16/38/38 10/39/39 9/40/40
f 10/41/41 16/42/42 14/43/43 12/44/44
f 15/45/45 9/46/46 11/47/47 13/48/48
f 17/49/49 18/50/50 20/51/51 19/52/52
f 19/53/53 20/54/54 22/55/55 21/56/56
f 21/57/57 22/58/58 24/59/59 23/60/60
f 23/61/61 24/62/62 18/63/63 17/64/64
f 18/65/65 24/66/66 22/67/67 20/68/68
f 23/69/69 17/70/70 19/71/71 21/72/72
f 25/73/73 26/74/74 28/75/75 27/76/76
f 27/77/77 28/78/78 30/79/79 29/80/80
f 29/81/81 30/82/82 32/83/83 31/84/84
f 31/85/85 32/86/86 26/87/87 25/88/88
f 26/89/89 32/90/90 30/91/91 28/92/92
f 31/93/93 25/94/94 27/95/95 29/96/96
f 33/97/97 34/98/98 36/99/99 35/100/100
f 35/101/101 36/102/102 38/103/103 37/104/104
f 37/105/105 38/106/106 40/107/107 39/108/108
f 39/109/109 40/110/110 34/111/111 33/112/112
f 34/113/113 40/114/114 38/115/115 36/116/116
f 39/117/117 33/118/118 35/119/119 37/120/120
f 41/121/121 42/122/122 44/123/123 43/124/124
f 43/125/125 44/126/126 46/127/127 45/128/128
f 45/129/129 46/130/130 48/131/131 47/132/132
f 47/133/133 48/134/134 42/135/135 41/136/136
f 42/137/137 48/138/138 46/139/139 44/140/140
f 47/141/141 41/142/142 43/143/143 45/144/144
f 49/145/145 50/146/146 52/147/147 51/148/148
f 51/149/149 52/150/150 54/151/151 53/152/152
f 53/153/153 54/154/154 56/155/155 55/156/156
f 55/156/157 56/155/158 50/157/159 49/158/160
f 50/159/161 56/160/162 54/161/163 52/162/164
f 55/163/165 49/164/166 51/165/167 53/166/168
f 57/167/169 58/168/170 60/169/171 59/170/172
f 59/171/173 60/172/174 62/173/175 61/174/176
f 61/175/177 62/176/178 64/177/179 63/178/180
f 63/179/181 64/180/182 58/181/183 57/182/184
f 58/183/185 64/184/186 62/185/187 60/186/188
f 63/187/189 57/188/190 59/189/191 61/190/192
