# This file uses centimeters as units for non-parametric coordinates.

mtllib resorteInanimado.mtl
g default
v 0.007686 0.002025 -0.005584
v 0.002936 0.002025 -0.009035
v -0.002936 0.002025 -0.009035
v -0.007686 0.002025 -0.005584
v -0.009500 0.002025 0.000000
v -0.007686 0.002025 0.005584
v -0.002936 0.002025 0.009035
v 0.002936 0.002025 0.009035
v 0.007686 0.002025 0.005584
v 0.009500 0.002025 0.000000
v 0.008292 0.002458 -0.006025
v 0.003167 0.002458 -0.009748
v -0.003167 0.002458 -0.009748
v -0.008292 0.002458 -0.006025
v -0.010250 0.002458 0.000000
v -0.008292 0.002458 0.006025
v -0.003167 0.002458 0.009748
v 0.003167 0.002458 0.009748
v 0.008292 0.002458 0.006025
v 0.010250 0.002458 0.000000
v 0.008292 0.001592 -0.006025
v 0.003167 0.001592 -0.009748
v -0.003167 0.001592 -0.009748
v -0.008292 0.001592 -0.006025
v -0.010250 0.001592 0.000000
v -0.008292 0.001592 0.006025
v -0.003167 0.001592 0.009748
v 0.003167 0.001592 0.009748
v 0.008292 0.001592 0.006025
v 0.010250 0.001592 0.000000
vt 0.982354 0.955137
vt 0.975482 0.955137
vt 0.976360 0.971158
vt 0.983775 0.971158
vt 0.982354 0.955137
vt 0.983775 0.971158
vt 0.975482 0.955137
vt 0.976360 0.971158
vt 0.964363 0.955137
vt 0.964363 0.971158
vt 0.953243 0.955137
vt 0.952366 0.971158
vt 0.946371 0.955137
vt 0.944951 0.971158
vt 0.946371 0.955137
vt 0.944951 0.971158
vt 0.953243 0.955137
vt 0.952366 0.971158
vt 0.964363 0.955137
vt 0.964363 0.971158
vt 0.976360 0.939116
vt 0.983775 0.939116
vt 0.983775 0.939116
vt 0.976360 0.939116
vt 0.964363 0.939116
vt 0.952366 0.939116
vt 0.944951 0.939116
vt 0.944951 0.939116
vt 0.952366 0.939116
vt 0.964363 0.939116
vn -0.305018 0.854818 0.419821
vn -0.305018 0.854818 0.419821
vn -0.305018 0.854818 0.419821
vn -0.305018 0.854818 0.419821
vn 0.000000 0.854818 0.518928
vn 0.000000 0.854818 0.518928
vn 0.000000 0.854818 0.518928
vn 0.000000 0.854818 0.518928
vn 0.305018 0.854818 0.419821
vn 0.305018 0.854818 0.419821
vn 0.305018 0.854818 0.419821
vn 0.305018 0.854818 0.419821
vn 0.493529 0.854818 0.160357
vn 0.493529 0.854818 0.160357
vn 0.493529 0.854818 0.160357
vn 0.493529 0.854818 0.160357
vn 0.493529 0.854818 -0.160357
vn 0.493529 0.854818 -0.160357
vn 0.493529 0.854818 -0.160357
vn 0.493529 0.854818 -0.160357
vn 0.305018 0.854818 -0.419821
vn 0.305018 0.854818 -0.419821
vn 0.305018 0.854818 -0.419821
vn 0.305018 0.854818 -0.419821
vn 0.000000 0.854818 -0.518928
vn 0.000000 0.854818 -0.518928
vn 0.000000 0.854818 -0.518928
vn 0.000000 0.854818 -0.518928
vn -0.305018 0.854818 -0.419821
vn -0.305018 0.854818 -0.419821
vn -0.305018 0.854818 -0.419821
vn -0.305018 0.854818 -0.419821
vn -0.493530 0.854818 -0.160358
vn -0.493530 0.854818 -0.160358
vn -0.493530 0.854818 -0.160358
vn -0.493530 0.854818 -0.160358
vn -0.493529 0.854818 0.160357
vn -0.493529 0.854818 0.160357
vn -0.493529 0.854818 0.160357
vn -0.493529 0.854818 0.160357
vn 0.587785 0.000000 -0.809017
vn 0.587785 0.000000 -0.809017
vn 0.587785 0.000000 -0.809017
vn 0.587785 0.000000 -0.809017
vn -0.000000 0.000000 -1.000000
vn -0.000000 0.000000 -1.000000
vn -0.000000 0.000000 -1.000000
vn -0.000000 0.000000 -1.000000
vn -0.587785 0.000000 -0.809017
vn -0.587785 0.000000 -0.809017
vn -0.587785 0.000000 -0.809017
vn -0.587785 0.000000 -0.809017
vn -0.951057 0.000000 -0.309017
vn -0.951057 0.000000 -0.309017
vn -0.951057 0.000000 -0.309017
vn -0.951057 0.000000 -0.309017
vn -0.951056 0.000000 0.309017
vn -0.951056 0.000000 0.309017
vn -0.951056 0.000000 0.309017
vn -0.951056 0.000000 0.309017
vn -0.587785 0.000000 0.809017
vn -0.587785 0.000000 0.809017
vn -0.587785 0.000000 0.809017
vn -0.587785 0.000000 0.809017
vn 0.000000 0.000000 1.000000
vn 0.000000 0.000000 1.000000
vn 0.000000 0.000000 1.000000
vn 0.000000 0.000000 1.000000
vn 0.587785 0.000000 0.809017
vn 0.587785 0.000000 0.809017
vn 0.587785 0.000000 0.809017
vn 0.587785 0.000000 0.809017
vn 0.951056 0.000000 0.309017
vn 0.951056 0.000000 0.309017
vn 0.951056 0.000000 0.309017
vn 0.951056 0.000000 0.309017
vn 0.951056 0.000000 -0.309017
vn 0.951056 0.000000 -0.309017
vn 0.951056 0.000000 -0.309017
vn 0.951056 0.000000 -0.309017
vn -0.305018 -0.854818 0.419821
vn -0.305018 -0.854818 0.419821
vn -0.305018 -0.854818 0.419821
vn -0.305018 -0.854818 0.419821
vn 0.000000 -0.854818 0.518928
vn 0.000000 -0.854818 0.518928
vn 0.000000 -0.854818 0.518928
vn 0.000000 -0.854818 0.518928
vn 0.305018 -0.854818 0.419821
vn 0.305018 -0.854818 0.419821
vn 0.305018 -0.854818 0.419821
vn 0.305018 -0.854818 0.419821
vn 0.493529 -0.854818 0.160357
vn 0.493529 -0.854818 0.160357
vn 0.493529 -0.854818 0.160357
vn 0.493529 -0.854818 0.160357
vn 0.493530 -0.854818 -0.160357
vn 0.493530 -0.854818 -0.160357
vn 0.493530 -0.854818 -0.160357
vn 0.493530 -0.854818 -0.160357
vn 0.305018 -0.854818 -0.419821
vn 0.305018 -0.854818 -0.419821
vn 0.305018 -0.854818 -0.419821
vn 0.305018 -0.854818 -0.419821
vn -0.000000 -0.854818 -0.518928
vn -0.000000 -0.854818 -0.518928
vn -0.000000 -0.854818 -0.518928
vn -0.000000 -0.854818 -0.518928
vn -0.305018 -0.854818 -0.419821
vn -0.305018 -0.854818 -0.419821
vn -0.305018 -0.854818 -0.419821
vn -0.305018 -0.854818 -0.419821
vn -0.493530 -0.854818 -0.160358
vn -0.493530 -0.854818 -0.160358
vn -0.493530 -0.854818 -0.160358
vn -0.493530 -0.854818 -0.160358
vn -0.493529 -0.854818 0.160357
vn -0.493529 -0.854818 0.160357
vn -0.493529 -0.854818 0.160357
vn -0.493529 -0.854818 0.160357
s off
g pTorus1
usemtl lambert2SG
f 2/1/1 1/2/2 11/3/3 12/4/4
f 3/5/5 2/1/6 12/4/7 13/6/8
f 4/7/9 3/5/10 13/6/11 14/8/12
f 5/9/13 4/7/14 14/8/15 15/10/16
f 6/11/17 5/9/18 15/10/19 16/12/20
f 7/13/21 6/11/22 16/12/23 17/14/24
f 8/15/25 7/13/26 17/14/27 18/16/28
f 9/17/29 8/15/30 18/16/31 19/18/32
f 10/19/33 9/17/34 19/18/35 20/20/36
f 1/2/37 10/19/38 20/20/39 11/3/40
f 12/4/41 11/3/42 21/21/43 22/22/44
f 13/6/45 12/4/46 22/22/47 23/23/48
f 14/8/49 13/6/50 23/23/51 24/24/52
f 15/10/53 14/8/54 24/24/55 25/25/56
f 16/12/57 15/10/58 25/25/59 26/26/60
f 17/14/61 16/12/62 26/26/63 27/27/64
f 18/16/65 17/14/66 27/27/67 28/28/68
f 19/18/69 18/16/70 28/28/71 29/29/72
f 20/20/73 19/18/74 29/29/75 30/30/76
f 11/3/77 20/20/78 30/30/79 21/21/80
f 22/22/81 21/21/82 1/2/83 2/1/84
f 23/23/85 22/22/86 2/1/87 3/5/88
f 24/24/89 23/23/90 3/5/91 4/7/92
f 25/25/93 24/24/94 4/7/95 5/9/96
f 26/26/97 25/25/98 5/9/99 6/11/100
f 27/27/101 26/26/102 6/11/103 7/13/104
f 28/28/105 27/27/106 7/13/107 8/15/108
f 29/29/109 28/28/110 8/15/111 9/17/112
f 30/30/113 29/29/114 9/17/115 10/19/116
f 21/21/117 30/30/118 10/19/119 1/2/120
g default
v -0.106686 0.005932 -0.005584
v -0.101936 0.005932 -0.009035
v -0.096064 0.005932 -0.009035
v -0.091314 0.005932 -0.005584
v -0.089500 0.005932 0.000000
v -0.091314 0.005932 0.005584
v -0.096064 0.005932 0.009035
v -0.101936 0.005932 0.009035
v -0.106686 0.005932 0.005584
v -0.108500 0.005932 0.000000
v -0.107292 0.005499 -0.006025
v -0.102167 0.005499 -0.009748
v -0.095833 0.005499 -0.009748
v -0.090708 0.005499 -0.006025
v -0.088750 0.005499 0.000000
v -0.090708 0.005499 0.006025
v -0.095833 0.005499 0.009748
v -0.102167 0.005499 0.009748
v -0.107292 0.005499 0.006025
v -0.109250 0.005499 0.000000
v -0.107292 0.006365 -0.006025
v -0.102167 0.006365 -0.009748
v -0.095833 0.006365 -0.009748
v -0.090708 0.006365 -0.006025
v -0.088750 0.006365 0.000000
v -0.090708 0.006365 0.006025
v -0.095833 0.006365 0.009748
v -0.102167 0.006365 0.009748
v -0.107292 0.006365 0.006025
v -0.109250 0.006365 0.000000
vt 0.079516 0.941645
vt 0.068574 0.941645
vt 0.069972 0.910737
vt 0.081778 0.910737
vt 0.079516 0.941645
vt 0.081778 0.910737
vt 0.068574 0.941645
vt 0.069972 0.910737
vt 0.050870 0.941645
vt 0.050870 0.910737
vt 0.033165 0.941645
vt 0.031767 0.910737
vt 0.022223 0.941645
vt 0.019961 0.910737
vt 0.022223 0.941645
vt 0.019961 0.910737
vt 0.033165 0.941645
vt 0.031767 0.910737
vt 0.050870 0.941645
vt 0.050870 0.910737
vt 0.069972 0.972553
vt 0.081778 0.972553
vt 0.081778 0.972553
vt 0.069972 0.972553
vt 0.050870 0.972553
vt 0.031767 0.972553
vt 0.019961 0.972553
vt 0.019961 0.972553
vt 0.031767 0.972553
vt 0.050870 0.972553
vn 0.305019 -0.854817 0.419822
vn 0.305019 -0.854817 0.419822
vn 0.305019 -0.854817 0.419822
vn 0.305019 -0.854817 0.419822
vn -0.000000 -0.854818 0.518928
vn -0.000000 -0.854818 0.518928
vn -0.000000 -0.854818 0.518928
vn -0.000000 -0.854818 0.518928
vn -0.305017 -0.854819 0.419820
vn -0.305017 -0.854819 0.419820
vn -0.305017 -0.854819 0.419820
vn -0.305017 -0.854819 0.419820
vn -0.493530 -0.854818 0.160357
vn -0.493530 -0.854818 0.160357
vn -0.493530 -0.854818 0.160357
vn -0.493530 -0.854818 0.160357
vn -0.493532 -0.854817 -0.160358
vn -0.493532 -0.854817 -0.160358
vn -0.493532 -0.854817 -0.160358
vn -0.493532 -0.854817 -0.160358
vn -0.305019 -0.854818 -0.419822
vn -0.305019 -0.854817 -0.419822
vn -0.305019 -0.854818 -0.419822
vn -0.305019 -0.854818 -0.419822
vn 0.000000 -0.854818 -0.518928
vn 0.000000 -0.854818 -0.518928
vn 0.000000 -0.854818 -0.518928
vn 0.000000 -0.854818 -0.518928
vn 0.305018 -0.854818 -0.419821
vn 0.305018 -0.854818 -0.419821
vn 0.305018 -0.854818 -0.419821
vn 0.305018 -0.854818 -0.419821
vn 0.493527 -0.854820 -0.160357
vn 0.493527 -0.854820 -0.160357
vn 0.493527 -0.854820 -0.160357
vn 0.493527 -0.854820 -0.160357
vn 0.493527 -0.854820 0.160357
vn 0.493527 -0.854820 0.160357
vn 0.493527 -0.854820 0.160357
vn 0.493527 -0.854820 0.160357
vn -0.587785 0.000000 -0.809017
vn -0.587785 0.000000 -0.809017
vn -0.587785 0.000000 -0.809017
vn -0.587785 0.000000 -0.809017
vn 0.000000 -0.000000 -1.000000
vn 0.000000 -0.000000 -1.000000
vn 0.000000 -0.000000 -1.000000
vn 0.000000 -0.000000 -1.000000
vn 0.587786 -0.000000 -0.809017
vn 0.587786 -0.000000 -0.809017
vn 0.587786 -0.000000 -0.809017
vn 0.587786 -0.000000 -0.809017
vn 0.951057 -0.000000 -0.309016
vn 0.951057 -0.000000 -0.309016
vn 0.951057 -0.000000 -0.309016
vn 0.951057 -0.000000 -0.309016
vn 0.951056 -0.000000 0.309017
vn 0.951056 -0.000000 0.309017
vn 0.951056 -0.000000 0.309017
vn 0.951056 -0.000000 0.309017
vn 0.587785 -0.000000 0.809017
vn 0.587785 -0.000000 0.809017
vn 0.587785 -0.000000 0.809017
vn 0.587785 -0.000000 0.809017
vn -0.000000 0.000000 1.000000
vn -0.000000 0.000000 1.000000
vn -0.000000 0.000000 1.000000
vn -0.000000 0.000000 1.000000
vn -0.587785 0.000000 0.809017
vn -0.587785 0.000000 0.809017
vn -0.587785 0.000000 0.809017
vn -0.587785 0.000000 0.809017
vn -0.951056 0.000000 0.309017
vn -0.951056 0.000000 0.309017
vn -0.951056 0.000000 0.309017
vn -0.951056 0.000000 0.309017
vn -0.951056 0.000000 -0.309017
vn -0.951056 0.000000 -0.309017
vn -0.951056 0.000000 -0.309017
vn -0.951056 0.000000 -0.309017
vn 0.305019 0.854817 0.419822
vn 0.305019 0.854817 0.419822
vn 0.305019 0.854817 0.419822
vn 0.305019 0.854817 0.419822
vn -0.000000 0.854818 0.518928
vn -0.000000 0.854818 0.518928
vn -0.000000 0.854818 0.518928
vn -0.000000 0.854818 0.518928
vn -0.305017 0.854819 0.419820
vn -0.305017 0.854819 0.419820
vn -0.305017 0.854819 0.419820
vn -0.305017 0.854819 0.419820
vn -0.493530 0.854818 0.160357
vn -0.493530 0.854818 0.160357
vn -0.493530 0.854818 0.160357
vn -0.493530 0.854818 0.160357
vn -0.493532 0.854817 -0.160358
vn -0.493532 0.854817 -0.160358
vn -0.493532 0.854817 -0.160358
vn -0.493531 0.854817 -0.160358
vn -0.305019 0.854818 -0.419822
vn -0.305019 0.854818 -0.419822
vn -0.305019 0.854817 -0.419822
vn -0.305019 0.854818 -0.419822
vn 0.000000 0.854818 -0.518928
vn 0.000000 0.854818 -0.518928
vn 0.000000 0.854818 -0.518928
vn 0.000000 0.854818 -0.518928
vn 0.305018 0.854818 -0.419821
vn 0.305018 0.854818 -0.419821
vn 0.305018 0.854818 -0.419821
vn 0.305018 0.854818 -0.419821
vn 0.493527 0.854819 -0.160357
vn 0.493527 0.854819 -0.160357
vn 0.493527 0.854819 -0.160357
vn 0.493527 0.854819 -0.160357
vn 0.493527 0.854820 0.160357
vn 0.493527 0.854820 0.160357
vn 0.493527 0.854820 0.160357
vn 0.493527 0.854820 0.160357
s off
g pTorus12
usemtl lambert2SG
f 32/31/121 31/32/122 41/33/123 42/34/124
f 33/35/125 32/31/126 42/34/127 43/36/128
f 34/37/129 33/35/130 43/36/131 44/38/132
f 35/39/133 34/37/134 44/38/135 45/40/136
f 36/41/137 35/39/138 45/40/139 46/42/140
f 37/43/141 36/41/142 46/42/143 47/44/144
f 38/45/145 37/43/146 47/44/147 48/46/148
f 39/47/149 38/45/150 48/46/151 49/48/152
f 40/49/153 39/47/154 49/48/155 50/50/156
f 31/32/157 40/49/158 50/50/159 41/33/160
f 42/34/161 41/33/162 51/51/163 52/52/164
f 43/36/165 42/34/166 52/52/167 53/53/168
f 44/38/169 43/36/170 53/53/171 54/54/172
f 45/40/173 44/38/174 54/54/175 55/55/176
f 46/42/177 45/40/178 55/55/179 56/56/180
f 47/44/181 46/42/182 56/56/183 57/57/184
f 48/46/185 47/44/186 57/57/187 58/58/188
f 49/48/189 48/46/190 58/58/191 59/59/192
f 50/50/193 49/48/194 59/59/195 60/60/196
f 41/33/197 50/50/198 60/60/199 51/51/200
f 52/52/201 51/51/202 31/32/203 32/31/204
f 53/53/205 52/52/206 32/31/207 33/35/208
f 54/54/209 53/53/210 33/35/211 34/37/212
f 55/55/213 54/54/214 34/37/215 35/39/216
f 56/56/217 55/55/218 35/39/219 36/41/220
f 57/57/221 56/56/222 36/41/223 37/43/224
f 58/58/225 57/57/226 37/43/227 38/45/228
f 59/59/229 58/58/230 38/45/231 39/47/232
f 60/60/233 59/59/234 39/47/235 40/49/236
f 51/51/237 60/60/238 40/49/239 31/32/240
