# This file uses centimeters as units for non-parametric coordinates.

mtllib zona_tienda.mtl
g default
v -13.069986 6.014080 -11.271979
v -5.106531 6.014080 -11.271979
v -13.069986 5.876440 -11.271979
v -5.106531 5.876440 -11.271979
v -13.069986 6.014080 -1.196089
v -13.069986 5.876440 -1.196089
v -5.106531 5.876440 -1.196089
v -5.106531 6.014080 -1.196089
vt 0.375000 0.500000
vt 0.625000 0.500000
vt 0.625000 0.750000
vt 0.375000 0.750000
vt 0.125000 0.000000
vt 0.290890 0.000000
vt 0.290890 0.250000
vt 0.125000 0.250000
vt 0.625000 0.915890
vt 0.375000 0.915890
vt 0.709110 0.250000
vt 0.709110 0.000000
vt 0.875000 0.000000
vt 0.875000 0.250000
vt 0.375000 0.334110
vt 0.625000 0.334110
vn -0.000000 0.000000 -1.000000
vn -0.000000 0.000000 -1.000000
vn -0.000000 0.000000 -1.000000
vn -0.000000 0.000000 -1.000000
vn -1.000000 0.000000 0.000000
vn -1.000000 0.000000 0.000000
vn -1.000000 0.000000 0.000000
vn -1.000000 0.000000 0.000000
vn 0.000000 -1.000000 0.000000
vn 0.000000 -1.000000 0.000000
vn 0.000000 -1.000000 0.000000
vn 0.000000 -1.000000 0.000000
vn 1.000000 0.000000 -0.000000
vn 1.000000 0.000000 -0.000000
vn 1.000000 0.000000 -0.000000
vn 1.000000 0.000000 -0.000000
vn -0.000000 1.000000 0.000000
vn -0.000000 1.000000 0.000000
vn -0.000000 1.000000 0.000000
vn -0.000000 1.000000 0.000000
s off
g pCube54 group10 group9 group8
usemtl zona_spa8:initialShadingGroup
f 1/1/1 2/2/2 4/3/3 3/4/4
f 3/5/5 6/6/6 5/7/7 1/8/8
f 3/4/9 4/3/10 7/9/11 6/10/12
f 8/11/13 7/12/14 4/13/15 2/14/16
f 5/15/17 8/16/18 2/2/19 1/1/20
g default
v -5.070371 0.065807 -11.169988
v -13.144406 0.065807 -11.169988
v -13.190979 0.065807 3.768814
v -5.116943 0.065807 3.768806
vt -4.048846 -4.068411
vt 5.058719 -4.068411
vt 5.058719 4.965957
vt -4.048846 4.965952
vn -0.000000 1.000000 -0.000000
vn -0.000000 1.000000 -0.000000
vn -0.000000 1.000000 -0.000000
vn -0.000000 1.000000 -0.000000
s off
g group10 group9 group8 polySurface55pasted__pCube18group1
usemtl zona_spa8:phong11SG
f 9/17/21 10/18/22 11/19/23 12/20/24
g default
v -5.116759 -0.009732 -11.250836
v -13.071951 -0.009732 -11.250836
v -5.116759 6.286780 -11.250836
v -13.071951 6.286780 -11.250836
v -5.116759 6.286780 -11.120032
v -13.071951 6.286780 -11.120032
v -5.116759 -0.009732 -11.120032
v -13.071951 -0.009732 -11.120032
vt 0.375000 0.000000
vt 0.625000 0.000000
vt 0.625000 0.250000
vt 0.375000 0.250000
vt 0.625000 0.500000
vt 0.375000 0.500000
vt 0.625000 0.750000
vt 0.375000 0.750000
vt 0.625000 1.000000
vt 0.375000 1.000000
vt 0.875000 0.000000
vt 0.875000 0.250000
vt 0.125000 0.000000
vt 0.125000 0.250000
vn -0.000000 0.000000 -1.000000
vn -0.000000 0.000000 -1.000000
vn -0.000000 0.000000 -1.000000
vn -0.000000 0.000000 -1.000000
vn -0.000000 1.000000 0.000000
vn -0.000000 1.000000 0.000000
vn -0.000000 1.000000 0.000000
vn -0.000000 1.000000 0.000000
vn 0.000000 0.000000 1.000000
vn 0.000000 0.000000 1.000000
vn 0.000000 0.000000 1.000000
vn 0.000000 0.000000 1.000000
vn 0.000000 -1.000000 0.000000
vn 0.000000 -1.000000 0.000000
vn 0.000000 -1.000000 0.000000
vn 0.000000 -1.000000 0.000000
vn -1.000000 0.000000 0.000000
vn -1.000000 0.000000 0.000000
vn -1.000000 0.000000 0.000000
vn -1.000000 0.000000 0.000000
vn 1.000000 0.000000 -0.000000
vn 1.000000 0.000000 -0.000000
vn 1.000000 0.000000 -0.000000
vn 1.000000 0.000000 -0.000000
s off
g group10 group9 group8 pCube64
usemtl zona_spa8:initialShadingGroup2
f 13/21/25 14/22/26 16/23/27 15/24/28
f 15/24/29 16/23/30 18/25/31 17/26/32
f 17/26/33 18/25/34 20/27/35 19/28/36
f 19/28/37 20/27/38 14/29/39 13/30/40
f 14/22/41 20/31/42 18/32/43 16/23/44
f 19/33/45 13/21/46 15/24/47 17/34/48
g default
v -5.031917 -0.009732 3.697955
v -12.987109 -0.009732 3.697955
v -5.031917 6.286780 3.697955
v -12.987109 6.286780 3.697955
v -5.031917 6.286780 3.828759
v -12.987109 6.286780 3.828759
v -5.031917 -0.009732 3.828759
v -12.987109 -0.009732 3.828759
vt 0.375000 0.000000
vt 0.625000 0.000000
vt 0.625000 0.250000
vt 0.375000 0.250000
vt 0.625000 0.500000
vt 0.375000 0.500000
vt 0.625000 0.750000
vt 0.375000 0.750000
vt 0.625000 1.000000
vt 0.375000 1.000000
vt 0.875000 0.000000
vt 0.875000 0.250000
vt 0.125000 0.000000
vt 0.125000 0.250000
vn -0.000000 0.000000 -1.000000
vn -0.000000 0.000000 -1.000000
vn -0.000000 0.000000 -1.000000
vn -0.000000 0.000000 -1.000000
vn 0.000000 1.000000 0.000000
vn 0.000000 1.000000 0.000000
vn 0.000000 1.000000 0.000000
vn 0.000000 1.000000 0.000000
vn 0.000000 0.000000 1.000000
vn 0.000000 0.000000 1.000000
vn 0.000000 0.000000 1.000000
vn 0.000000 0.000000 1.000000
vn -0.000000 -1.000000 0.000000
vn -0.000000 -1.000000 0.000000
vn -0.000000 -1.000000 0.000000
vn -0.000000 -1.000000 0.000000
vn -1.000000 0.000000 0.000000
vn -1.000000 0.000000 0.000000
vn -1.000000 0.000000 0.000000
vn -1.000000 0.000000 0.000000
vn 1.000000 0.000000 -0.000000
vn 1.000000 0.000000 -0.000000
vn 1.000000 0.000000 -0.000000
vn 1.000000 0.000000 -0.000000
s off
g group10 group9 group8 pCube61
usemtl zona_spa8:initialShadingGroup2
f 21/35/49 22/36/50 24/37/51 23/38/52
f 23/38/53 24/37/54 26/39/55 25/40/56
f 25/40/57 26/39/58 28/41/59 27/42/60
f 27/42/61 28/41/62 22/43/63 21/44/64
f 22/36/65 28/45/66 26/46/67 24/37/68
f 27/47/69 21/35/70 23/38/71 25/48/72
g default
v -13.009608 -0.001216 -11.291055
v -13.113424 -0.001216 -11.291055
v -13.009608 6.302238 -11.291055
v -13.113424 6.302238 -11.291055
v -13.009608 6.302238 3.855333
v -13.113424 6.302238 3.855333
v -13.009608 -0.001216 3.855333
v -13.113424 -0.001216 3.855333
vt 0.375000 0.000000
vt 0.625000 0.000000
vt 0.625000 0.250000
vt 0.375000 0.250000
vt 0.625000 0.500000
vt 0.375000 0.500000
vt 0.625000 0.750000
vt 0.375000 0.750000
vt 0.625000 1.000000
vt 0.375000 1.000000
vt 0.875000 0.000000
vt 0.875000 0.250000
vt 0.125000 0.000000
vt 0.125000 0.250000
vn -0.000000 0.000000 -1.000000
vn -0.000000 0.000000 -1.000000
vn -0.000000 0.000000 -1.000000
vn -0.000000 0.000000 -1.000000
vn -0.000000 1.000000 0.000000
vn -0.000000 1.000000 0.000000
vn -0.000000 1.000000 0.000000
vn -0.000000 1.000000 0.000000
vn 0.000000 0.000000 1.000000
vn 0.000000 0.000000 1.000000
vn 0.000000 0.000000 1.000000
vn 0.000000 0.000000 1.000000
vn 0.000000 -1.000000 0.000000
vn 0.000000 -1.000000 0.000000
vn 0.000000 -1.000000 0.000000
vn 0.000000 -1.000000 0.000000
vn -1.000000 0.000000 0.000000
vn -1.000000 0.000000 0.000000
vn -1.000000 0.000000 0.000000
vn -1.000000 0.000000 0.000000
vn 1.000000 0.000000 -0.000000
vn 1.000000 0.000000 -0.000000
vn 1.000000 0.000000 -0.000000
vn 1.000000 0.000000 -0.000000
s off
g group10 group9 group8 pCube65
usemtl zona_spa8:initialShadingGroup2
f 29/49/73 30/50/74 32/51/75 31/52/76
f 31/52/77 32/51/78 34/53/79 33/54/80
f 33/54/81 34/53/82 36/55/83 35/56/84
f 35/56/85 36/55/86 30/57/87 29/58/88
f 30/50/89 36/59/90 34/60/91 32/51/92
f 35/61/93 29/49/94 31/52/95 33/62/96
g default
v -8.354108 2.551983 -10.785754
v -9.340547 2.551983 -10.785754
v -8.349623 1.747021 -10.785754
v -9.336063 1.747021 -10.785754
vt 0.995475 1.000000
vt -0.000000 1.000000
vt 0.004525 0.000000
vt 1.000000 0.000000
vn 0.000000 0.000000 1.000000
vn 0.000000 0.000000 1.000000
vn 0.000000 0.000000 1.000000
vn 0.000000 0.000000 1.000000
s off
g group10 group9 group8 pCube49polySurface137
usemtl zona_spa8:lambert66SG
f 37/63/97 38/64/98 40/65/99 39/66/100
g default
v -13.161943 5.995041 3.860003
v -4.995880 5.995041 3.860003
v -13.161943 6.309018 3.860003
v -4.995880 6.309018 3.860003
v -13.161943 6.309018 -11.271979
v -4.995880 6.309018 -11.271979
v -13.161943 5.995041 -11.271979
v -4.995880 5.995041 -11.271979
vt 0.375000 0.000000
vt 0.625000 0.000000
vt 0.625000 0.250000
vt 0.375000 0.250000
vt 0.625000 0.500000
vt 0.375000 0.500000
vt 0.625000 0.750000
vt 0.375000 0.750000
vt 0.625000 1.000000
vt 0.375000 1.000000
vt 0.875000 0.000000
vt 0.875000 0.250000
vt 0.125000 0.000000
vt 0.125000 0.250000
vn 0.000000 0.000000 1.000000
vn 0.000000 0.000000 1.000000
vn 0.000000 0.000000 1.000000
vn 0.000000 0.000000 1.000000
vn -0.000000 1.000000 0.000000
vn -0.000000 1.000000 0.000000
vn -0.000000 1.000000 0.000000
vn -0.000000 1.000000 0.000000
vn -0.000000 0.000000 -1.000000
vn -0.000000 0.000000 -1.000000
vn -0.000000 0.000000 -1.000000
vn -0.000000 0.000000 -1.000000
vn 0.000000 -1.000000 0.000000
vn 0.000000 -1.000000 0.000000
vn 0.000000 -1.000000 0.000000
vn 0.000000 -1.000000 0.000000
vn 1.000000 0.000000 -0.000000
vn 1.000000 0.000000 -0.000000
vn 1.000000 0.000000 -0.000000
vn 1.000000 0.000000 -0.000000
vn -1.000000 0.000000 0.000000
vn -1.000000 0.000000 0.000000
vn -1.000000 0.000000 0.000000
vn -1.000000 0.000000 0.000000
s off
g group10 group9 group8 pCube48
usemtl zona_spa8:initialShadingGroup2
f 41/67/101 42/68/102 44/69/103 43/70/104
f 43/70/105 44/69/106 46/71/107 45/72/108
f 45/72/109 46/71/110 48/73/111 47/74/112
f 47/74/113 48/73/114 42/75/115 41/76/116
f 42/68/117 48/77/118 46/78/119 44/69/120
f 47/79/121 41/67/122 43/70/123 45/80/124
g default
v -5.026948 0.036758 -11.198864
v -5.162421 0.036758 -11.198864
v -5.026948 6.297584 -11.198864
v -5.162421 6.297584 -11.198864
v -5.026948 6.297584 3.815320
v -5.162421 6.297584 3.815320
v -5.026948 0.036758 3.815320
v -5.162421 0.036758 3.815320
v -5.026948 6.297584 -9.697439
v -5.026948 0.036758 -9.697439
v -5.162421 0.036758 -9.697439
v -5.162421 6.297584 -9.697439
v -5.026948 0.036758 -6.994890
v -5.026948 6.297584 -6.994890
v -5.162421 6.297584 -6.994890
v -5.162421 0.036758 -6.994890
v -5.026948 2.566582 -11.198864
v -5.026948 2.566582 -9.697439
v -5.026948 2.566582 -6.994890
v -5.026948 2.566582 3.815320
v -5.162421 2.566582 3.815320
v -5.162421 2.566582 -6.994890
v -5.162421 2.566582 -9.697439
v -5.162421 2.566582 -11.198864
vt 0.375000 0.000000
vt 0.625000 0.000000
vt 0.625000 0.100000
vt 0.375000 0.100000
vt 0.375000 0.250000
vt 0.625000 0.250000
vt 0.625000 0.275000
vt 0.375000 0.275000
vt 0.375000 0.650000
vt 0.625000 0.650000
vt 0.625000 0.750000
vt 0.375000 0.750000
vt 0.375000 0.975000
vt 0.625000 0.975000
vt 0.625000 1.000000
vt 0.375000 1.000000
vt 0.650000 0.000000
vt 0.650000 0.100000
vt 0.350000 0.100000
vt 0.350000 0.000000
vt 0.125000 0.000000
vt 0.305000 0.000000
vt 0.305000 0.100000
vt 0.125000 0.100000
vt 0.625000 0.930000
vt 0.375000 0.930000
vt 0.875000 0.100000
vt 0.695000 0.100000
vt 0.695000 0.000000
vt 0.875000 0.000000
vt 0.375000 0.320000
vt 0.625000 0.320000
vt 0.625000 0.500000
vt 0.375000 0.500000
vt 0.350000 0.250000
vt 0.305000 0.250000
vt 0.125000 0.250000
vt 0.695000 0.250000
vt 0.875000 0.250000
vt 0.650000 0.250000
vn -0.000000 0.000000 -1.000000
vn -0.000000 0.000000 -1.000000
vn -0.000000 0.000000 -1.000000
vn -0.000000 0.000000 -1.000000
vn -0.000000 1.000000 0.000000
vn -0.000000 1.000000 0.000000
vn -0.000000 1.000000 0.000000
vn -0.000000 1.000000 0.000000
vn 0.000000 0.000000 1.000000
vn 0.000000 0.000000 1.000000
vn 0.000000 0.000000 1.000000
vn 0.000000 0.000000 1.000000
vn 0.000000 -1.000000 0.000000
vn 0.000000 -1.000000 0.000000
vn 0.000000 -1.000000 0.000000
vn 0.000000 -1.000000 0.000000
vn -1.000000 0.000000 0.000000
vn -1.000000 0.000000 0.000000
vn -1.000000 0.000000 0.000000
vn -1.000000 0.000000 0.000000
vn 1.000000 0.000000 -0.000000
vn 1.000000 0.000000 -0.000000
vn 1.000000 0.000000 -0.000000
vn 1.000000 0.000000 -0.000000
vn 1.000000 0.000000 -0.000000
vn 1.000000 0.000000 -0.000000
vn 1.000000 0.000000 -0.000000
vn 1.000000 0.000000 -0.000000
vn 0.000000 -1.000000 0.000000
vn 0.000000 -1.000000 0.000000
vn 0.000000 -1.000000 0.000000
vn 0.000000 -1.000000 0.000000
vn -1.000000 0.000000 0.000000
vn -1.000000 0.000000 0.000000
vn -1.000000 0.000000 0.000000
vn -1.000000 0.000000 0.000000
vn -0.000000 1.000000 0.000000
vn -0.000000 1.000000 0.000000
vn -0.000000 1.000000 0.000000
vn -0.000000 1.000000 0.000000
vn -0.000000 1.000000 0.000000
vn -0.000000 1.000000 0.000000
vn -0.000000 1.000000 0.000000
vn -0.000000 1.000000 0.000000
vn 0.000000 -1.000000 0.000000
vn 0.000000 -1.000000 0.000000
vn 0.000000 -1.000000 0.000000
vn 0.000000 -1.000000 0.000000
vn 1.000000 0.000000 -0.000000
vn 1.000000 0.000000 -0.000000
vn 1.000000 0.000000 -0.000000
vn 1.000000 0.000000 -0.000000
vn 1.000000 0.000000 -0.000000
vn 1.000000 0.000000 -0.000000
vn 1.000000 0.000000 -0.000000
vn 1.000000 0.000000 -0.000000
vn 1.000000 0.000000 -0.000000
vn 1.000000 0.000000 -0.000000
vn 1.000000 0.000000 -0.000000
vn 1.000000 0.000000 -0.000000
vn 0.000000 0.000000 1.000000
vn 0.000000 0.000000 1.000000
vn 0.000000 0.000000 1.000000
vn 0.000000 0.000000 1.000000
vn -1.000000 0.000000 0.000000
vn -1.000000 0.000000 0.000000
vn -1.000000 0.000000 0.000000
vn -1.000000 0.000000 0.000000
vn -1.000000 0.000000 0.000000
vn -1.000000 0.000000 0.000000
vn -1.000000 0.000000 0.000000
vn -1.000000 0.000000 0.000000
vn -1.000000 0.000000 0.000000
vn -1.000000 0.000000 0.000000
vn -1.000000 0.000000 0.000000
vn -1.000000 0.000000 0.000000
vn -0.000000 0.000000 -1.000000
vn -0.000000 0.000000 -1.000000
vn -0.000000 0.000000 -1.000000
vn -0.000000 0.000000 -1.000000
vn -0.000000 0.000000 -1.000000
vn -0.000000 0.000000 -1.000000
vn -0.000000 0.000000 -1.000000
vn -0.000000 0.000000 -1.000000
vn 0.000000 0.000000 1.000000
vn 0.000000 0.000000 1.000000
vn 0.000000 0.000000 1.000000
vn 0.000000 0.000000 1.000000
s off
g group10 group9 group8 pCube56
usemtl zona_spa8:initialShadingGroup2
f 49/81/125 50/82/126 72/83/127 65/84/128
f 51/85/129 52/86/130 60/87/131 57/88/132
f 68/89/133 69/90/134 56/91/135 55/92/136
f 58/93/137 59/94/138 50/95/139 49/96/140
f 50/82/141 59/97/142 71/98/143 72/83/144
f 65/84/145 66/99/146 58/100/147 49/81/148
f 55/101/149 61/102/150 67/103/151 68/104/152
f 55/92/153 56/91/154 64/105/155 61/106/156
f 69/107/157 70/108/158 64/109/159 56/110/160
f 62/111/161 63/112/162 54/113/163 53/114/164
f 57/88/165 60/87/166 63/112/167 62/111/168
f 61/106/169 64/105/170 59/94/171 58/93/172
f 57/115/173 66/99/174 65/84/175 51/85/176
f 62/116/177 67/103/178 66/99/179 57/115/180
f 68/104/181 67/103/182 62/116/183 53/117/184
f 53/114/185 54/113/186 69/90/187 68/89/188
f 63/118/189 70/108/190 69/107/191 54/119/192
f 60/120/193 71/98/194 70/108/195 63/118/196
f 72/83/197 71/98/198 60/120/199 52/86/200
f 65/84/201 72/83/202 52/86/203 51/85/204
f 67/103/205 61/102/206 64/109/207 70/108/208
f 71/98/209 59/97/210 58/100/211 66/99/212
