# This file uses centimeters as units for non-parametric coordinates.

mtllib puertaAscensorAbajo1.mtl
g default
v -0.029840 -0.695000 0.337500
v 0.030158 -0.695000 0.337500
v -0.029840 0.685000 0.337500
v 0.030158 0.685000 0.337500
v -0.029840 0.685000 -0.337500
v 0.030158 0.685000 -0.337500
v -0.029840 -0.695000 -0.337500
v 0.030158 -0.695000 -0.337500
vt 0.472875 0.507545
vt 0.478080 0.507545
vt 0.478080 0.525895
vt 0.472875 0.525895
vt 0.375000 0.250000
vt 0.625000 0.250000
vt 0.625000 0.500000
vt 0.375000 0.500000
vt 0.625000 0.750000
vt 0.375000 0.750000
vt 0.625000 1.000000
vt 0.375000 1.000000
vt 0.041103 0.023672
vt 0.482444 0.023672
vt 0.482444 0.976328
vt 0.041103 0.976328
vt 0.955672 0.032353
vt 0.473323 0.032353
vt 0.473323 0.982579
vt 0.955672 0.982579
vn 0.000000 0.000000 1.000000
vn 0.000000 0.000000 1.000000
vn 0.000000 0.000000 1.000000
vn 0.000000 0.000000 1.000000
vn 0.000000 1.000000 0.000000
vn 0.000000 1.000000 0.000000
vn 0.000000 1.000000 0.000000
vn 0.000000 1.000000 0.000000
vn 0.000000 0.000000 -1.000000
vn 0.000000 0.000000 -1.000000
vn 0.000000 0.000000 -1.000000
vn 0.000000 0.000000 -1.000000
vn 0.000000 -1.000000 0.000000
vn 0.000000 -1.000000 0.000000
vn 0.000000 -1.000000 0.000000
vn 0.000000 -1.000000 0.000000
vn 1.000000 0.000000 0.000000
vn 1.000000 0.000000 0.000000
vn 1.000000 0.000000 0.000000
vn 1.000000 0.000000 0.000000
vn -1.000000 0.000000 0.000000
vn -1.000000 0.000000 0.000000
vn -1.000000 0.000000 0.000000
vn -1.000000 0.000000 0.000000
s off
g puertaAscensorAbajo1:puertaAscensor4
usemtl puertaAscensorAbajo1:phong7SG
f 1/1/1 2/2/2 4/3/3 3/4/4
f 3/5/5 4/6/6 6/7/7 5/8/8
f 5/8/9 6/7/10 8/9/11 7/10/12
f 7/10/13 8/9/14 2/11/15 1/12/16
f 2/13/17 8/14/18 6/15/19 4/16/20
f 7/17/21 1/18/22 3/19/23 5/20/24
