# This file uses centimeters as units for non-parametric coordinates.

mtllib puertaAscensorArriba2.mtl
g default
v -0.030170 -0.720000 0.342500
v 0.029828 -0.720000 0.342500
v -0.030170 0.660000 0.342500
v 0.029828 0.660000 0.342500
v -0.030170 0.660000 -0.332500
v 0.029828 0.660000 -0.332500
v -0.030170 -0.720000 -0.332500
v 0.029828 -0.720000 -0.332500
vt 0.375000 0.000000
vt 0.625000 0.000000
vt 0.625000 0.254523
vt 0.375000 0.254523
vt 0.625000 0.504523
vt 0.375000 0.504523
vt 0.469479 0.539237
vt 0.480974 0.539237
vt 0.480974 0.512146
vt 0.469479 0.512146
vt 0.375000 0.750000
vt 0.625000 0.750000
vt 0.625000 1.000000
vt 0.375000 1.000000
vt 0.107055 0.033172
vt 0.503929 0.033172
vt 0.503929 0.984922
vt 0.107055 0.984922
vt 0.977953 0.029139
vt 0.476948 0.029139
vt 0.476948 0.986798
vt 0.977953 0.986798
vn 0.000000 0.000000 1.000000
vn 0.000000 0.000000 1.000000
vn 0.000000 0.000000 1.000000
vn 0.000000 0.000000 1.000000
vn 0.000000 1.000000 0.000000
vn 0.000000 1.000000 0.000000
vn 0.000000 1.000000 0.000000
vn 0.000000 1.000000 0.000000
vn 0.000000 0.000000 -1.000000
vn 0.000000 0.000000 -1.000000
vn 0.000000 0.000000 -1.000000
vn 0.000000 0.000000 -1.000000
vn 0.000000 -1.000000 0.000000
vn 0.000000 -1.000000 0.000000
vn 0.000000 -1.000000 0.000000
vn 0.000000 -1.000000 0.000000
vn 1.000000 0.000000 0.000000
vn 1.000000 0.000000 0.000000
vn 1.000000 0.000000 0.000000
vn 1.000000 0.000000 0.000000
vn -1.000000 0.000000 0.000000
vn -1.000000 0.000000 0.000000
vn -1.000000 0.000000 0.000000
vn -1.000000 0.000000 0.000000
s off
g puertaAscensorArriba2:puertaAscensor2
usemtl puertaAscensorArriba2:phong7SG
f 1/1/1 2/2/2 4/3/3 3/4/4
f 3/4/5 4/3/6 6/5/7 5/6/8
f 5/7/9 6/8/10 8/9/11 7/10/12
f 7/11/13 8/12/14 2/13/15 1/14/16
f 2/15/17 8/16/18 6/17/19 4/18/20
f 7/19/21 1/20/22 3/21/23 5/22/24
