# This file uses centimeters as units for non-parametric coordinates.

mtllib puerta2_registradora.mtl
g default
v -0.472000 0.009000 0.163750
v -0.448000 0.009000 0.163750
v -0.472000 0.369000 0.163750
v -0.448000 0.369000 0.163750
v -0.472000 0.369000 -0.323750
v -0.448000 0.369000 -0.323750
v -0.472000 0.009000 -0.323750
v -0.448000 0.009000 -0.323750
v -0.472000 0.228271 0.126938
v -0.472000 0.213270 0.119854
v -0.472000 0.194729 0.119854
v -0.472000 0.179729 0.126938
v -0.472000 0.174000 0.138400
v -0.472000 0.179729 0.149862
v -0.472000 0.194729 0.156946
v -0.472000 0.213270 0.156946
v -0.472000 0.228271 0.149862
v -0.472000 0.234000 0.138400
v -0.532000 0.228271 0.126938
v -0.532000 0.213270 0.119854
v -0.532000 0.194729 0.119854
v -0.532000 0.179729 0.126938
v -0.532000 0.174000 0.138400
v -0.532000 0.179729 0.149862
v -0.532000 0.194729 0.156946
v -0.532000 0.213270 0.156946
v -0.532000 0.228271 0.149862
v -0.532000 0.234000 0.138400
v -0.472000 0.204000 0.138400
v -0.532000 0.204000 0.138400
vt 0.022637 0.925417
vt 0.080921 0.925417
vt 0.080921 0.925417
vt 0.022637 0.925417
vt 0.080921 0.976457
vt 0.022637 0.976457
vt 0.080921 0.976457
vt 0.022637 0.976457
vt 0.727114 0.541867
vt 0.995472 0.541867
vt 0.727114 0.397649
vt 0.995472 0.397649
vt 0.960018 0.396700
vt 0.729971 0.396700
vt 0.729971 0.527384
vt 0.960018 0.527384
vt 0.476773 0.808853
vt 0.476773 0.878672
vt 0.406954 0.878672
vt 0.406954 0.808853
vt 0.478458 0.875302
vt 0.478458 0.812224
vt 0.415380 0.812224
vt 0.415380 0.875302
vt 0.473403 0.881200
vt 0.473403 0.811381
vt 0.410324 0.811381
vt 0.410324 0.881200
vt 0.475088 0.872774
vt 0.475088 0.809696
vt 0.418750 0.809696
vt 0.418750 0.872774
vt 0.473403 0.808853
vt 0.473403 0.878672
vt 0.410324 0.878672
vt 0.410324 0.808853
vt 0.479301 0.808011
vt 0.479301 0.884570
vt 0.409482 0.884570
vt 0.409482 0.808011
vt 0.473403 0.811381
vt 0.473403 0.881200
vt 0.410324 0.881200
vt 0.410324 0.811381
vt 0.466662 0.817279
vt 0.466662 0.880357
vt 0.417065 0.880357
vt 0.417065 0.817279
vt 0.471718 0.821492
vt 0.471718 0.871089
vt 0.422120 0.871089
vt 0.422120 0.821492
vt 0.470033 0.882042
vt 0.470033 0.805483
vt 0.413695 0.805483
vt 0.413695 0.882042
vt 0.844970 0.613891
vt 0.713203 0.798172
vt 0.500000 0.500000
vt 0.844970 0.386109
vt 0.713203 0.201828
vt 0.500000 0.131439
vt 0.286798 0.201828
vt 0.155030 0.386109
vt 0.155030 0.613891
vt 0.286798 0.798172
vt 0.500000 0.868561
vt 0.743897 0.878011
vt 0.907440 0.641826
vt 0.479278 0.495856
vt 0.907440 0.349885
vt 0.743897 0.113700
vt 0.479278 0.023485
vt 0.214659 0.113700
vt 0.051115 0.349885
vt 0.051115 0.641826
vt 0.214659 0.878011
vt 0.479278 0.968226
vn 0.000000 0.000000 1.000000
vn 0.000000 0.000000 1.000000
vn 0.000000 0.000000 1.000000
vn 0.000000 0.000000 1.000000
vn 0.000000 1.000000 0.000000
vn 0.000000 1.000000 0.000000
vn 0.000000 1.000000 0.000000
vn 0.000000 1.000000 0.000000
vn 0.000000 0.000000 -1.000000
vn 0.000000 0.000000 -1.000000
vn 0.000000 0.000000 -1.000000
vn 0.000000 0.000000 -1.000000
vn 0.000000 -1.000000 0.000000
vn 0.000000 -1.000000 0.000000
vn 0.000000 -1.000000 0.000000
vn 0.000000 -1.000000 0.000000
vn 1.000000 0.000000 0.000000
vn 1.000000 0.000000 0.000000
vn 1.000000 0.000000 0.000000
vn 1.000000 0.000000 0.000000
vn -1.000000 0.000000 0.000000
vn -1.000000 0.000000 0.000000
vn -1.000000 0.000000 0.000000
vn -1.000000 0.000000 0.000000
vn 0.000000 0.427030 -0.904237
vn 0.000000 0.427030 -0.904237
vn 0.000000 0.427030 -0.904237
vn 0.000000 0.427030 -0.904237
vn 0.000000 0.000000 -1.000000
vn 0.000000 0.000000 -1.000000
vn 0.000000 0.000000 -1.000000
vn 0.000000 0.000000 -1.000000
vn 0.000000 -0.427030 -0.904237
vn 0.000000 -0.427030 -0.904237
vn 0.000000 -0.427030 -0.904237
vn 0.000000 -0.427030 -0.904237
vn 0.000000 -0.894471 -0.447126
vn 0.000000 -0.894471 -0.447126
vn 0.000000 -0.894471 -0.447126
vn 0.000000 -0.894471 -0.447126
vn 0.000000 -0.894470 0.447127
vn 0.000000 -0.894470 0.447127
vn 0.000000 -0.894470 0.447127
vn 0.000000 -0.894470 0.447127
vn 0.000000 -0.427033 0.904236
vn 0.000000 -0.427033 0.904236
vn 0.000000 -0.427033 0.904236
vn 0.000000 -0.427033 0.904236
vn 0.000000 0.000000 1.000000
vn 0.000000 0.000000 1.000000
vn 0.000000 0.000000 1.000000
vn 0.000000 0.000000 1.000000
vn 0.000000 0.427033 0.904236
vn 0.000000 0.427033 0.904236
vn 0.000000 0.427033 0.904236
vn 0.000000 0.427033 0.904236
vn 0.000000 0.894470 0.447128
vn 0.000000 0.894470 0.447128
vn 0.000000 0.894470 0.447128
vn 0.000000 0.894470 0.447128
vn 0.000000 0.894471 -0.447127
vn 0.000000 0.894471 -0.447127
vn 0.000000 0.894471 -0.447127
vn 0.000000 0.894471 -0.447127
vn 1.000000 0.000000 0.000000
vn 1.000000 0.000000 0.000000
vn 1.000000 0.000000 0.000000
vn 1.000000 0.000000 0.000000
vn 1.000000 0.000000 0.000000
vn 1.000000 0.000000 0.000000
vn 1.000000 0.000000 0.000000
vn 1.000000 0.000000 0.000000
vn 1.000000 0.000000 0.000000
vn 1.000000 0.000000 0.000000
vn 1.000000 0.000000 0.000000
vn -1.000000 0.000001 0.000000
vn -1.000000 0.000002 0.000000
vn -1.000000 -0.000000 0.000000
vn -1.000000 0.000000 0.000000
vn -1.000000 0.000000 0.000000
vn -1.000000 0.000000 0.000000
vn -1.000000 -0.000001 0.000000
vn -1.000000 -0.000002 0.000000
vn -1.000000 0.000000 0.000000
vn -1.000000 0.000000 0.000000
vn -1.000000 0.000000 0.000000
s off
g Puerta3
usemtl lambert3SG
f 1/1/1 2/2/2 4/3/3 3/4/4
f 3/4/5 4/3/6 6/5/7 5/6/8
f 5/6/9 6/5/10 8/7/11 7/8/12
f 7/8/13 8/7/14 2/2/15 1/1/16
f 2/11/17 8/12/18 6/10/19 4/9/20
f 7/13/21 1/14/22 3/15/23 5/16/24
usemtl lambert7SG
f 9/17/25 10/18/26 20/19/27 19/20/28
f 10/21/29 11/22/30 21/23/31 20/24/32
f 11/25/33 12/26/34 22/27/35 21/28/36
f 12/29/37 13/30/38 23/31/39 22/32/40
f 13/33/41 14/34/42 24/35/43 23/36/44
f 14/37/45 15/38/46 25/39/47 24/40/48
f 15/41/49 16/42/50 26/43/51 25/44/52
f 16/45/53 17/46/54 27/47/55 26/48/56
f 17/49/57 18/50/58 28/51/59 27/52/60
f 18/53/61 9/54/62 19/55/63 28/56/64
s 1
f 10/57/65 9/58/66 29/59/67
f 11/60/68 10/57/65 29/59/67
f 12/61/69 11/60/68 29/59/67
f 13/62/70 12/61/69 29/59/67
f 14/63/71 13/62/70 29/59/67
f 15/64/72 14/63/71 29/59/67
f 16/65/73 15/64/72 29/59/67
f 17/66/74 16/65/73 29/59/67
f 18/67/75 17/66/74 29/59/67
f 9/58/66 18/67/75 29/59/67
s 2
f 19/68/76 20/69/77 30/70/78
f 20/69/77 21/71/79 30/70/78
f 21/71/79 22/72/80 30/70/78
f 22/72/80 23/73/81 30/70/78
f 23/73/81 24/74/82 30/70/78
f 24/74/82 25/75/83 30/70/78
f 25/75/83 26/76/84 30/70/78
f 26/76/84 27/77/85 30/70/78
f 27/77/85 28/78/86 30/70/78
f 28/78/86 19/68/76 30/70/78
