# This file uses centimeters as units for non-parametric coordinates.

mtllib Piso.mtl
g default
v -2500.000000 0.000000 1250.000000
v -2500.000000 0.000000 2500.000000
v -1250.000000 0.000000 2500.000000
v -1250.000000 0.000000 1250.000000
v 0.000000 0.000000 2500.000000
v 0.000000 0.000000 1250.000000
v 1250.000000 0.000000 2500.000000
v 1250.000000 0.000000 1250.000000
v 2500.000000 0.000000 2500.000000
v 2500.000000 0.000000 1250.000000
v -2500.000000 0.000000 0.000000
v -1250.000000 0.000000 0.000000
v 0.000000 0.000000 0.000000
v 1250.000000 0.000000 0.000000
v 2500.000000 0.000000 0.000000
v -2500.000000 0.000000 -1250.000000
v -1250.000000 0.000000 -1250.000000
v 0.000000 0.000000 -1250.000000
v 1250.000000 0.000000 -1250.000000
v 2500.000000 0.000000 -1250.000000
v -2500.000000 0.000000 -2500.000000
v -1250.000000 0.000000 -2500.000000
v 0.000000 0.000000 -2500.000000
v 1250.000000 0.000000 -2500.000000
v 2500.000000 0.000000 -2500.000000
vt -1.982709 -0.752298
vt -1.982709 -1.997911
vt -0.737095 -1.997911
vt -0.737095 -0.752298
vt 0.508518 -1.997911
vt 0.508518 -0.752298
vt 1.754131 -1.997911
vt 1.754131 -0.752298
vt 2.999744 -1.997911
vt 2.999744 -0.752298
vt -1.982709 0.493316
vt -0.737095 0.493316
vt 0.508518 0.493316
vt 1.754131 0.493316
vt 2.999744 0.493316
vt -1.982709 1.738930
vt -0.737095 1.738930
vt 0.508518 1.738930
vt 1.754131 1.738930
vt 2.999744 1.738930
vt -1.982709 2.984542
vt -0.737095 2.984542
vt 0.508518 2.984542
vt 1.754131 2.984542
vt 2.999744 2.984542
vn 0.000000 1.000000 0.000000
vn 0.000000 1.000000 0.000000
vn 0.000000 1.000000 0.000000
vn 0.000000 1.000000 0.000000
vn 0.000000 1.000000 0.000000
vn 0.000000 1.000000 0.000000
vn 0.000000 1.000000 0.000000
vn 0.000000 1.000000 0.000000
vn 0.000000 1.000000 0.000000
vn 0.000000 1.000000 0.000000
vn 0.000000 1.000000 0.000000
vn 0.000000 1.000000 0.000000
vn 0.000000 1.000000 0.000000
vn 0.000000 1.000000 0.000000
vn 0.000000 1.000000 0.000000
vn 0.000000 1.000000 0.000000
vn 0.000000 1.000000 0.000000
vn 0.000000 1.000000 0.000000
vn 0.000000 1.000000 0.000000
vn 0.000000 1.000000 0.000000
vn 0.000000 1.000000 0.000000
vn 0.000000 1.000000 0.000000
vn 0.000000 1.000000 0.000000
vn 0.000000 1.000000 0.000000
vn 0.000000 1.000000 0.000000
vn 0.000000 1.000000 0.000000
vn 0.000000 1.000000 0.000000
vn 0.000000 1.000000 0.000000
vn 0.000000 1.000000 0.000000
vn 0.000000 1.000000 0.000000
vn 0.000000 1.000000 0.000000
vn 0.000000 1.000000 0.000000
vn 0.000000 1.000000 0.000000
vn 0.000000 1.000000 0.000000
vn 0.000000 1.000000 0.000000
vn 0.000000 1.000000 0.000000
vn 0.000000 1.000000 0.000000
vn 0.000000 1.000000 0.000000
vn 0.000000 1.000000 0.000000
vn 0.000000 1.000000 0.000000
vn 0.000000 1.000000 0.000000
vn 0.000000 1.000000 0.000000
vn 0.000000 1.000000 0.000000
vn 0.000000 1.000000 0.000000
vn 0.000000 1.000000 0.000000
vn 0.000000 1.000000 0.000000
vn 0.000000 1.000000 0.000000
vn 0.000000 1.000000 0.000000
vn 0.000000 1.000000 0.000000
vn 0.000000 1.000000 0.000000
vn 0.000000 1.000000 0.000000
vn 0.000000 1.000000 0.000000
vn 0.000000 1.000000 0.000000
vn 0.000000 1.000000 0.000000
vn 0.000000 1.000000 0.000000
vn 0.000000 1.000000 0.000000
vn 0.000000 1.000000 0.000000
vn 0.000000 1.000000 0.000000
vn 0.000000 1.000000 0.000000
vn 0.000000 1.000000 0.000000
vn 0.000000 1.000000 0.000000
vn 0.000000 1.000000 0.000000
vn 0.000000 1.000000 0.000000
vn 0.000000 1.000000 0.000000
s off
g Piso3D:Mesh
usemtl Piso3D:lambert2SG
f 1/1/1 2/2/2 3/3/3 4/4/4
f 4/4/5 3/3/6 5/5/7 6/6/8
f 6/6/9 5/5/10 7/7/11 8/8/12
f 8/8/13 7/7/14 9/9/15 10/10/16
f 11/11/17 1/1/18 4/4/19 12/12/20
f 12/12/21 4/4/22 6/6/23 13/13/24
f 13/13/25 6/6/26 8/8/27 14/14/28
f 14/14/29 8/8/30 10/10/31 15/15/32
f 16/16/33 11/11/34 12/12/35 17/17/36
f 17/17/37 12/12/38 13/13/39 18/18/40
f 18/18/41 13/13/42 14/14/43 19/19/44
f 19/19/45 14/14/46 15/15/47 20/20/48
f 21/21/49 16/16/50 17/17/51 22/22/52
f 22/22/53 17/17/54 18/18/55 23/23/56
f 23/23/57 18/18/58 19/19/59 24/24/60
f 24/24/61 19/19/62 20/20/63 25/25/64
