# This file uses centimeters as units for non-parametric coordinates.

mtllib Postales.mtl
g default
v -0.119185 0.265000 0.067500
v -0.114185 0.265000 0.067500
v -0.119185 0.365000 0.067500
v -0.114185 0.365000 0.067500
v -0.119185 0.365000 -0.067500
v -0.114185 0.365000 -0.067500
v -0.119185 0.265000 -0.067500
v -0.114185 0.265000 -0.067500
vt 0.345861 0.961824
vt 0.345861 0.961824
vt 0.345861 0.986824
vt 0.345861 0.986824
vt 0.370861 0.986824
vt 0.370861 0.986824
vt 0.370861 0.961824
vt 0.370861 0.961824
vn 0.000000 0.000000 1.000000
vn 0.000000 0.000000 1.000000
vn 0.000000 0.000000 1.000000
vn 0.000000 0.000000 1.000000
vn 0.000000 1.000000 0.000000
vn 0.000000 1.000000 0.000000
vn 0.000000 1.000000 0.000000
vn 0.000000 1.000000 0.000000
vn 0.000000 0.000000 -1.000000
vn 0.000000 0.000000 -1.000000
vn 0.000000 0.000000 -1.000000
vn 0.000000 0.000000 -1.000000
vn 0.000000 -1.000000 0.000000
vn 0.000000 -1.000000 0.000000
vn 0.000000 -1.000000 0.000000
vn 0.000000 -1.000000 0.000000
vn 1.000000 0.000000 0.000000
vn 1.000000 0.000000 0.000000
vn 1.000000 0.000000 0.000000
vn 1.000000 0.000000 0.000000
vn -1.000000 0.000000 0.000000
vn -1.000000 0.000000 0.000000
vn -1.000000 0.000000 0.000000
vn -1.000000 0.000000 0.000000
s off
g pCube1
usemtl lambert4SG
f 1/1/1 2/2/2 4/3/3 3/4/4
f 3/4/5 4/3/6 6/5/7 5/6/8
f 5/6/9 6/5/10 8/7/11 7/8/12
f 7/8/13 8/7/14 2/2/15 1/1/16
f 2/2/17 8/7/18 6/5/19 4/3/20
f 7/8/21 1/1/22 3/4/23 5/6/24
g default
v -0.125658 0.265000 0.067500
v -0.120658 0.265000 0.067500
v -0.125658 0.365000 0.067500
v -0.120658 0.365000 0.067500
v -0.125658 0.365000 -0.067500
v -0.120658 0.365000 -0.067500
v -0.125658 0.265000 -0.067500
v -0.120658 0.265000 -0.067500
vt 0.345861 0.961824
vt 0.345861 0.961824
vt 0.345861 0.986824
vt 0.345861 0.986824
vt 0.370861 0.986824
vt 0.370861 0.986824
vt 0.370861 0.961824
vt 0.370861 0.961824
vn 0.000000 0.000000 1.000000
vn 0.000000 0.000000 1.000000
vn 0.000000 0.000000 1.000000
vn 0.000000 0.000000 1.000000
vn 0.000000 1.000000 0.000000
vn 0.000000 1.000000 0.000000
vn 0.000000 1.000000 0.000000
vn 0.000000 1.000000 0.000000
vn 0.000000 0.000000 -1.000000
vn 0.000000 0.000000 -1.000000
vn 0.000000 0.000000 -1.000000
vn 0.000000 0.000000 -1.000000
vn 0.000000 -1.000000 0.000000
vn 0.000000 -1.000000 0.000000
vn 0.000000 -1.000000 0.000000
vn 0.000000 -1.000000 0.000000
vn 1.000000 0.000000 0.000000
vn 1.000000 0.000000 0.000000
vn 1.000000 0.000000 0.000000
vn 1.000000 0.000000 0.000000
vn -1.000000 0.000000 0.000000
vn -1.000000 0.000000 0.000000
vn -1.000000 0.000000 0.000000
vn -1.000000 0.000000 0.000000
s off
g pCube2
usemtl lambert4SG
f 9/9/25 10/10/26 12/11/27 11/12/28
f 11/12/29 12/11/30 14/13/31 13/14/32
f 13/14/33 14/13/34 16/15/35 15/16/36
f 15/16/37 16/15/38 10/10/39 9/9/40
f 10/10/41 16/15/42 14/13/43 12/11/44
f 15/16/45 9/9/46 11/12/47 13/14/48
g default
v -0.133934 0.265000 0.067500
v -0.128934 0.265000 0.067500
v -0.133934 0.365000 0.067500
v -0.128934 0.365000 0.067500
v -0.133934 0.365000 -0.067500
v -0.128934 0.365000 -0.067500
v -0.133934 0.265000 -0.067500
v -0.128934 0.265000 -0.067500
vt 0.345861 0.961824
vt 0.345861 0.961824
vt 0.345861 0.986824
vt 0.345861 0.986824
vt 0.370861 0.986824
vt 0.370861 0.986824
vt 0.370861 0.961824
vt 0.370861 0.961824
vn 0.000000 0.000000 1.000000
vn 0.000000 0.000000 1.000000
vn 0.000000 0.000000 1.000000
vn 0.000000 0.000000 1.000000
vn 0.000000 1.000000 0.000000
vn 0.000000 1.000000 0.000000
vn 0.000000 1.000000 0.000000
vn 0.000000 1.000000 0.000000
vn 0.000000 0.000000 -1.000000
vn 0.000000 0.000000 -1.000000
vn 0.000000 0.000000 -1.000000
vn 0.000000 0.000000 -1.000000
vn 0.000000 -1.000000 0.000000
vn 0.000000 -1.000000 0.000000
vn 0.000000 -1.000000 0.000000
vn 0.000000 -1.000000 0.000000
vn 1.000000 0.000000 0.000000
vn 1.000000 0.000000 0.000000
vn 1.000000 0.000000 0.000000
vn 1.000000 0.000000 0.000000
vn -1.000000 0.000000 0.000000
vn -1.000000 0.000000 0.000000
vn -1.000000 0.000000 0.000000
vn -1.000000 0.000000 0.000000
s off
g pCube3
usemtl lambert4SG
f 17/17/49 18/18/50 20/19/51 19/20/52
f 19/20/53 20/19/54 22/21/55 21/22/56
f 21/22/57 22/21/58 24/23/59 23/24/60
f 23/24/61 24/23/62 18/18/63 17/17/64
f 18/18/65 24/23/66 22/21/67 20/19/68
f 23/24/69 17/17/70 19/20/71 21/22/72
g default
v -0.141115 0.265000 0.067500
v -0.136115 0.265000 0.067500
v -0.141115 0.365000 0.067500
v -0.136115 0.365000 0.067500
v -0.141115 0.365000 -0.067500
v -0.136115 0.365000 -0.067500
v -0.141115 0.265000 -0.067500
v -0.136115 0.265000 -0.067500
vt 0.345861 0.961824
vt 0.345861 0.961824
vt 0.345861 0.986824
vt 0.345861 0.986824
vt 0.370861 0.986824
vt 0.370861 0.986824
vt 0.370861 0.961824
vt 0.370861 0.961824
vn 0.000000 0.000000 1.000000
vn 0.000000 0.000000 1.000000
vn 0.000000 0.000000 1.000000
vn 0.000000 0.000000 1.000000
vn 0.000000 1.000000 0.000000
vn 0.000000 1.000000 0.000000
vn 0.000000 1.000000 0.000000
vn 0.000000 1.000000 0.000000
vn 0.000000 0.000000 -1.000000
vn 0.000000 0.000000 -1.000000
vn 0.000000 0.000000 -1.000000
vn 0.000000 0.000000 -1.000000
vn 0.000000 -1.000000 0.000000
vn 0.000000 -1.000000 0.000000
vn 0.000000 -1.000000 0.000000
vn 0.000000 -1.000000 0.000000
vn 1.000000 0.000000 0.000000
vn 1.000000 0.000000 0.000000
vn 1.000000 0.000000 0.000000
vn 1.000000 0.000000 0.000000
vn -1.000000 0.000000 0.000000
vn -1.000000 0.000000 0.000000
vn -1.000000 0.000000 0.000000
vn -1.000000 0.000000 0.000000
s off
g pCube4
usemtl lambert4SG
f 25/25/73 26/26/74 28/27/75 27/28/76
f 27/28/77 28/27/78 30/29/79 29/30/80
f 29/30/81 30/29/82 32/31/83 31/32/84
f 31/32/85 32/31/86 26/26/87 25/25/88
f 26/26/89 32/31/90 30/29/91 28/27/92
f 31/32/93 25/25/94 27/28/95 29/30/96
g default
v -0.147272 0.265000 0.067500
v -0.142272 0.265000 0.067500
v -0.147272 0.365000 0.067500
v -0.142272 0.365000 0.067500
v -0.147272 0.365000 -0.067500
v -0.142272 0.365000 -0.067500
v -0.147272 0.265000 -0.067500
v -0.142272 0.265000 -0.067500
vt 0.251436 0.954139
vt 0.404054 0.949747
vt 0.301943 0.953041
vt 0.437838 0.949747
vt 0.335726 0.953041
vt 0.335726 0.995608
vt 0.375000 0.750000
vt 0.625000 0.750000
vt 0.375000 1.000000
vt 0.625000 1.000000
vt 0.437838 0.992314
vt 0.404054 0.992314
vt 1.000000 0.000000
vt 0.000000 0.000000
vt 0.000000 1.000000
vt 1.000000 1.000000
vt 0.267652 0.954139
vt 0.267652 0.987922
vt 0.251436 0.987922
vt 0.251436 0.987922
vt 0.267652 0.987922
vt 0.267652 0.954139
vt 0.251436 0.954139
vt 0.301943 0.995608
vn 0.000000 0.000000 1.000000
vn 0.000000 0.000000 1.000000
vn 0.000000 0.000000 1.000000
vn 0.000000 0.000000 1.000000
vn 0.000000 1.000000 0.000000
vn 0.000000 1.000000 0.000000
vn 0.000000 1.000000 0.000000
vn 0.000000 1.000000 0.000000
vn 0.000000 0.000000 -1.000000
vn 0.000000 0.000000 -1.000000
vn 0.000000 0.000000 -1.000000
vn 0.000000 0.000000 -1.000000
vn 0.000000 -1.000000 0.000000
vn 0.000000 -1.000000 0.000000
vn 0.000000 -1.000000 0.000000
vn 0.000000 -1.000000 0.000000
vn 1.000000 0.000000 0.000000
vn 1.000000 0.000000 0.000000
vn 1.000000 0.000000 0.000000
vn 1.000000 0.000000 0.000000
vn -1.000000 0.000000 0.000000
vn -1.000000 0.000000 0.000000
vn -1.000000 0.000000 0.000000
vn -1.000000 0.000000 0.000000
s off
g pCube5
usemtl lambert4SG
f 33/33/97 34/49/98 36/50/99 35/51/100
f 35/35/101 36/37/102 38/38/103 37/56/104
f 37/52/105 38/53/106 40/54/107 39/55/108
f 39/39/109 40/40/110 34/42/111 33/41/112
f 34/34/113 40/36/114 38/43/115 36/44/116
f 39/45/117 33/46/118 35/47/119 37/48/120
g default
v -0.119185 0.420388 0.067500
v -0.114185 0.420388 0.067500
v -0.119185 0.520388 0.067500
v -0.114185 0.520388 0.067500
v -0.119185 0.520388 -0.067500
v -0.114185 0.520388 -0.067500
v -0.119185 0.420388 -0.067500
v -0.114185 0.420388 -0.067500
vt 0.345861 0.961824
vt 0.345861 0.961824
vt 0.345861 0.986824
vt 0.345861 0.986824
vt 0.370861 0.986824
vt 0.370861 0.986824
vt 0.370861 0.961824
vt 0.370861 0.961824
vn 0.000000 0.000000 1.000000
vn 0.000000 0.000000 1.000000
vn 0.000000 0.000000 1.000000
vn 0.000000 0.000000 1.000000
vn 0.000000 1.000000 0.000000
vn 0.000000 1.000000 0.000000
vn 0.000000 1.000000 0.000000
vn 0.000000 1.000000 0.000000
vn 0.000000 0.000000 -1.000000
vn 0.000000 0.000000 -1.000000
vn 0.000000 0.000000 -1.000000
vn 0.000000 0.000000 -1.000000
vn 0.000000 -1.000000 0.000000
vn 0.000000 -1.000000 0.000000
vn 0.000000 -1.000000 0.000000
vn 0.000000 -1.000000 0.000000
vn 1.000000 0.000000 0.000000
vn 1.000000 0.000000 0.000000
vn 1.000000 0.000000 0.000000
vn 1.000000 0.000000 0.000000
vn -1.000000 0.000000 0.000000
vn -1.000000 0.000000 0.000000
vn -1.000000 0.000000 0.000000
vn -1.000000 0.000000 0.000000
s off
g sdsdsd
usemtl lambert5SG
f 41/57/121 42/58/122 44/59/123 43/60/124
f 43/60/125 44/59/126 46/61/127 45/62/128
f 45/62/129 46/61/130 48/63/131 47/64/132
f 47/64/133 48/63/134 42/58/135 41/57/136
f 42/58/137 48/63/138 46/61/139 44/59/140
f 47/64/141 41/57/142 43/60/143 45/62/144
g default
v -0.125658 0.420388 0.067500
v -0.120658 0.420388 0.067500
v -0.125658 0.520388 0.067500
v -0.120658 0.520388 0.067500
v -0.125658 0.520388 -0.067500
v -0.120658 0.520388 -0.067500
v -0.125658 0.420388 -0.067500
v -0.120658 0.420388 -0.067500
vt 0.345861 0.961824
vt 0.345861 0.961824
vt 0.345861 0.986824
vt 0.345861 0.986824
vt 0.370861 0.986824
vt 0.370861 0.986824
vt 0.370861 0.961824
vt 0.370861 0.961824
vn 0.000000 0.000000 1.000000
vn 0.000000 0.000000 1.000000
vn 0.000000 0.000000 1.000000
vn 0.000000 0.000000 1.000000
vn 0.000000 1.000000 0.000000
vn 0.000000 1.000000 0.000000
vn 0.000000 1.000000 0.000000
vn 0.000000 1.000000 0.000000
vn 0.000000 0.000000 -1.000000
vn 0.000000 0.000000 -1.000000
vn 0.000000 0.000000 -1.000000
vn 0.000000 0.000000 -1.000000
vn 0.000000 -1.000000 0.000000
vn 0.000000 -1.000000 0.000000
vn 0.000000 -1.000000 0.000000
vn 0.000000 -1.000000 0.000000
vn 1.000000 0.000000 0.000000
vn 1.000000 0.000000 0.000000
vn 1.000000 0.000000 0.000000
vn 1.000000 0.000000 0.000000
vn -1.000000 0.000000 0.000000
vn -1.000000 0.000000 0.000000
vn -1.000000 0.000000 0.000000
vn -1.000000 0.000000 0.000000
s off
g pCube7
usemtl lambert5SG
f 49/65/145 50/66/146 52/67/147 51/68/148
f 51/68/149 52/67/150 54/69/151 53/70/152
f 53/70/153 54/69/154 56/71/155 55/72/156
f 55/72/157 56/71/158 50/66/159 49/65/160
f 50/66/161 56/71/162 54/69/163 52/67/164
f 55/72/165 49/65/166 51/68/167 53/70/168
g default
v -0.133934 0.420388 0.067500
v -0.128934 0.420388 0.067500
v -0.133934 0.520388 0.067500
v -0.128934 0.520388 0.067500
v -0.133934 0.520388 -0.067500
v -0.128934 0.520388 -0.067500
v -0.133934 0.420388 -0.067500
v -0.128934 0.420388 -0.067500
vt 0.345861 0.961824
vt 0.345861 0.961824
vt 0.345861 0.986824
vt 0.345861 0.986824
vt 0.370861 0.986824
vt 0.370861 0.986824
vt 0.370861 0.961824
vt 0.370861 0.961824
vn 0.000000 0.000000 1.000000
vn 0.000000 0.000000 1.000000
vn 0.000000 0.000000 1.000000
vn 0.000000 0.000000 1.000000
vn 0.000000 1.000000 0.000000
vn 0.000000 1.000000 0.000000
vn 0.000000 1.000000 0.000000
vn 0.000000 1.000000 0.000000
vn 0.000000 0.000000 -1.000000
vn 0.000000 0.000000 -1.000000
vn 0.000000 0.000000 -1.000000
vn 0.000000 0.000000 -1.000000
vn 0.000000 -1.000000 0.000000
vn 0.000000 -1.000000 0.000000
vn 0.000000 -1.000000 0.000000
vn 0.000000 -1.000000 0.000000
vn 1.000000 0.000000 0.000000
vn 1.000000 0.000000 0.000000
vn 1.000000 0.000000 0.000000
vn 1.000000 0.000000 0.000000
vn -1.000000 0.000000 0.000000
vn -1.000000 0.000000 0.000000
vn -1.000000 0.000000 0.000000
vn -1.000000 0.000000 0.000000
s off
g pCube8
usemtl lambert5SG
f 57/73/169 58/74/170 60/75/171 59/76/172
f 59/76/173 60/75/174 62/77/175 61/78/176
f 61/78/177 62/77/178 64/79/179 63/80/180
f 63/80/181 64/79/182 58/74/183 57/73/184
f 58/74/185 64/79/186 62/77/187 60/75/188
f 63/80/189 57/73/190 59/76/191 61/78/192
g default
v -0.141115 0.420388 0.067500
v -0.136115 0.420388 0.067500
v -0.141115 0.520388 0.067500
v -0.136115 0.520388 0.067500
v -0.141115 0.520388 -0.067500
v -0.136115 0.520388 -0.067500
v -0.141115 0.420388 -0.067500
v -0.136115 0.420388 -0.067500
vt 0.345861 0.961824
vt 0.345861 0.961824
vt 0.345861 0.986824
vt 0.345861 0.986824
vt 0.370861 0.986824
vt 0.370861 0.986824
vt 0.370861 0.961824
vt 0.370861 0.961824
vn 0.000000 0.000000 1.000000
vn 0.000000 0.000000 1.000000
vn 0.000000 0.000000 1.000000
vn 0.000000 0.000000 1.000000
vn 0.000000 1.000000 0.000000
vn 0.000000 1.000000 0.000000
vn 0.000000 1.000000 0.000000
vn 0.000000 1.000000 0.000000
vn 0.000000 0.000000 -1.000000
vn 0.000000 0.000000 -1.000000
vn 0.000000 0.000000 -1.000000
vn 0.000000 0.000000 -1.000000
vn 0.000000 -1.000000 0.000000
vn 0.000000 -1.000000 0.000000
vn 0.000000 -1.000000 0.000000
vn 0.000000 -1.000000 0.000000
vn 1.000000 0.000000 0.000000
vn 1.000000 0.000000 0.000000
vn 1.000000 0.000000 0.000000
vn 1.000000 0.000000 0.000000
vn -1.000000 0.000000 0.000000
vn -1.000000 0.000000 0.000000
vn -1.000000 0.000000 0.000000
vn -1.000000 0.000000 0.000000
s off
g pCube9
usemtl lambert5SG
f 65/81/193 66/82/194 68/83/195 67/84/196
f 67/84/197 68/83/198 70/85/199 69/86/200
f 69/86/201 70/85/202 72/87/203 71/88/204
f 71/88/205 72/87/206 66/82/207 65/81/208
f 66/82/209 72/87/210 70/85/211 68/83/212
f 71/88/213 65/81/214 67/84/215 69/86/216
g default
v -0.147272 0.420388 0.067500
v -0.142272 0.420388 0.067500
v -0.147272 0.520388 0.067500
v -0.142272 0.520388 0.067500
v -0.147272 0.520388 -0.067500
v -0.142272 0.520388 -0.067500
v -0.147272 0.420388 -0.067500
v -0.142272 0.420388 -0.067500
vt 0.251436 0.954139
vt 0.404054 0.949747
vt 0.301943 0.953041
vt 0.437838 0.949747
vt 0.335726 0.953041
vt 0.335726 0.995608
vt 0.375000 0.750000
vt 0.625000 0.750000
vt 0.375000 1.000000
vt 0.625000 1.000000
vt 0.437838 0.992314
vt 0.404054 0.992314
vt 1.000000 0.000000
vt 0.000000 0.000000
vt 0.000000 1.000000
vt 1.000000 1.000000
vt 0.267652 0.954139
vt 0.267652 0.987922
vt 0.251436 0.987922
vt 0.251436 0.987922
vt 0.267652 0.987922
vt 0.267652 0.954139
vt 0.251436 0.954139
vt 0.301943 0.995608
vn 0.000000 0.000000 1.000000
vn 0.000000 0.000000 1.000000
vn 0.000000 0.000000 1.000000
vn 0.000000 0.000000 1.000000
vn 0.000000 1.000000 0.000000
vn 0.000000 1.000000 0.000000
vn 0.000000 1.000000 0.000000
vn 0.000000 1.000000 0.000000
vn 0.000000 0.000000 -1.000000
vn 0.000000 0.000000 -1.000000
vn 0.000000 0.000000 -1.000000
vn 0.000000 0.000000 -1.000000
vn 0.000000 -1.000000 0.000000
vn 0.000000 -1.000000 0.000000
vn 0.000000 -1.000000 0.000000
vn 0.000000 -1.000000 0.000000
vn 1.000000 0.000000 0.000000
vn 1.000000 0.000000 0.000000
vn 1.000000 0.000000 0.000000
vn 1.000000 0.000000 0.000000
vn -1.000000 0.000000 0.000000
vn -1.000000 0.000000 0.000000
vn -1.000000 0.000000 0.000000
vn -1.000000 0.000000 0.000000
s off
g pCube10
usemtl lambert5SG
f 73/89/217 74/105/218 76/106/219 75/107/220
f 75/91/221 76/93/222 78/94/223 77/112/224
f 77/108/225 78/109/226 80/110/227 79/111/228
f 79/95/229 80/96/230 74/98/231 73/97/232
f 74/90/233 80/92/234 78/99/235 76/100/236
f 79/101/237 73/102/238 75/103/239 77/104/240
g default
v -0.119185 0.578550 0.067500
v -0.114185 0.578550 0.067500
v -0.119185 0.678550 0.067500
v -0.114185 0.678550 0.067500
v -0.119185 0.678550 -0.067500
v -0.114185 0.678550 -0.067500
v -0.119185 0.578550 -0.067500
v -0.114185 0.578550 -0.067500
vt 0.345861 0.961824
vt 0.345861 0.961824
vt 0.345861 0.986824
vt 0.345861 0.986824
vt 0.370861 0.986824
vt 0.370861 0.986824
vt 0.370861 0.961824
vt 0.370861 0.961824
vn 0.000000 0.000000 1.000000
vn 0.000000 0.000000 1.000000
vn 0.000000 0.000000 1.000000
vn 0.000000 0.000000 1.000000
vn 0.000000 1.000000 0.000000
vn 0.000000 1.000000 0.000000
vn 0.000000 1.000000 0.000000
vn 0.000000 1.000000 0.000000
vn 0.000000 0.000000 -1.000000
vn 0.000000 0.000000 -1.000000
vn 0.000000 0.000000 -1.000000
vn 0.000000 0.000000 -1.000000
vn 0.000000 -1.000000 0.000000
vn 0.000000 -1.000000 0.000000
vn 0.000000 -1.000000 0.000000
vn 0.000000 -1.000000 0.000000
vn 1.000000 0.000000 0.000000
vn 1.000000 0.000000 0.000000
vn 1.000000 0.000000 0.000000
vn 1.000000 0.000000 0.000000
vn -1.000000 0.000000 0.000000
vn -1.000000 0.000000 0.000000
vn -1.000000 0.000000 0.000000
vn -1.000000 0.000000 0.000000
s off
g sdsdsd1
usemtl lambert6SG
f 81/113/241 82/114/242 84/115/243 83/116/244
f 83/116/245 84/115/246 86/117/247 85/118/248
f 85/118/249 86/117/250 88/119/251 87/120/252
f 87/120/253 88/119/254 82/114/255 81/113/256
f 82/114/257 88/119/258 86/117/259 84/115/260
f 87/120/261 81/113/262 83/116/263 85/118/264
g default
v -0.125658 0.578550 0.067500
v -0.120658 0.578550 0.067500
v -0.125658 0.678550 0.067500
v -0.120658 0.678550 0.067500
v -0.125658 0.678550 -0.067500
v -0.120658 0.678550 -0.067500
v -0.125658 0.578550 -0.067500
v -0.120658 0.578550 -0.067500
vt 0.345861 0.961824
vt 0.345861 0.961824
vt 0.345861 0.986824
vt 0.345861 0.986824
vt 0.370861 0.986824
vt 0.370861 0.986824
vt 0.370861 0.961824
vt 0.370861 0.961824
vn 0.000000 0.000000 1.000000
vn 0.000000 0.000000 1.000000
vn 0.000000 0.000000 1.000000
vn 0.000000 0.000000 1.000000
vn 0.000000 1.000000 0.000000
vn 0.000000 1.000000 0.000000
vn 0.000000 1.000000 0.000000
vn 0.000000 1.000000 0.000000
vn 0.000000 0.000000 -1.000000
vn 0.000000 0.000000 -1.000000
vn 0.000000 0.000000 -1.000000
vn 0.000000 0.000000 -1.000000
vn 0.000000 -1.000000 0.000000
vn 0.000000 -1.000000 0.000000
vn 0.000000 -1.000000 0.000000
vn 0.000000 -1.000000 0.000000
vn 1.000000 0.000000 0.000000
vn 1.000000 0.000000 0.000000
vn 1.000000 0.000000 0.000000
vn 1.000000 0.000000 0.000000
vn -1.000000 0.000000 0.000000
vn -1.000000 0.000000 0.000000
vn -1.000000 0.000000 0.000000
vn -1.000000 0.000000 0.000000
s off
g pCube11
usemtl lambert6SG
f 89/121/265 90/122/266 92/123/267 91/124/268
f 91/124/269 92/123/270 94/125/271 93/126/272
f 93/126/273 94/125/274 96/127/275 95/128/276
f 95/128/277 96/127/278 90/122/279 89/121/280
f 90/122/281 96/127/282 94/125/283 92/123/284
f 95/128/285 89/121/286 91/124/287 93/126/288
g default
v -0.133934 0.578550 0.067500
v -0.128934 0.578550 0.067500
v -0.133934 0.678550 0.067500
v -0.128934 0.678550 0.067500
v -0.133934 0.678550 -0.067500
v -0.128934 0.678550 -0.067500
v -0.133934 0.578550 -0.067500
v -0.128934 0.578550 -0.067500
vt 0.345861 0.961824
vt 0.345861 0.961824
vt 0.345861 0.986824
vt 0.345861 0.986824
vt 0.370861 0.986824
vt 0.370861 0.986824
vt 0.370861 0.961824
vt 0.370861 0.961824
vn 0.000000 0.000000 1.000000
vn 0.000000 0.000000 1.000000
vn 0.000000 0.000000 1.000000
vn 0.000000 0.000000 1.000000
vn 0.000000 1.000000 0.000000
vn 0.000000 1.000000 0.000000
vn 0.000000 1.000000 0.000000
vn 0.000000 1.000000 0.000000
vn 0.000000 0.000000 -1.000000
vn 0.000000 0.000000 -1.000000
vn 0.000000 0.000000 -1.000000
vn 0.000000 0.000000 -1.000000
vn 0.000000 -1.000000 0.000000
vn 0.000000 -1.000000 0.000000
vn 0.000000 -1.000000 0.000000
vn 0.000000 -1.000000 0.000000
vn 1.000000 0.000000 0.000000
vn 1.000000 0.000000 0.000000
vn 1.000000 0.000000 0.000000
vn 1.000000 0.000000 0.000000
vn -1.000000 0.000000 0.000000
vn -1.000000 0.000000 0.000000
vn -1.000000 0.000000 0.000000
vn -1.000000 0.000000 0.000000
s off
g pCube12
usemtl lambert6SG
f 97/129/289 98/130/290 100/131/291 99/132/292
f 99/132/293 100/131/294 102/133/295 101/134/296
f 101/134/297 102/133/298 104/135/299 103/136/300
f 103/136/301 104/135/302 98/130/303 97/129/304
f 98/130/305 104/135/306 102/133/307 100/131/308
f 103/136/309 97/129/310 99/132/311 101/134/312
g default
v -0.141115 0.578550 0.067500
v -0.136115 0.578550 0.067500
v -0.141115 0.678550 0.067500
v -0.136115 0.678550 0.067500
v -0.141115 0.678550 -0.067500
v -0.136115 0.678550 -0.067500
v -0.141115 0.578550 -0.067500
v -0.136115 0.578550 -0.067500
vt 0.345861 0.961824
vt 0.345861 0.961824
vt 0.345861 0.986824
vt 0.345861 0.986824
vt 0.370861 0.986824
vt 0.370861 0.986824
vt 0.370861 0.961824
vt 0.370861 0.961824
vn 0.000000 0.000000 1.000000
vn 0.000000 0.000000 1.000000
vn 0.000000 0.000000 1.000000
vn 0.000000 0.000000 1.000000
vn 0.000000 1.000000 0.000000
vn 0.000000 1.000000 0.000000
vn 0.000000 1.000000 0.000000
vn 0.000000 1.000000 0.000000
vn 0.000000 0.000000 -1.000000
vn 0.000000 0.000000 -1.000000
vn 0.000000 0.000000 -1.000000
vn 0.000000 0.000000 -1.000000
vn 0.000000 -1.000000 0.000000
vn 0.000000 -1.000000 0.000000
vn 0.000000 -1.000000 0.000000
vn 0.000000 -1.000000 0.000000
vn 1.000000 0.000000 0.000000
vn 1.000000 0.000000 0.000000
vn 1.000000 0.000000 0.000000
vn 1.000000 0.000000 0.000000
vn -1.000000 0.000000 0.000000
vn -1.000000 0.000000 0.000000
vn -1.000000 0.000000 0.000000
vn -1.000000 0.000000 0.000000
s off
g pCube13
usemtl lambert6SG
f 105/137/313 106/138/314 108/139/315 107/140/316
f 107/140/317 108/139/318 110/141/319 109/142/320
f 109/142/321 110/141/322 112/143/323 111/144/324
f 111/144/325 112/143/326 106/138/327 105/137/328
f 106/138/329 112/143/330 110/141/331 108/139/332
f 111/144/333 105/137/334 107/140/335 109/142/336
g default
v -0.147272 0.580000 0.067500
v -0.142272 0.580000 0.067500
v -0.147272 0.680000 0.067500
v -0.142272 0.680000 0.067500
v -0.147272 0.680000 -0.067500
v -0.142272 0.680000 -0.067500
v -0.147272 0.580000 -0.067500
v -0.142272 0.580000 -0.067500
vt 0.251436 0.954139
vt 0.404054 0.949747
vt 0.301943 0.953041
vt 0.437838 0.949747
vt 0.335726 0.953041
vt 0.335726 0.995608
vt 0.375000 0.750000
vt 0.625000 0.750000
vt 0.375000 1.000000
vt 0.625000 1.000000
vt 0.437838 0.992314
vt 0.404054 0.992314
vt 1.000000 0.000000
vt 0.000000 0.000000
vt 0.000000 1.000000
vt 1.000000 1.000000
vt 0.267652 0.954139
vt 0.267652 0.987922
vt 0.251436 0.987922
vt 0.251436 0.987922
vt 0.267652 0.987922
vt 0.267652 0.954139
vt 0.251436 0.954139
vt 0.301943 0.995608
vn 0.000000 0.000000 1.000000
vn 0.000000 0.000000 1.000000
vn 0.000000 0.000000 1.000000
vn 0.000000 0.000000 1.000000
vn 0.000000 1.000000 0.000000
vn 0.000000 1.000000 0.000000
vn 0.000000 1.000000 0.000000
vn 0.000000 1.000000 0.000000
vn 0.000000 0.000000 -1.000000
vn 0.000000 0.000000 -1.000000
vn 0.000000 0.000000 -1.000000
vn 0.000000 0.000000 -1.000000
vn 0.000000 -1.000000 0.000000
vn 0.000000 -1.000000 0.000000
vn 0.000000 -1.000000 0.000000
vn 0.000000 -1.000000 0.000000
vn 1.000000 0.000000 0.000000
vn 1.000000 0.000000 0.000000
vn 1.000000 0.000000 0.000000
vn 1.000000 0.000000 0.000000
vn -1.000000 0.000000 0.000000
vn -1.000000 0.000000 0.000000
vn -1.000000 0.000000 0.000000
vn -1.000000 0.000000 0.000000
s off
g pCube14
usemtl lambert6SG
f 113/145/337 114/161/338 116/162/339 115/163/340
f 115/147/341 116/149/342 118/150/343 117/168/344
f 117/164/345 118/165/346 120/166/347 119/167/348
f 119/151/349 120/152/350 114/154/351 113/153/352
f 114/146/353 120/148/354 118/155/355 116/156/356
f 119/157/357 113/158/358 115/159/359 117/160/360
