# This file uses centimeters as units for non-parametric coordinates.

mtllib vidriobalconprincipal.mtl
g default
v -6.989585 2.955220 17.921949
v -5.522251 2.955220 17.921949
v -5.522251 0.116264 17.921949
v -6.989585 0.116264 17.921949
v -6.989585 0.116264 17.905343
v -5.522251 0.116264 17.905343
v -5.522251 2.955220 17.905343
v -6.989585 2.955220 17.905343
vt 0.375000 0.500000
vt 0.375000 0.750000
vt 0.625000 0.750000
vt 0.625000 0.500000
vt 0.375000 0.000000
vt 0.375000 0.250000
vt 0.625000 0.250000
vt 0.625000 0.000000
vn 0.000000 0.000000 1.000000
vn 0.000000 0.000000 1.000000
vn 0.000000 0.000000 1.000000
vn 0.000000 0.000000 1.000000
vn 0.000000 0.000000 -1.000000
vn 0.000000 0.000000 -1.000000
vn 0.000000 0.000000 -1.000000
vn 0.000000 0.000000 -1.000000
vn 1.000000 0.000000 0.000000
vn 1.000000 0.000000 0.000000
vn 1.000000 0.000000 0.000000
vn 1.000000 0.000000 0.000000
vn 0.000000 -1.000000 0.000000
vn 0.000000 -1.000000 0.000000
vn 0.000000 -1.000000 0.000000
vn 0.000000 -1.000000 0.000000
vn -1.000000 0.000000 0.000000
vn -1.000000 0.000000 0.000000
vn -1.000000 0.000000 0.000000
vn -1.000000 0.000000 0.000000
vn 0.000000 1.000000 0.000000
vn 0.000000 1.000000 0.000000
vn 0.000000 1.000000 0.000000
vn 0.000000 1.000000 0.000000
s off
g polySurface260
usemtl vidrio:phong2SG
f 1/1/1 4/2/2 3/3/3 2/4/4
f 5/5/5 8/6/6 7/7/7 6/8/8
f 2/4/9 3/3/10 6/8/11 7/7/12
f 3/3/13 4/2/14 5/5/15 6/8/16
f 4/2/17 1/1/18 8/6/19 5/5/20
f 1/1/21 2/4/22 7/7/23 8/6/24
