# This file uses centimeters as units for non-parametric coordinates.

mtllib EstanteGuayaberas.mtl
g default
v -0.540000 -0.017460 0.830000
v 0.540000 -0.017460 0.830000
v -0.540000 0.042540 0.830000
v 0.540000 0.042540 0.830000
v -0.540000 0.042540 0.230000
v 0.540000 0.042540 0.230000
v -0.540000 -0.017460 0.230000
v 0.540000 -0.017460 0.230000
v 0.600000 -0.017460 0.830000
v 0.600000 -0.017460 0.230000
v 0.600000 1.782540 0.830000
v 0.600000 1.782540 0.230000
v 0.540000 1.782540 0.830000
v 0.540000 1.782540 0.230000
v 0.540000 -0.017460 0.830000
v 0.540000 -0.017460 0.230000
v -0.600000 -0.017460 0.230000
v 0.600000 -0.017460 0.230000
v -0.600000 1.782540 0.230000
v 0.600000 1.782540 0.230000
v -0.600000 1.782540 0.170000
v 0.600000 1.782540 0.170000
v -0.600000 -0.017460 0.170000
v 0.600000 -0.017460 0.170000
v -0.540000 0.402540 0.830000
v 0.540000 0.402540 0.830000
v -0.540000 0.462540 0.830000
v 0.540000 0.462540 0.830000
v -0.540000 0.462540 0.230000
v 0.540000 0.462540 0.230000
v -0.540000 0.402540 0.230000
v 0.540000 0.402540 0.230000
v 0.540000 1.645338 0.558094
v 0.540000 1.638946 0.545550
v 0.540000 1.628990 0.535594
v 0.540000 1.616446 0.529202
v 0.540000 1.602540 0.527000
v 0.540000 1.588634 0.529202
v 0.540000 1.576090 0.535594
v 0.540000 1.566134 0.545550
v 0.540000 1.559743 0.558094
v 0.540000 1.557540 0.572000
v 0.540000 1.559743 0.585906
v 0.540000 1.566134 0.598450
v 0.540000 1.576090 0.608406
v 0.540000 1.588634 0.614798
v 0.540000 1.602540 0.617000
v 0.540000 1.616446 0.614798
v 0.540000 1.628990 0.608406
v 0.540000 1.638946 0.598450
v 0.540000 1.645338 0.585906
v 0.540000 1.647540 0.572000
v -0.540000 1.645338 0.558094
v -0.540000 1.638946 0.545550
v -0.540000 1.628990 0.535594
v -0.540000 1.616446 0.529202
v -0.540000 1.602540 0.527000
v -0.540000 1.588634 0.529202
v -0.540000 1.576090 0.535594
v -0.540000 1.566134 0.545550
v -0.540000 1.559743 0.558094
v -0.540000 1.557540 0.572000
v -0.540000 1.559743 0.585906
v -0.540000 1.566134 0.598450
v -0.540000 1.576090 0.608406
v -0.540000 1.588634 0.614798
v -0.540000 1.602540 0.617000
v -0.540000 1.616446 0.614798
v -0.540000 1.628990 0.608406
v -0.540000 1.638946 0.598450
v -0.540000 1.645338 0.585906
v -0.540000 1.647540 0.572000
v 0.540000 1.602540 0.572000
v -0.540000 1.602540 0.572000
v -0.540000 -0.017460 0.830000
v -0.540000 -0.017460 0.230000
v -0.540000 1.782540 0.830000
v -0.540000 1.782540 0.230000
v -0.600000 1.782540 0.830000
v -0.600000 1.782540 0.230000
v -0.600000 -0.017460 0.830000
v -0.600000 -0.017460 0.230000
v -0.540000 1.722540 0.830000
v 0.540000 1.722540 0.830000
v -0.540000 1.782540 0.830000
v 0.540000 1.782540 0.830000
v -0.540000 1.782540 0.230000
v 0.540000 1.782540 0.230000
v -0.540000 1.722540 0.230000
v 0.540000 1.722540 0.230000
vt 0.375000 0.000000
vt 0.625000 0.000000
vt 0.375000 0.250000
vt 0.625000 0.250000
vt 0.375000 0.500000
vt 0.625000 0.500000
vt 0.375000 0.750000
vt 0.625000 0.750000
vt 0.375000 1.000000
vt 0.625000 1.000000
vt 0.875000 0.000000
vt 0.875000 0.250000
vt 0.125000 0.000000
vt 0.125000 0.250000
vt 0.023931 0.849005
vt 0.980701 0.849005
vt 0.980701 0.966197
vt 0.023931 0.966197
vt -0.020174 0.507434
vt 0.998353 0.507434
vt 0.998353 0.748783
vt -0.020174 0.748783
vt 0.102950 -0.514752
vt 0.897049 -0.514752
vt 0.897049 1.514752
vt 0.102950 1.514752
vt 0.581317 0.304801
vt 0.581317 0.695199
vt 0.418683 0.695199
vt 0.418683 0.304801
vt 0.110133 1.517146
vt 0.889867 1.517146
vt 0.889867 -0.517146
vt 0.110133 -0.517146
vt 0.375000 0.750000
vt 0.625000 0.750000
vt 0.625000 1.000000
vt 0.375000 1.000000
vt 0.625000 0.000000
vt 0.875000 0.000000
vt 0.875000 0.250000
vt 0.625000 0.250000
vt 0.374464 -0.090388
vt 0.625536 -0.090388
vt 0.625536 1.090388
vt 0.374464 1.090388
vt 0.000000 -0.482371
vt 1.000000 -0.482371
vt 1.000000 1.482371
vt 0.000000 1.482371
vt 0.057778 0.180871
vt 0.917101 0.180871
vt 0.917101 0.035354
vt 0.057778 0.035354
vt 0.005681 1.484736
vt 0.994320 1.484736
vt 0.994320 -0.484736
vt 0.005681 -0.484736
vt 0.375000 0.750000
vt 0.625000 0.750000
vt 0.625000 1.000000
vt 0.375000 1.000000
vt 0.365092 -0.083737
vt 0.634908 -0.083737
vt 0.634908 1.083737
vt 0.365092 1.083737
vt 0.634908 -0.087086
vt 0.365092 -0.087086
vt 0.365092 1.087086
vt 0.634908 1.087086
vt 0.025825 0.062411
vt 0.974175 0.062411
vt 0.974175 0.201574
vt 0.025825 0.201574
vt 0.019158 0.486612
vt 0.993333 0.486612
vt 0.993333 0.737684
vt 0.019158 0.737684
vt 0.375000 0.500000
vt 0.625000 0.500000
vt 0.625000 0.750000
vt 0.375000 0.750000
vt 0.011837 0.981707
vt 0.994620 0.981707
vt 0.994620 0.747852
vt 0.011837 0.747852
vt 0.625000 0.000000
vt 0.875000 0.000000
vt 0.875000 0.250000
vt 0.625000 0.250000
vt 0.125000 0.000000
vt 0.375000 0.000000
vt 0.375000 0.250000
vt 0.125000 0.250000
vt 0.058569 0.451038
vt 0.129566 0.451530
vt 0.127432 0.498705
vt 0.056392 0.499181
vt 0.240165 0.451924
vt 0.238066 0.498334
vt 0.224584 0.992081
vt 0.207863 0.989294
vt 0.368156 0.027281
vt 0.384877 0.030067
vt 0.191141 0.986508
vt 0.351434 0.024495
vt 0.174420 0.983722
vt 0.334713 0.021709
vt 0.688554 0.452218
vt 0.827949 0.451989
vt 0.825850 0.498398
vt 0.686477 0.498138
vt 0.938582 0.451618
vt 0.936448 0.498793
vt 1.009623 0.451142
vt 1.007445 0.499285
vt 1.034120 0.450607
vt 1.036346 0.401388
vt 1.009672 0.450067
vt 1.011850 0.401923
vt 0.938674 0.449575
vt 0.940808 0.402400
vt 0.828076 0.449180
vt 0.830175 0.402770
vt 0.688703 0.448920
vt 0.690780 0.403000
vt 0.538265 0.986522
vt 0.521694 0.982951
vt 0.727180 0.029568
vt 0.743752 0.033140
vt 0.505122 0.979379
vt 0.710609 0.025996
vt 0.488551 0.975808
vt 0.694037 0.022425
vt 0.240292 0.449115
vt 0.129660 0.449486
vt 0.131794 0.402311
vt 0.242392 0.402706
vt 0.058618 0.449962
vt 0.060796 0.401819
vt 0.034123 0.450497
vt 0.036349 0.401279
vt 0.029670 0.548934
vt 0.031896 0.499716
vt 0.940617 0.160281
vt 0.897010 0.182378
vt 0.849057 0.033668
vt 0.975262 0.125791
vt 0.997552 0.082283
vt 1.005307 0.034016
vt 0.997767 -0.014285
vt 0.975671 -0.057892
vt 0.941180 -0.092536
vt 0.897672 -0.114827
vt 0.849405 -0.122581
vt 0.801104 -0.115042
vt 0.757497 -0.092945
vt 0.722853 -0.058455
vt 0.700563 -0.014946
vt 0.692808 0.033320
vt 0.700348 0.081621
vt 0.722444 0.125228
vt 0.756935 0.159872
vt 0.800443 0.182163
vt 0.848710 0.189918
vt 0.112944 0.180632
vt 0.069436 0.158342
vt 0.161559 0.032138
vt 0.034946 0.123697
vt 0.012849 0.080090
vt 0.005310 0.031790
vt 0.013064 -0.016477
vt 0.035355 -0.059985
vt 0.069999 -0.094476
vt 0.113606 -0.116572
vt 0.161907 -0.124112
vt 0.210174 -0.116357
vt 0.253682 -0.094067
vt 0.288172 -0.059422
vt 0.310269 -0.015815
vt 0.317809 0.032485
vt 0.310054 0.080752
vt 0.287763 0.124260
vt 0.253119 0.158751
vt 0.209512 0.180847
vt 0.161211 0.188387
vt 0.163491 -0.485200
vt 0.836509 -0.485200
vt 0.836509 1.485200
vt 0.163491 1.485200
vt 0.619809 0.260636
vt 0.619809 0.739364
vt 0.380191 0.739364
vt 0.380191 0.260636
vt 0.152943 1.501022
vt 0.847057 1.501022
vt 0.847057 -0.501022
vt 0.152943 -0.501022
vt 0.375000 0.750000
vt 0.625000 0.750000
vt 0.625000 1.000000
vt 0.375000 1.000000
vt 0.625000 0.000000
vt 0.875000 0.000000
vt 0.875000 0.250000
vt 0.625000 0.250000
vt 0.034041 -0.046789
vt 0.280446 -0.046789
vt 0.280446 1.037525
vt 0.034041 1.037525
vt 0.113749 0.053802
vt 0.898952 0.053802
vt 0.898952 0.184116
vt 0.113749 0.184116
vt 0.000000 0.254027
vt 1.000000 0.254027
vt 1.000000 0.491945
vt 0.000000 0.491945
vt 0.375000 0.500000
vt 0.625000 0.500000
vt 0.625000 0.750000
vt 0.375000 0.750000
vt -0.004234 0.255912
vt 1.004234 0.255912
vt 1.004234 0.001058
vt -0.004234 0.001058
vt 0.625000 0.000000
vt 0.875000 0.000000
vt 0.875000 0.250000
vt 0.625000 0.250000
vt 0.125000 0.000000
vt 0.375000 0.000000
vt 0.375000 0.250000
vt 0.125000 0.250000
vn 0.000000 0.000000 1.000000
vn 0.000000 0.000000 1.000000
vn 0.000000 0.000000 1.000000
vn 0.000000 0.000000 1.000000
vn 0.000000 1.000000 0.000000
vn 0.000000 1.000000 0.000000
vn 0.000000 1.000000 0.000000
vn 0.000000 1.000000 0.000000
vn 0.000000 0.000000 -1.000000
vn 0.000000 0.000000 -1.000000
vn 0.000000 0.000000 -1.000000
vn 0.000000 0.000000 -1.000000
vn 0.000000 -1.000000 0.000000
vn 0.000000 -1.000000 0.000000
vn 0.000000 -1.000000 0.000000
vn 0.000000 -1.000000 0.000000
vn 1.000000 0.000000 0.000000
vn 1.000000 0.000000 0.000000
vn 1.000000 0.000000 0.000000
vn 1.000000 0.000000 0.000000
vn -1.000000 0.000000 0.000000
vn -1.000000 0.000000 0.000000
vn -1.000000 0.000000 0.000000
vn -1.000000 0.000000 0.000000
vn 1.000000 0.000000 0.000000
vn 1.000000 0.000000 0.000000
vn 1.000000 0.000000 0.000000
vn 1.000000 0.000000 0.000000
vn 0.000000 1.000000 0.000000
vn 0.000000 1.000000 0.000000
vn 0.000000 1.000000 0.000000
vn 0.000000 1.000000 0.000000
vn -1.000000 0.000000 0.000000
vn -1.000000 0.000000 0.000000
vn -1.000000 0.000000 0.000000
vn -1.000000 0.000000 0.000000
vn 0.000000 -1.000000 0.000000
vn 0.000000 -1.000000 0.000000
vn 0.000000 -1.000000 0.000000
vn 0.000000 -1.000000 0.000000
vn 0.000000 0.000000 -1.000000
vn 0.000000 0.000000 -1.000000
vn 0.000000 0.000000 -1.000000
vn 0.000000 0.000000 -1.000000
vn 0.000000 0.000000 1.000000
vn 0.000000 0.000000 1.000000
vn 0.000000 0.000000 1.000000
vn 0.000000 0.000000 1.000000
vn 0.000000 0.000000 1.000000
vn 0.000000 0.000000 1.000000
vn 0.000000 0.000000 1.000000
vn 0.000000 0.000000 1.000000
vn 0.000000 1.000000 0.000000
vn 0.000000 1.000000 0.000000
vn 0.000000 1.000000 0.000000
vn 0.000000 1.000000 0.000000
vn 0.000000 0.000000 -1.000000
vn 0.000000 0.000000 -1.000000
vn 0.000000 0.000000 -1.000000
vn 0.000000 0.000000 -1.000000
vn 0.000000 -1.000000 0.000000
vn 0.000000 -1.000000 0.000000
vn 0.000000 -1.000000 0.000000
vn 0.000000 -1.000000 0.000000
vn 1.000000 0.000000 0.000000
vn 1.000000 0.000000 0.000000
vn 1.000000 0.000000 0.000000
vn 1.000000 0.000000 0.000000
vn -1.000000 0.000000 0.000000
vn -1.000000 0.000000 0.000000
vn -1.000000 0.000000 0.000000
vn -1.000000 0.000000 0.000000
vn 0.000000 0.000000 1.000000
vn 0.000000 0.000000 1.000000
vn 0.000000 0.000000 1.000000
vn 0.000000 0.000000 1.000000
vn 0.000000 1.000000 0.000000
vn 0.000000 1.000000 0.000000
vn 0.000000 1.000000 0.000000
vn 0.000000 1.000000 0.000000
vn 0.000000 0.000000 -1.000000
vn 0.000000 0.000000 -1.000000
vn 0.000000 0.000000 -1.000000
vn 0.000000 0.000000 -1.000000
vn 0.000000 -1.000000 0.000000
vn 0.000000 -1.000000 0.000000
vn 0.000000 -1.000000 0.000000
vn 0.000000 -1.000000 0.000000
vn 1.000000 0.000000 0.000000
vn 1.000000 0.000000 0.000000
vn 1.000000 0.000000 0.000000
vn 1.000000 0.000000 0.000000
vn -1.000000 0.000000 0.000000
vn -1.000000 0.000000 0.000000
vn -1.000000 0.000000 0.000000
vn -1.000000 0.000000 0.000000
vn 0.000000 0.951058 -0.309012
vn 0.000000 0.809016 -0.587786
vn 0.000000 0.809016 -0.587786
vn 0.000000 0.951058 -0.309012
vn 0.000000 0.587781 -0.809020
vn 0.000000 0.587781 -0.809020
vn 0.000000 0.309018 -0.951056
vn 0.000000 0.309018 -0.951056
vn 0.000000 -0.000000 -1.000000
vn 0.000000 -0.000000 -1.000000
vn 0.000000 -0.309021 -0.951055
vn 0.000000 -0.309021 -0.951055
vn 0.000000 -0.587789 -0.809014
vn 0.000000 -0.587789 -0.809014
vn 0.000000 -0.809014 -0.587789
vn 0.000000 -0.809014 -0.587789
vn 0.000000 -0.951055 -0.309021
vn 0.000000 -0.951055 -0.309021
vn 0.000000 -1.000000 0.000000
vn 0.000000 -1.000000 0.000000
vn 0.000000 -0.951056 0.309019
vn 0.000000 -0.951056 0.309019
vn 0.000000 -0.809015 0.587788
vn 0.000000 -0.809015 0.587788
vn 0.000000 -0.587787 0.809016
vn 0.000000 -0.587787 0.809016
vn 0.000000 -0.309019 0.951056
vn 0.000000 -0.309019 0.951056
vn 0.000000 0.000000 1.000000
vn 0.000000 0.000000 1.000000
vn 0.000000 0.309016 0.951057
vn 0.000000 0.309016 0.951057
vn 0.000000 0.587781 0.809020
vn 0.000000 0.587781 0.809020
vn 0.000000 0.809017 0.587785
vn 0.000000 0.809017 0.587785
vn 0.000000 0.951058 0.309012
vn 0.000000 0.951058 0.309012
vn 0.000000 1.000000 0.000000
vn 0.000000 1.000000 0.000000
vn 1.000000 0.000000 0.000000
vn 1.000000 0.000000 0.000000
vn 1.000000 -0.000000 0.000000
vn 1.000000 0.000000 0.000000
vn 1.000000 0.000000 0.000000
vn 1.000000 0.000000 0.000000
vn 1.000000 0.000000 0.000000
vn 1.000000 0.000000 0.000000
vn 1.000000 0.000001 0.000000
vn 1.000000 0.000001 0.000000
vn 1.000000 0.000000 0.000000
vn 1.000000 0.000000 0.000000
vn 1.000000 0.000000 0.000000
vn 1.000000 0.000000 0.000000
vn 1.000000 -0.000003 0.000000
vn 1.000000 -0.000000 0.000000
vn 1.000000 0.000003 0.000000
vn 1.000000 0.000000 0.000000
vn 1.000000 -0.000001 0.000000
vn 1.000000 -0.000001 0.000000
vn 1.000000 0.000000 0.000000
vn -1.000000 -0.000001 0.000000
vn -1.000000 -0.000001 0.000000
vn -1.000000 0.000000 0.000000
vn -1.000000 0.000000 0.000000
vn -1.000000 0.000000 0.000000
vn -1.000000 0.000000 0.000000
vn -1.000000 0.000000 0.000000
vn -1.000000 0.000000 0.000000
vn -1.000000 0.000001 0.000000
vn -1.000000 0.000001 0.000000
vn -1.000000 0.000000 0.000000
vn -1.000000 0.000001 0.000000
vn -1.000000 0.000001 0.000000
vn -1.000000 0.000000 0.000000
vn -1.000000 -0.000003 0.000000
vn -1.000000 -0.000000 0.000000
vn -1.000000 0.000003 0.000000
vn -1.000000 0.000000 0.000000
vn -1.000000 0.000000 0.000000
vn -1.000000 0.000000 0.000000
vn -1.000000 0.000000 0.000000
vn 1.000000 0.000000 0.000000
vn 1.000000 0.000000 0.000000
vn 1.000000 0.000000 0.000000
vn 1.000000 0.000000 0.000000
vn 0.000000 1.000000 0.000000
vn 0.000000 1.000000 0.000000
vn 0.000000 1.000000 0.000000
vn 0.000000 1.000000 0.000000
vn -1.000000 0.000000 0.000000
vn -1.000000 0.000000 0.000000
vn -1.000000 0.000000 0.000000
vn -1.000000 0.000000 0.000000
vn 0.000000 -1.000000 0.000000
vn 0.000000 -1.000000 0.000000
vn 0.000000 -1.000000 0.000000
vn 0.000000 -1.000000 0.000000
vn 0.000000 0.000000 -1.000000
vn 0.000000 0.000000 -1.000000
vn 0.000000 0.000000 -1.000000
vn 0.000000 0.000000 -1.000000
vn 0.000000 0.000000 1.000000
vn 0.000000 0.000000 1.000000
vn 0.000000 0.000000 1.000000
vn 0.000000 0.000000 1.000000
vn 0.000000 0.000000 1.000000
vn 0.000000 0.000000 1.000000
vn 0.000000 0.000000 1.000000
vn 0.000000 0.000000 1.000000
vn 0.000000 1.000000 0.000000
vn 0.000000 1.000000 0.000000
vn 0.000000 1.000000 0.000000
vn 0.000000 1.000000 0.000000
vn 0.000000 0.000000 -1.000000
vn 0.000000 0.000000 -1.000000
vn 0.000000 0.000000 -1.000000
vn 0.000000 0.000000 -1.000000
vn 0.000000 -1.000000 0.000000
vn 0.000000 -1.000000 0.000000
vn 0.000000 -1.000000 0.000000
vn 0.000000 -1.000000 0.000000
vn 1.000000 0.000000 0.000000
vn 1.000000 0.000000 0.000000
vn 1.000000 0.000000 0.000000
vn 1.000000 0.000000 0.000000
vn -1.000000 0.000000 0.000000
vn -1.000000 0.000000 0.000000
vn -1.000000 0.000000 0.000000
vn -1.000000 0.000000 0.000000
s off
g estante1
usemtl lambert2SG
f 1/15/1 2/16/2 4/17/3 3/18/4
f 3/19/5 4/20/6 6/21/7 5/22/8
f 5/5/9 6/6/10 8/8/11 7/7/12
f 7/7/13 8/8/14 2/10/15 1/9/16
f 2/2/17 8/11/18 6/12/19 4/4/20
f 7/13/21 1/1/22 3/3/23 5/14/24
f 9/23/25 10/24/26 12/25/27 11/26/28
f 11/27/29 12/28/30 14/29/31 13/30/32
f 13/31/33 14/32/34 16/33/35 15/34/36
f 15/35/37 16/36/38 10/37/39 9/38/40
f 10/39/41 16/40/42 14/41/43 12/42/44
f 15/43/45 9/44/46 11/45/47 13/46/48
f 17/47/49 18/48/50 20/49/51 19/50/52
f 19/51/53 20/52/54 22/53/55 21/54/56
f 21/55/57 22/56/58 24/57/59 23/58/60
f 23/59/61 24/60/62 18/61/63 17/62/64
f 18/63/65 24/64/66 22/65/67 20/66/68
f 23/67/69 17/68/70 19/69/71 21/70/72
f 25/71/73 26/72/74 28/73/75 27/74/76
f 27/75/77 28/76/78 30/77/79 29/78/80
f 29/79/81 30/80/82 32/81/83 31/82/84
f 31/83/85 32/84/86 26/85/87 25/86/88
f 26/87/89 32/88/90 30/89/91 28/90/92
f 31/91/93 25/92/94 27/93/95 29/94/96
s 1
usemtl lambert3SG
f 33/95/97 34/96/98 54/97/99 53/98/100
f 34/96/98 35/99/101 55/100/102 54/97/99
f 35/101/101 36/102/103 56/103/104 55/104/102
f 36/102/103 37/105/105 57/106/106 56/103/104
f 37/105/105 38/107/107 58/108/108 57/106/106
f 38/109/107 39/110/109 59/111/110 58/112/108
f 39/110/109 40/113/111 60/114/112 59/111/110
f 40/113/111 41/115/113 61/116/114 60/114/112
f 41/115/113 42/117/115 62/118/116 61/116/114
f 42/117/115 43/119/117 63/120/118 62/118/116
f 43/119/117 44/121/119 64/122/120 63/120/118
f 44/121/119 45/123/121 65/124/122 64/122/120
f 45/123/121 46/125/123 66/126/124 65/124/122
f 46/127/123 47/128/125 67/129/126 66/130/124
f 47/128/125 48/131/127 68/132/128 67/129/126
f 48/131/127 49/133/129 69/134/130 68/132/128
f 49/135/129 50/136/131 70/137/132 69/138/130
f 50/136/131 51/139/133 71/140/134 70/137/132
f 51/139/133 52/141/135 72/142/136 71/140/134
f 52/143/135 33/95/97 53/98/100 72/144/136
s 2
f 34/145/137 33/146/138 73/147/139
f 35/148/140 34/145/137 73/147/139
f 36/149/141 35/148/140 73/147/139
f 37/150/142 36/149/141 73/147/139
f 38/151/143 37/150/142 73/147/139
f 39/152/144 38/151/143 73/147/139
f 40/153/145 39/152/144 73/147/139
f 41/154/146 40/153/145 73/147/139
f 42/155/147 41/154/146 73/147/139
f 43/156/148 42/155/147 73/147/139
f 44/157/149 43/156/148 73/147/139
f 45/158/150 44/157/149 73/147/139
f 46/159/151 45/158/150 73/147/139
f 47/160/152 46/159/151 73/147/139
f 48/161/153 47/160/152 73/147/139
f 49/162/154 48/161/153 73/147/139
f 50/163/155 49/162/154 73/147/139
f 51/164/156 50/163/155 73/147/139
f 52/165/157 51/164/156 73/147/139
f 33/146/138 52/165/157 73/147/139
s 3
f 53/166/158 54/167/159 74/168/160
f 54/167/159 55/169/161 74/168/160
f 55/169/161 56/170/162 74/168/160
f 56/170/162 57/171/163 74/168/160
f 57/171/163 58/172/164 74/168/160
f 58/172/164 59/173/165 74/168/160
f 59/173/165 60/174/166 74/168/160
f 60/174/166 61/175/167 74/168/160
f 61/175/167 62/176/168 74/168/160
f 62/176/168 63/177/169 74/168/160
f 63/177/169 64/178/170 74/168/160
f 64/178/170 65/179/171 74/168/160
f 65/179/171 66/180/172 74/168/160
f 66/180/172 67/181/173 74/168/160
f 67/181/173 68/182/174 74/168/160
f 68/182/174 69/183/175 74/168/160
f 69/183/175 70/184/176 74/168/160
f 70/184/176 71/185/177 74/168/160
f 71/185/177 72/186/178 74/168/160
f 72/186/178 53/166/158 74/168/160
s off
usemtl lambert2SG
f 75/187/179 76/188/180 78/189/181 77/190/182
f 77/191/183 78/192/184 80/193/185 79/194/186
f 79/195/187 80/196/188 82/197/189 81/198/190
f 81/199/191 82/200/192 76/201/193 75/202/194
f 76/203/195 82/204/196 80/205/197 78/206/198
f 81/207/199 75/208/200 77/209/201 79/210/202
f 83/211/203 84/212/204 86/213/205 85/214/206
f 85/215/207 86/216/208 88/217/209 87/218/210
f 87/219/211 88/220/212 90/221/213 89/222/214
f 89/223/215 90/224/216 84/225/217 83/226/218
f 84/227/219 90/228/220 88/229/221 86/230/222
f 89/231/223 83/232/224 85/233/225 87/234/226
